<?xml version="1.0" encoding="utf-8"?>
<!-- Generator: Adobe Illustrator 23.0.0, SVG Export Plug-In . SVG Version: 6.00 Build 0)  -->
<svg version="1.1" id="Capa_1" xmlns="http://www.w3.org/2000/svg" xmlns:xlink="http://www.w3.org/1999/xlink" x="0px" y="0px"
	 viewBox="0 0 512 512" style="enable-background:new 0 0 512 512;" xml:space="preserve">
<style type="text/css">
	.st0{fill:#8590A6;}
</style>
<g>
	<g>
		<path class="st0" d="M437,75C388.7,26.6,324.4,0,256,0S123.3,26.6,75,75C26.6,123.3,0,187.6,0,256s26.6,132.7,75,181
			c48.4,48.4,112.6,75,181,75s132.7-26.6,181-75c48.4-48.4,75-112.6,75-181S485.4,123.3,437,75z M207.4,35.3
			c-8.6,8.4-17.9,18.3-27.2,29.9c-16.1,20-29.4,41.6-39.9,64.3H68.8C100.8,82.3,150.1,47.9,207.4,35.3z M51.7,159.4h76.8
			c-8.7,26.1-13.8,53.4-15.2,81.6H30.5C32.4,212,39.8,184.5,51.7,159.4z M30.5,271h82.8c1.3,28.1,6.4,55.4,15.2,81.6H51.7
			C39.8,327.5,32.4,300,30.5,271z M68.8,382.6h71.6c10.5,22.7,23.8,44.2,39.9,64.3c9.3,11.6,18.6,21.5,27.2,29.9
			C150.1,464.1,100.8,429.7,68.8,382.6z M241,466.8c-10.7-9.2-24-22.1-37.3-38.7c-11.7-14.5-21.6-29.7-30-45.5H241V466.8z
			 M241,352.6h-80.8c-9.8-25.8-15.4-53.1-16.8-81.6H241V352.6z M241,241h-97.6c1.5-28.5,7.1-55.7,16.8-81.6H241V241z M241,129.4
			h-67.3c8.1-15.5,17.9-30.4,29.2-44.6c13.5-17,27.1-30.2,38-39.6V129.4z M481.5,241h-82.8c-1.3-28.1-6.4-55.4-15.2-81.6h76.8
			C472.2,184.5,479.6,212,481.5,241z M443.2,129.4h-71.6c-10.5-22.7-23.8-44.2-39.9-64.3c-9.3-11.6-18.6-21.5-27.2-29.9
			C361.9,47.9,411.2,82.3,443.2,129.4z M271,45.2c10.7,9.2,24,22.1,37.3,38.7c11.7,14.5,21.6,29.7,30,45.5H271V45.2z M271,159.4
			h80.8c9.8,25.8,15.4,53.1,16.8,81.6H271V159.4z M271,271h97.6c-1.5,28.5-7.1,55.7-16.8,81.6H271V271z M271,466.8v-84.2h67.3
			c-8.1,15.5-17.9,30.4-29.2,44.6C295.5,444.2,281.9,457.4,271,466.8z M304.6,476.7c8.6-8.4,17.9-18.3,27.2-29.9
			c16.1-20,29.4-41.6,39.9-64.3h71.6C411.2,429.7,361.9,464.1,304.6,476.7z M460.3,352.6h-76.8c8.7-26.1,13.8-53.4,15.2-81.6h82.8
			C479.6,300,472.2,327.5,460.3,352.6z"/>
	</g>
</g>
</svg>
