<?xml version="1.0" standalone="no"?>
<!DOCTYPE svg PUBLIC "-//W3C//DTD SVG 1.1//EN" "http://www.w3.org/Graphics/SVG/1.1/DTD/svg11.dtd" >
<svg>
<metadata>
Created by FontForge 20120731 at Thu Aug 27 11:51:22 2020
 By www
</metadata>
<defs>
<font id="Himalaya-I-R" horiz-adv-x="1055" >
  <font-face 
    font-family="Himalaya-I"
    font-weight="400"
    font-stretch="normal"
    units-per-em="1890"
    panose-1="0 0 4 0 0 0 0 0 0 0"
    ascent="1512"
    descent="-378"
    x-height="1218"
    cap-height="1569"
    bbox="-1595 -1375 2729 3164"
    underline-thickness="48"
    underline-position="-976"
    unicode-range="U+0020-F002"
  />
<missing-glyph horiz-adv-x="1106" 
d="M139 0v2269h829v-2269h-829zM276 139h554v1992h-554v-1992z" />
    <glyph glyph-name=".notdef" horiz-adv-x="1106" 
d="M139 0v2269h829v-2269h-829zM276 139h554v1992h-554v-1992z" />
    <glyph glyph-name=".null" horiz-adv-x="0" 
 />
    <glyph glyph-name="nonmarkingreturn" horiz-adv-x="972" 
 />
    <glyph glyph-name="space" unicode=" " horiz-adv-x="972" 
 />
    <glyph glyph-name="exclam" unicode="!" horiz-adv-x="397" 
d="M285 1521q0 -32 -9 -104q-2 -43 -8 -108l-32 -462l-45 -42l-31 12l-2 71l-48 623l119 60h56v-50zM293 595q0 -38 -28.5 -67t-67.5 -29q-89 0 -89 96q0 39 25 69.5t64 30.5q38 0 67 -31t29 -69z" />
    <glyph glyph-name="quotedbl" unicode="&#x22;" horiz-adv-x="528" 
d="M464 1514l-49 -301h-45l-46 301q0 80 71 80q30 0 52.5 -25.5t16.5 -54.5zM207 1514l-52 -301h-42l-49 301q-6 31 18 55.5t57 24.5q31 0 52.5 -25t15.5 -55z" />
    <glyph glyph-name="numbersign" unicode="#" horiz-adv-x="716" 
d="M720 1135h-156l-25 -188h142v-103h-158l-42 -337h-105l48 337h-178l-44 -337h-102l43 337h-147v103h167l28 188h-155v107h168l45 313h101l-39 -313h168l41 313h106l-45 -313h139v-107zM463 1135h-170l-27 -188h171z" />
    <glyph glyph-name="dollar" unicode="$" horiz-adv-x="716" 
d="M683 828q0 -138 -82.5 -229t-218.5 -112l5 -155h-86q10 42 10 147q-130 0 -278 69q16 83 16 241h64v-105q0 -32 6 -39q32 -71 192 -91v401q-141 17 -198 57q-80 60 -80 194q0 132 73.5 218.5t204.5 102.5l-6 103h85l-8 -96q121 0 240 -69q-21 -82 -21 -206h-67v74
q0 37 -6 50q-6 34 -60 58q-47 20 -86 20v-371q144 -16 211 -60q90 -63 90 -202zM311 1099v357q-153 -23 -153 -197q0 -150 153 -160zM550 775q0 147 -168 168v-386q78 17 123 77.5t45 140.5z" />
    <glyph glyph-name="percent" unicode="%" horiz-adv-x="1196" 
d="M518 1326q0 -113 -65 -187q-67 -77 -179 -77q-102 0 -166 69q-61 67 -61 170q0 111 65 186q68 79 179 79q103 0 165 -68.5t62 -171.5zM894 1594l-532 -1117h-77l534 1117h75zM1156 769q0 -112 -64 -186q-66 -76 -176 -76q-105 0 -169 68t-64 172q0 113 68 188.5t178 75.5
q104 0 165.5 -68.5t61.5 -173.5zM395 1312q0 196 -113 196q-62 0 -93 -73q-23 -54 -23 -126q0 -84 16 -125q29 -69 94 -69q119 0 119 197zM1034 761q0 83 -16 125q-28 69 -94 69q-63 0 -94 -70q-25 -53 -25 -124q0 -87 17 -130q27 -73 94 -73q61 0 94 73q24 54 24 130z" />
    <glyph glyph-name="ampersand" unicode="&#x26;" horiz-adv-x="1111" 
d="M1087 590l-128 -103q-16 -10 -65 -10q-46 0 -131 42q-77 38 -119 74q-129 -116 -282 -116q-138 0 -223.5 79.5t-85.5 218.5q0 205 219 330q-39 98 -39 190q0 108 35 141l98 91q40 39 104 39q144 0 144 -149q0 -155 -199 -305q110 -194 276 -367q61 95 61 149
q0 109 -30 113l-139 20l55 88l145 -9l293 13q-23 -65 -23 -128q-99 20 -198 20q5 -23 5 -62q0 -61 -34 -132q-23 -54 -74 -120q54 -36 81 -49q78 -42 144 -42q27 0 99 36zM501 1370q0 95 -70 95q-81 0 -81 -123q0 -73 35 -158q116 92 116 186zM587 640q-115 140 -153 190
q-73 98 -129 202q-111 -81 -111 -204q0 -98 68.5 -172.5t162.5 -74.5q87 0 162 59z" />
    <glyph glyph-name="quotesingle" unicode="'" horiz-adv-x="295" 
d="M221 1514l-49 -301h-45l-52 301q-6 30 17.5 55t54.5 25q33 0 56.5 -24.5t17.5 -55.5z" />
    <glyph glyph-name="parenleft" unicode="(" horiz-adv-x="474" 
d="M443 225l-37 -43q-331 291 -331 736q0 418 331 709l37 -56q-225 -255 -225 -653q0 -435 225 -693z" />
    <glyph glyph-name="parenright" unicode=")" horiz-adv-x="474" 
d="M401 918q0 -441 -329 -736l-39 39q224 261 224 697q0 399 -224 653l39 56q329 -291 329 -709z" />
    <glyph glyph-name="asterisk" unicode="*" horiz-adv-x="555" 
d="M523 1248l-18 -19l-181 30l87 -169v-24l-106 -45l-23 9l-27 202l-145 -123l-16 -3l-58 93l11 19l171 71l-171 92l-6 27l67 81h25l122 -137l38 207l19 7l99 -30v-31l-87 -177l181 34l18 -11v-103z" />
    <glyph glyph-name="plus" unicode="+" horiz-adv-x="868" 
d="M802 855h-318v-340h-99v340h-324v108h324v334h99v-334h318v-108z" />
    <glyph glyph-name="comma" unicode="," horiz-adv-x="356" 
d="M327 684q-42 -109 -98 -202q-27 -46 -121 -181l-61 -32l-33 30q71 129 89 172q40 103 40 199l150 41z" />
    <glyph glyph-name="ch473" unicode="-" horiz-adv-x="1463" 
 />
    <glyph glyph-name="period" unicode="." horiz-adv-x="356" 
d="M272 595q0 -37 -28.5 -66.5t-65.5 -29.5q-38 0 -65.5 29.5t-27.5 66.5q0 38 27.5 69t65.5 31q39 0 66.5 -30.5t27.5 -69.5z" />
    <glyph glyph-name="slash" unicode="/" horiz-adv-x="868" 
d="M758 1618l-540 -1291h-110l540 1291h110z" />
    <glyph glyph-name="zero" unicode="0" horiz-adv-x="643" 
d="M570 1037q0 -564 -269 -564q-146 0 -201 167q-36 108 -36 337q0 161 12 239q21 135 90 217q61 75 158 75q246 0 246 -471zM429 886v77q0 137 -14 230q0 68 -25 134q-32 86 -89 86q-94 0 -94 -287v-55q0 -50 6 -170l5 -128q18 -117 23 -133q24 -78 77 -78q62 0 91 138
q20 90 20 186z" />
    <glyph glyph-name="one" unicode="1" horiz-adv-x="547" 
d="M505 493l-212 6l-218 -6v72q93 0 106 5q37 15 37 86l-5 692l-164 -100q-16 84 -16 122q171 68 329 151q17 9 20 -5q2 -7 0 -41l-8 -199v-620q0 -74 28 -86q12 -5 103 -5v-72z" />
    <glyph glyph-name="two" unicode="2" horiz-adv-x="547" 
d="M523 684q-3 -23 -3 -50v-127l-248 -6l-253 -2v88l111 138l74 116q64 99 87 150q40 94 40 179q0 163 -113 163q-55 0 -94 -60l-14 -53l-10 -72l-53 8l17 257q91 98 179 98q111 0 182 -84q64 -79 64 -193q0 -146 -115 -305l-180 -245l324 7z" />
    <glyph glyph-name="three" unicode="3" horiz-adv-x="547" 
d="M509 847q0 -157 -100 -271q-89 -103 -215 -103q-79 0 -147 36q0 41 -14 121t-14 120l45 14q59 -188 172 -188q62 0 96 66q28 51 28 122q0 179 -131 179q-47 0 -71 -7l-11 11l21 124q12 -3 34 -3q129 0 129 152q0 122 -104 122t-124 -149l-54 6l39 234q78 75 169 75
q93 0 150 -63t57 -156q0 -135 -104 -215q149 -33 149 -227z" />
    <glyph glyph-name="four" unicode="4" horiz-adv-x="547" 
d="M525 499h-376v66q91 0 103 6q30 12 30 85v91h-263l-10 67q39 130 130 351q79 197 141 320l141 39l10 -16l-2 -43l-5 -156v-421h96v-138h-96v-94q0 -68 16 -81q13 -10 85 -10v-66zM282 888v456l-179 -456h179z" />
    <glyph glyph-name="five" unicode="5" horiz-adv-x="547" 
d="M525 869q0 -149 -81 -265q-91 -131 -233 -131q-49 0 -139 36l-27 213l40 33q38 -177 158 -177q139 0 139 191q0 79 -30 135q-37 69 -109 69q-71 0 -120 -65l-32 25v575l194 -11l100 3l108 8l2 -31q-2 -25 -2 -71v-78l-4 -19l-234 8l-89 -8l-3 -210q83 46 142 46
q108 0 168 -87q52 -76 52 -189z" />
    <glyph glyph-name="six" unicode="6" horiz-adv-x="547" 
d="M520 841q0 -136 -50 -238q-64 -130 -188 -130q-136 0 -201 165q-45 118 -45 280q0 153 40 272q37 111 126 211q101 113 235 113l52 -49l-26 -38q-13 2 -24 2q-133 0 -202 -156q-19 -45 -34 -123q-12 -65 -12 -123q27 41 45 58q46 46 110 46q95 0 140 -103q34 -77 34 -187
zM379 764q0 102 -28 158q-33 66 -69 66q-96 0 -96 -178q0 -245 105 -245q88 0 88 199z" />
    <glyph glyph-name="seven" unicode="7" horiz-adv-x="547" 
d="M548 1422q-85 -216 -161 -436q-94 -274 -158 -487l-71 2l-50 -2l-17 19q70 156 169 395q114 277 151 388h-233q-45 0 -58 -24q-4 -9 -12 -68l-5 -41v-44h-56v365l8 16q45 0 154 -5l121 -5l218 5v-78z" />
    <glyph glyph-name="eight" unicode="8" horiz-adv-x="547" 
d="M520 814q0 -134 -63 -231q-72 -110 -200 -110q-111 0 -171 83q-53 73 -53 189q0 166 119 243q-99 83 -99 230q0 125 55 202q63 88 183 88q92 0 146 -68q50 -65 50 -159q0 -107 -97 -205q130 -82 130 -262zM382 1259q0 154 -108 154q-96 0 -96 -124q0 -57 29 -96
q20 -26 73 -58l44 -29q58 68 58 153zM387 728q0 122 -113 183l-57 41q-75 -80 -75 -188q0 -73 29 -128q36 -69 103 -69q54 0 86 56q27 47 27 105z" />
    <glyph glyph-name="nine" unicode="9" horiz-adv-x="547" 
d="M518 1093q0 -237 -87 -389q-49 -90 -101 -142q-57 -58 -132 -75q-23 -14 -85 -14l-49 50l20 39q20 -5 35 -5q53 0 118 49q50 47 74 110q13 37 29 120q14 68 14 124q-17 -24 -58 -66q-34 -39 -85 -39q-101 0 -147 103q-36 77 -36 190q0 144 48 240q63 123 192 123
q250 0 250 -418zM362 1170q0 107 -12 158q-26 92 -84 92q-55 0 -81 -76q-19 -53 -19 -121q0 -225 106 -225q90 0 90 172z" />
    <glyph glyph-name="colon" unicode=":" horiz-adv-x="356" 
d="M268 1115q0 -38 -26.5 -68.5t-63.5 -30.5q-38 0 -65.5 30.5t-27.5 68.5t27.5 68t65.5 30q39 0 64.5 -29.5t25.5 -68.5zM268 595q0 -39 -25.5 -67.5t-64.5 -28.5t-66 28.5t-27 67.5q0 38 27.5 69t65.5 31q36 0 63 -31t27 -69z" />
    <glyph glyph-name="semicolon" unicode=";" horiz-adv-x="356" 
d="M311 1115q0 -36 -29.5 -67.5t-64.5 -31.5q-41 0 -67 29t-26 70q0 98 93 98q39 0 66.5 -29t27.5 -69zM327 686q-35 -96 -98 -199q-49 -81 -121 -182l-61 -31l-33 25q72 137 89 178q40 103 40 193l93 25q40 16 60 25z" />
    <glyph glyph-name="less" unicode="&#x3c;" horiz-adv-x="868" 
d="M805 501l-736 359v100l736 357v-114l-601 -299l601 -290v-113z" />
    <glyph glyph-name="equal" unicode="=" horiz-adv-x="868" 
d="M802 1005h-741v101h741v-101zM802 711h-741v103h741v-103z" />
    <glyph glyph-name="greater" unicode="&#x3e;" horiz-adv-x="868" 
d="M797 860l-739 -359v113l606 290l-606 299v114l739 -357v-100z" />
    <glyph glyph-name="question" unicode="?" horiz-adv-x="632" 
d="M573 1328q0 -80 -70 -168q-36 -48 -78 -86q-93 -88 -98 -97q-45 -50 -45 -91q0 -39 42 -81l-48 -25q-74 39 -74 119q0 49 34 99q62 70 166 220q22 41 22 79q0 70 -47 112.5t-117 42.5q-97 0 -118 -57l-32 -81l-61 19l59 181q90 57 188 57q115 0 193 -63q84 -66 84 -180z
M376 595q0 -37 -28 -66.5t-66 -29.5t-64.5 29.5t-26.5 66.5q0 38 27 69t64 31q39 0 66.5 -30.5t27.5 -69.5z" />
    <glyph glyph-name="at" unicode="@" horiz-adv-x="1070" 
d="M1046 1131q0 -144 -96 -277q-104 -145 -244 -145q-94 0 -119 108q-50 -55 -69 -70q-42 -31 -97 -31q-94 0 -151 68q-52 63 -52 159q0 130 93 237q95 113 223 113q46 0 78 -34t32 -80h12l25 99h145l-110 -431q-7 -28 -8 -44q0 -30 28 -30q93 0 160 137q56 116 56 219
q0 155 -115 253q-109 93 -267 93q-199 0 -322.5 -127.5t-123.5 -326.5t129 -323.5t328 -124.5q219 0 352 212h110q-68 -136 -193 -221q-129 -87 -277 -87q-234 0 -392.5 152.5t-158.5 382.5q0 235 152.5 397t383.5 162q197 0 336 -115q152 -128 152 -325zM626 1131
q0 101 -68 101q-85 0 -145 -128q-51 -108 -51 -205q0 -124 81 -124q80 0 135 142q48 118 48 214z" />
    <glyph glyph-name="A" unicode="A" horiz-adv-x="1111" 
d="M1092 501l-204 6l-197 -6v66l75 6q48 3 48 22q0 27 -25 89l-69 169h-393l-39 -94q-20 -48 -31 -80q-20 -59 -20 -78q0 -23 59 -28l64 -6v-66l-174 6l-172 -6v66l58 6q45 0 71 67l321 771q31 76 64 172h65l389 -966q30 -42 52 -44l58 -6v-66zM691 929l-166 413l-169 -413
h335z" />
    <glyph glyph-name="B" unicode="B" horiz-adv-x="876" 
d="M836 858q0 -137 -94 -236q-125 -128 -336 -121l-160 6l-162 -6v53l43 19q25 10 25 86v716q0 77 -3 86q-9 34 -64 39l-57 5v64l213 -3l279 3q265 2 265 -218q0 -95 -74 -162q-67 -59 -167 -77v-11q112 0 192 -52q100 -66 100 -191zM626 1319q0 170 -208 170
q-71 0 -107 -12v-346l90 -5q91 -5 156 42q69 51 69 151zM667 833q0 114 -71 168q-76 58 -203 53l-82 -3v-456q24 -5 50 -5h57q117 0 183 63t66 180z" />
    <glyph glyph-name="C" unicode="C" horiz-adv-x="1012" 
d="M972 645l-48 -83q-129 -85 -318 -85q-263 0 -423 144q-164 150 -164 411q0 259 179 414q170 148 421 148q156 0 346 -64q-36 -129 -36 -243h-58v116q0 25 -35 47q-17 10 -84 39q-66 22 -155 22q-192 0 -302 -131q-101 -123 -101 -320q0 -218 119 -348q125 -134 339 -134
q173 0 297 94z" />
    <glyph glyph-name="D" unicode="D" horiz-adv-x="1106" 
d="M1085 1099q0 -170 -82 -319q-86 -161 -234 -226q-131 -58 -309 -53l-184 6l-207 -6v50l55 27q28 25 28 81v716q0 77 -3 86q-9 35 -64 39l-66 5v64l293 -3l250 3q229 2 376 -124t147 -346zM913 1057q0 252 -130 351q-106 81 -323 81q-110 0 -149 -12v-880q55 -4 149 -4
q152 0 231 38q222 107 222 426z" />
    <glyph glyph-name="E" unicode="E" horiz-adv-x="876" 
d="M830 775q-28 -123 -28 -268l-287 -6l-313 6l-161 -6v66l59 6q44 4 53.5 22.5t9.5 101.5v678q0 86 -11 106q-10 16 -52 19l-81 5v64l253 -3l340 3l196 -3q-25 -116 -25 -252h-67v108q0 30 -10 34q-86 33 -277 33q-67 0 -108 -14v-382l182 -3q106 0 119 11l6 34l8 83h64
l-9 -183l9 -177h-64l-8 102l-6 28q-25 17 -149 17h-79q-38 0 -73 -7v-403q25 -5 50 -5h177q140 0 168 11q29 27 42 174h72z" />
    <glyph glyph-name="F" unicode="F" horiz-adv-x="798" 
d="M780 1566q-25 -94 -25 -252h-72v108q0 30 -6 34q-90 33 -248 33q-67 0 -108 -14v-382l182 -3q106 0 119 11l6 34l8 83h64l-9 -183l9 -177h-64l-8 102l-6 28q-25 17 -149 17h-79q-38 0 -73 -7v-301q0 -81 1 -84q9 -36 60 -40l74 -6v-66l-215 6l-222 -6v66l81 6q50 3 60 41
q3 9 3 83v678q0 86 -11 106q-10 16 -52 19l-81 5v64l253 -3l311 3z" />
    <glyph glyph-name="G" unicode="G" horiz-adv-x="1092" 
d="M1051 883l-47 -23q-8 -2 -8 -15v-288q-269 -80 -387 -80q-273 0 -429 143q-161 149 -161 421q0 259 180 410q170 143 434 143q122 0 225 -23q5 0 146 -41q-32 -122 -32 -243h-64v88q0 47 -36 74q-18 13 -78 36q-64 26 -193 26q-199 0 -306 -125q-101 -120 -101 -320
q0 -226 111 -361q119 -147 339 -147q170 0 192 45q8 17 8 62v149q0 44 -42 44l-125 11v67l183 -7l186 7z" />
    <glyph glyph-name="H" unicode="H" horiz-adv-x="1190" 
d="M1170 501l-218 6l-224 -6v66l77 6q41 3 55 20q14 9 14 104v328l-113 2l-440 -2v-328q0 -81 1 -84q9 -36 60 -40l74 -6v-66l-215 6l-222 -6v66l81 6q50 3 60 41q3 9 3 83v678q0 86 -11 106q-10 16 -52 19l-81 5v64l222 -3l215 3v-64l-74 -5q-46 -3 -53.5 -23.5
t-7.5 -101.5v-260l108 -3l445 3v293q0 58 -12.5 73.5t-56.5 18.5l-77 5v64l224 -3l218 3v-64l-80 -5q-38 -3 -52 -20q-15 -22 -15 -105v-678q0 -85 11 -102q14 -19 56 -22l80 -6v-66z" />
    <glyph glyph-name="I" unicode="I" horiz-adv-x="480" 
d="M456 501l-215 6l-222 -6v66l81 6q50 3 60 41q3 9 3 83v678q0 86 -11 106q-10 16 -52 19l-81 5v64l222 -3l215 3v-64l-74 -5q-46 -3 -53.5 -23.5t-7.5 -101.5v-678q0 -81 1 -84q9 -36 60 -40l74 -6v-66z" />
    <glyph glyph-name="J" unicode="J" horiz-adv-x="474" 
d="M454 1505l-78 -5q-44 -3 -52 -20q-12 -22 -12 -105v-733q0 -99 -11 -146q-19 -87 -77 -158q-43 -53 -101 -91t-113 -34l-30 4l-13 129l29 14q49 -28 101 -28q38 0 46 47q12 23 12 114v882q0 86 -12 108q-1 14 -46 17l-78 5v64l218 -3l217 3v-64z" />
    <glyph glyph-name="K" unicode="K" horiz-adv-x="1037" 
d="M1037 501l-104 6l-119 -4l-490 502l-3 -308q-1 -86 7 -103.5t54 -20.5l74 -6v-66l-215 6l-222 -6v66l81 6q50 3 60 41q3 9 3 83v678q0 86 -11 106q-10 16 -52 19l-81 5v64l222 -3l215 3v-64l-74 -5q-46 -3 -53.5 -23.5t-7.5 -101.5v-299l382 390l33 48v55l142 -3l120 3
v-64l-69 -2q-46 -2 -105 -57l-374 -353l466 -462q24 -26 82 -60l39 -4v-66z" />
    <glyph glyph-name="L" unicode="L" horiz-adv-x="876" 
d="M846 789q0 -34 -32 -282l-286 -6l-311 6l-133 -6v50l55 27q24 32 24 81v716q0 86 -11 106q-10 16 -52 19l-81 5v64l222 -3l215 3v-64l-74 -5q-46 -3 -53.5 -23.5t-7.5 -101.5v-780q25 -5 50 -5h102q237 0 263 17q12 9 19 45q5 25 9 52l21 85h61z" />
    <glyph glyph-name="M" unicode="M" horiz-adv-x="1352" 
d="M1335 501l-220 6l-199 -6v66l61 6q41 4 46 20q14 9 14 104v675h14q-22 -40 -58 -118l-254 -570l-78 -197h-47l-393 885h15v-675q0 -87 8.5 -104t51.5 -20l74 -6v-66l-182 6l-172 -6v66l69 6q50 4 57 20l5 104v729q0 32 -5 55q-10 15 -57 19l-69 5v64l239 -3q33 5 50 5
l367 -824l369 824q90 -6 143 -5l141 3v-64l-66 -5q-45 -4 -59 -19q-8 -23 -8 -70v-714q0 -83 2 -87q8 -33 65 -37l76 -6v-66z" />
    <glyph glyph-name="N" unicode="N" horiz-adv-x="1190" 
d="M1176 1505l-75 -5q-40 -3 -49 -13t-11 -50q-4 -34 -4 -62l6 -902l-147 28l-669 880l9 -684q0 -45 9 -103q11 -18 53 -21l72 -6v-66l-179 6l-172 -6v66l66 6q56 4 64 37v87v711q0 54 -6 67q-10 21 -58 25l-66 5v64l175 -3l86 5l679 -887l-5 691q0 71 -4 84q-12 37 -62 41
l-74 5v64l179 -3l183 3v-64z" />
    <glyph glyph-name="O" unicode="O" horiz-adv-x="1122" 
d="M1104 1071q0 -247 -158 -419q-162 -175 -407 -175q-238 0 -381 159q-139 155 -139 396q0 249 150 405.5t398 156.5q249 0 391 -136q146 -140 146 -387zM929 1021q0 213 -83 341q-99 149 -302 149q-176 0 -269 -123q-81 -111 -81 -295q0 -220 91 -365q106 -170 302 -170
q178 0 268 150q74 122 74 313z" />
    <glyph glyph-name="P" unicode="P" horiz-adv-x="863" 
d="M841 1328q0 -148 -102.5 -241.5t-251.5 -93.5q-33 0 -94 14l-23 78q55 -19 111 -19q86 0 142 64q54 62 54 148q0 213 -223 213q-84 0 -133 -16v-778q0 -81 1 -84q9 -36 60 -40l74 -6v-66l-215 6l-222 -6v66l81 6q50 3 60 41q3 9 3 83v678q0 70 -4 83q-11 39 -59 42l-81 5
v64l272 -3l241 3q125 1 210 -53q99 -63 99 -188z" />
    <glyph glyph-name="Q" unicode="Q" horiz-adv-x="1122" 
d="M1104 330l-127 -93l-161 45l-210 69q-67 23 -111 23q-8 0 -35 -11l-98 -62l6 75q79 61 147 87l22 8l2 8q-246 0 -385 159q-135 153 -135 403q0 247 150.5 400t397.5 153q249 0 391 -136q146 -140 146 -387q0 -225 -140 -402q-150 -190 -369 -190q76 -23 207 -58
q37 -11 106 -31q73 -21 110 -21q25 0 86 14v-53zM929 1021q0 213 -83 341q-99 149 -302 149q-176 0 -269 -123q-81 -111 -81 -295q0 -220 91 -365q106 -170 302 -170q182 0 270 148q72 119 72 315z" />
    <glyph glyph-name="R" unicode="R" horiz-adv-x="957" 
d="M968 501l-116 6l-100 -6l-61 92l-262 367l-79 100l12 33q44 -6 63 -6h35q24 6 35 6q77 14 127 68.5t50 131.5q0 198 -218 198q-84 0 -133 -16v-778q0 -81 1 -84q9 -36 60 -40l74 -6v-66l-215 6l-222 -6v66l81 6q50 3 60 41q3 9 3 83v678q0 76 -2 85q-10 36 -61 40l-67 5
v64l249 -3l252 3q302 3 302 -236q0 -222 -274 -298l317 -434q20 -34 89 -34v-66z" />
    <glyph glyph-name="S" unicode="S" horiz-adv-x="751" 
d="M725 869q0 -189 -136 -296q-124 -96 -301 -96q-140 0 -255 63q14 74 14 245h57l19 -106q2 -58 86 -91q65 -26 131 -26q106 0 176 58q73 63 73 165q0 106 -88 151q-57 29 -185 44q-294 33 -294 265q0 166 125 263q110 86 254 86q55 0 117 -15q32 -7 154 -52
q-24 -109 -24 -226h-61l-12 94q0 46 -51 79q-57 37 -156 37q-93 0 -149 -58.5t-56 -151.5q0 -95 82 -138q52 -26 166 -39q314 -36 314 -255z" />
    <glyph glyph-name="T" unicode="T" horiz-adv-x="879" 
d="M863 1569q-14 -84 -14 -262h-60l-6 126q-1 42 -53 42h-210l-2 -142v-636q0 -91 10 -104q7 -17 53 -20l75 -6v-66l-216 6l-219 -6v66l75 6q52 4 63 39q3 11 3 85v636l-8 142h-211q-40 0 -43 -42l-9 -126h-66l-6 262h844z" />
    <glyph glyph-name="U" unicode="U" horiz-adv-x="1111" 
d="M1096 1505l-75 -5q-42 -3 -53 -19q-9 -23 -9 -70v-473q0 -241 -85 -345q-95 -116 -330 -116q-204 0 -296 78q-101 85 -101 286v585q0 32 -5 55q-10 16 -57 19l-76 5v64l220 -3l216 3v-64l-77 -5q-43 -3 -52 -20q-9 -22 -9 -69v-556q0 -144 70 -205q66 -57 212 -57
q289 0 289 301v517q0 54 -17 71q-12 15 -53 18l-72 5v64l180 -3l180 3v-64z" />
    <glyph glyph-name="V" unicode="V" horiz-adv-x="1033" 
d="M1021 1505l-53 -5q-18 -2 -35 -28q-13 -23 -34 -77l-251 -631q-15 -37 -55 -161q-14 -36 -36 -107h-87q-26 109 -83 254l-270 695q-15 55 -56 55l-58 5v64l199 -3l199 3v-64l-89 -5q-45 -3 -32 -35l270 -740l252 688q12 31 12 53q0 31 -39 34l-84 5v64l161 -3l169 3v-64z
" />
    <glyph glyph-name="W" unicode="W" horiz-adv-x="1430" 
d="M1417 1505l-53 -5q-38 -4 -47 -35l-258 -969h-87q-50 161 -103 312l-169 485l-244 -641l-50 -156h-85q-7 34 -16 82q-18 58 -23 78l-172 774q-8 43 -22 53q-16 14 -41 17l-44 5v64l188 -3l191 3v-64l-70 -5q-44 -3 -44 -48q0 -10 6 -41l127 -661h10l164 463q3 6 87 237
q15 41 44 133h60q9 -37 60 -200l208 -647h12l174 729q3 6 3 12q0 18 -58 23l-67 5v64l161 -3l158 3v-64z" />
    <glyph glyph-name="X" unicode="X" horiz-adv-x="953" 
d="M933 501l-109 6l-108 -6l-27 41l-235 413l-53 -83l-227 -371l-77 6l-83 -6v66l41 6q31 4 53 28q3 3 35 50l268 379l-182 312q-77 133 -125 133l-71 10l-3 55l207 43q24 -11 54 -47q12 -15 39 -55l175 -316l256 401h163v-66l-72 -3q-18 -2 -88 -102l-216 -302l254 -418
q22 -50 34 -65q24 -37 52 -37l45 -6v-66z" />
    <glyph glyph-name="Y" unicode="Y" horiz-adv-x="953" 
d="M943 1571l-3 -32q-99 -126 -195 -275q-126 -191 -150 -266q-22 -39 -22 -104v-197q0 -91 14 -104q7 -17 49 -20l80 -6v-66l-217 6l-223 -6v66l75 6q50 4 57 15q10 15 10 109v211l-9 64l-180 321q-46 80 -99 136q-49 51 -77 54l-47 6v61l172 39q26 5 55 -23q3 -3 24 -39
q36 -43 67 -101l196 -377l138 235q18 29 65 111q43 77 91 176h129z" />
    <glyph glyph-name="Z" unicode="Z" horiz-adv-x="953" 
d="M920 789l-7 -288l-445 6l-454 -6v56l138 179l435 583q12 21 41 62l72 102h-310q-106 0 -120 -1q-83 -11 -90 -60l-6 -119h-70v268q153 0 579 -5q41 0 117 2q80 3 116 3l2 -60l-682 -916h370q160 0 196 15q40 15 44 85l6 94h68z" />
    <glyph glyph-name="bracketleft" unicode="[" horiz-adv-x="474" 
d="M424 1552l-13 -6h-61q-86 0 -90 -59q-3 -41 -4 -81l-1 -50v-912q0 -49 5 -93q0 -50 90 -50h61l10 -10v-45l-10 -19l-145 6l-142 -6l-21 30q14 51 14 283v843q0 160 -14 211l21 27l142 -5l145 5l13 -16v-53z" />
    <glyph glyph-name="backslash" unicode="\" horiz-adv-x="868" 
d="M747 507h-105l-539 1111h101z" />
    <glyph glyph-name="bracketright" unicode="]" horiz-adv-x="474" 
d="M374 257l-20 -30l-141 6l-147 -6l-11 17v47l9 10h60q90 0 93 50q4 122 4 189v902q-4 43 -4 61q0 43 -93 43h-63l-6 6v53l11 16l147 -5l141 5l20 -27q-14 -51 -14 -285v-769q0 -227 14 -283z" />
    <glyph glyph-name="asciicircum" unicode="^" horiz-adv-x="868" 
d="M805 933h-114l-260 500l-257 -500h-116l324 633h102z" />
    <glyph glyph-name="underscore" unicode="_" horiz-adv-x="716" 
d="M722 315h-732v98h732v-98z" />
    <glyph glyph-name="glyph86" unicode="`" horiz-adv-x="474" 
d="M390 1270l-85 3l-205 135q-64 24 -64 77q0 65 58 65q18 0 84 -55z" />
    <glyph glyph-name="a" unicode="a" horiz-adv-x="716" 
d="M683 501l-116 6l-122 -6l5 116l-157 -116q-21 -12 -72 -12q-185 0 -185 195q0 119 91 179q61 40 197 70l130 27q0 171 -172 171q-71 0 -91 -26l-25 -48l-23 -52l-46 11v113l77 52q37 25 88 39q43 12 81 12q148 0 201 -86q43 -65 43 -224v-277l6 -58q2 -11 24 -16l66 -4
v-66zM454 706v188l-94 -21q-45 -10 -103 -32q-79 -51 -79 -132q0 -47 29 -80.5t75 -33.5q53 0 129 66z" />
    <glyph glyph-name="b" unicode="b" horiz-adv-x="793" 
d="M732 913q0 -72 -32 -158q-35 -90 -81 -124l-143 -108q-45 -34 -139 -34q-106 0 -174 51l-55 -53l-36 12l6 74l7 174v703q0 53 -27 53h-87v60l148 31q37 9 85 30l23 -22l-3 -515l64 69q68 76 180 76q128 0 201 -97q63 -87 63 -222zM595 869q0 102 -44 168q-50 78 -146 78
q-55 0 -114 -38q-64 -42 -64 -95v-323q0 -26 70 -49q59 -20 93 -20q106 0 160 91q45 75 45 188z" />
    <glyph glyph-name="c" unicode="c" horiz-adv-x="632" 
d="M606 593l-39 -61q-12 -25 -95 -43q-65 -12 -110 -12q-151 0 -242.5 101.5t-91.5 254.5q0 195 124 288q66 49 128 78q27 11 50 19q45 14 91 14q94 0 182 -56q-22 -89 -22 -203h-61l-5 103q-13 22 -67 41q-47 18 -78 18q-196 0 -196 -236q0 -135 60 -223q69 -100 197 -100
q62 0 150 44z" />
    <glyph glyph-name="d" unicode="d" horiz-adv-x="876" 
d="M839 501l-139 6l-122 -6l9 130l-144 -130q-28 -12 -100 -12q-150 0 -230 107q-68 94 -68 251q0 102 37 179q35 71 98 105l131 72q49 29 104 29q63 0 166 -42v260q0 53 -27 53h-90v60l150 31q37 9 86 30l20 -22l2 -1012q6 -12 39 -17l78 -6v-66zM581 1043q0 34 -80 69
q-72 31 -114 31q-201 0 -201 -264q0 -111 49 -190q58 -94 164 -94q81 0 145 89q37 48 37 121v238z" />
    <glyph glyph-name="e" unicode="e" horiz-adv-x="682" 
d="M648 947l-4 -69q-100 -23 -268 -23h-198q0 -125 62 -198q67 -79 189 -79q68 0 180 70l29 -22l-32 -61q-15 -28 -110 -61q-87 -27 -128 -27q-163 0 -253 97q-87 95 -87 259q0 213 111 298q36 38 98 68q23 9 43 16q45 17 88 17q121 0 200 -79q84 -85 80 -206zM505 929
q0 233 -143 233q-180 0 -180 -229q64 -9 125 -9q33 0 99.5 2.5t98.5 2.5z" />
    <glyph glyph-name="f" unicode="f" horiz-adv-x="474" 
d="M499 1472l-29 -11q-48 44 -94 44q-71 0 -88 -75q-6 -23 -6 -133v-116l188 9l-14 -100h-174l3 -500q7 -11 42 -17l74 -6v-66l-188 6l-194 -6v66l81 6q33 5 39 17l4 82v418l-96 -8v49l96 48v55q0 155 61 224l84 94q62 69 136 69q19 0 75 -16v-133z" />
    <glyph glyph-name="g" unicode="g" horiz-adv-x="798" 
d="M791 1145l-44 -69h-121q10 -33 10 -74q0 -125 -102 -197q-108 -75 -203 -75l-24 4q-64 -42 -64 -73q0 -51 97 -51h233q85 0 134 -58q45 -53 45 -139q0 -133 -104 -227q-117 -105 -297 -105q-120 0 -209 56q-106 66 -106 178q0 87 44 130l108 58q-80 31 -80 92q0 41 25 75
l104 60v12q-49 0 -98 42q-73 60 -73 168q0 75 28 123q30 53 88 93q93 64 213 64q106 0 178 -62l207 9zM499 952q0 86 -36 143q-41 67 -123 67q-129 0 -129 -169q0 -188 151 -188q61 0 100 44q37 42 37 103zM619 360q0 79 -61 108q-40 19 -133 19h-65q-109 0 -159 -54
q-38 -40 -38 -101q0 -87 57 -137q54 -48 142 -48q103 0 177 52q80 61 80 161z" />
    <glyph glyph-name="h" unicode="h" horiz-adv-x="832" 
d="M826 501l-123 6l-125 -6v440q0 178 -154 178q-55 0 -109 -37q-60 -40 -60 -91v-319v-65q6 -27 43 -34l72 -6v-66l-184 6l-186 -6v66l72 6q36 3 43 36q2 5 2 63v778q0 53 -26 53h-91v60q80 15 236 61l19 -22v-503h17l71 82q43 51 127 51q246 0 246 -272l4 -370
q3 -14 41 -17l65 -6v-66z" />
    <glyph glyph-name="i" unicode="i" horiz-adv-x="414" 
d="M293 1466q0 -34 -28.5 -61t-62.5 -27q-38 0 -65 25t-27 63t27 66t65 28q34 0 62.5 -28.5t28.5 -65.5zM399 501l-188 6l-192 -6v66l81 6q27 5 35 17l7 82v382q0 36 -9.5 44t-47.5 8h-66v64q128 14 238 64l23 -14l2 -630q9 -12 42 -17l75 -6v-66z" />
    <glyph glyph-name="j" unicode="j" horiz-adv-x="334" 
d="M246 1469q0 -37 -25 -64t-63 -27q-35 0 -62 28t-27 63q0 36 27 65t62 29q39 0 63.5 -27.5t24.5 -66.5zM237 489q0 -185 -79 -290q-92 -118 -205 -118l-21 82q19 -1 58 -7q51 0 71 55q39 71 39 296v504q0 63 -1 69q-8 26 -52 26h-65v64q111 13 236 64l19 -14v-731z" />
    <glyph glyph-name="k" unicode="k" horiz-adv-x="798" 
d="M797 534l-153 -47l-364 368v-183l2 -82q11 -14 42 -17l69 -6v-66l-182 6l-192 -6v66l81 6q27 5 35 17l7 82v778q0 53 -32 53h-91v60l136 28q56 11 102 33l23 -22v-673l88 78q74 65 113 105l102 106h156v-64q-42 0 -87 -23q-31 -15 -69 -46l-177 -147q23 -30 30 -39
q19 -18 57 -52l179 -188q66 -69 125 -69v-56z" />
    <glyph glyph-name="l" unicode="l" horiz-adv-x="414" 
d="M399 501l-188 6l-192 -6v66l81 6q27 5 35 17l7 82v778q0 53 -32 53h-91v60l136 28q56 11 102 33l23 -22l2 -1012q9 -12 42 -17l75 -6v-66z" />
    <glyph glyph-name="m" unicode="m" horiz-adv-x="1264" 
d="M1254 501l-139 6l-119 -6v440q0 69 -29 118q-34 60 -98 60q-52 0 -106 -38q-57 -40 -57 -90l2 -401q12 -15 37 -17l74 -6v-66l-188 6l-188 -6v66l77 6q28 5 37 17l5 82v269q0 178 -125 178q-53 0 -106 -37q-59 -40 -59 -91v-319q0 -71 4 -82q8 -14 39 -17l70 -6v-66
l-183 6l-186 -6v66l72 6q38 7 46 34q1 7 1 65v369q0 46 -9 55.5t-48 9.5h-59v64q106 11 227 64l26 -11v-114l79 84q48 39 136 39q140 0 199 -133l99 94q41 39 131 39q104 0 164 -74q55 -68 55 -176v-310q0 -76 -3 -66q5 -27 44 -33l78 -6v-66z" />
    <glyph glyph-name="n" unicode="n" horiz-adv-x="832" 
d="M826 501l-123 6l-125 -6v440q0 178 -154 178q-55 0 -109 -37q-60 -40 -60 -91v-319v-65q6 -27 43 -34l72 -6v-66l-184 6l-186 -6v66l72 6q36 3 43 36q2 5 2 63v339q0 69 -10 88q-4 7 -46 7h-61v64q109 12 236 64l19 -11v-124l13 -3l82 88q41 48 120 48q246 0 246 -272
l4 -370q3 -14 41 -17l65 -6v-66z" />
    <glyph glyph-name="o" unicode="o" horiz-adv-x="781" 
d="M745 879q0 -174 -103 -286q-106 -116 -280 -116q-150 0 -241 109q-85 102 -85 255q0 177 100 284t275 107q147 0 241 -105q93 -100 93 -248zM595 814q0 129 -45 224q-58 124 -174 124q-188 0 -188 -260q0 -138 48 -232q60 -122 179 -122q92 0 141 92q39 73 39 174z" />
    <glyph glyph-name="p" unicode="p" horiz-adv-x="859" 
d="M802 913q0 -72 -46 -166q-47 -97 -81 -121l-163 -114q-44 -23 -103 -23q-85 0 -152 26v-265q0 -59 11 -82q4 -12 37 -12l71 -9v-63l-185 8l-188 -8v63l72 9q33 0 35 12q13 23 13 82v791q0 46 -13 55q-6 10 -46 10h-58v64q115 13 231 64l20 -11v-143h15l90 107
q38 45 141 45q131 0 217 -95q82 -91 82 -224zM658 872q0 107 -53 172q-58 71 -162 71q-121 0 -177 -108q-9 -16 -9 -35v-302q65 -80 197 -80q100 0 157 95q47 81 47 187z" />
    <glyph glyph-name="q" unicode="q" horiz-adv-x="801" 
d="M810 84l-184 8l-211 -8v63l97 9q30 2 36 20.5t6 73.5v347l-133 -88q-37 -25 -90 -20q-142 0 -218 97q-68 87 -68 233q0 114 37 187q35 68 100 115l123 85l41 14q33 12 69 12q100 0 199 -48l75 48l36 -23q-34 -88 -34 -213v-746q0 -52 2 -61q8 -33 39 -33l78 -9v-63z
M554 697v393q-58 53 -175 53q-76 0 -127 -53q-66 -68 -66 -193q0 -302 213 -302q38 0 93 33q62 36 62 69z" />
    <glyph glyph-name="r" unicode="r" horiz-adv-x="563" 
d="M544 1213l-16 -201h-44q-16 39 -30 54q-23 21 -59 21q-53 0 -87 -54q-28 -45 -28 -104v-257l2 -82q11 -14 53 -17l86 -6v-66l-210 6l-192 -6v66l81 6q27 5 35 17l7 82v382q0 36 -9.5 44t-47.5 8h-66v64q116 13 236 64l25 -11v-147h13l44 92q43 64 131 64q47 0 76 -19z
" />
    <glyph glyph-name="s" unicode="s" horiz-adv-x="605" 
d="M567 736q0 -126 -104 -197q-89 -62 -222 -62q-98 0 -208 35q14 74 14 230h63v-70q0 -61 60 -94q48 -27 115 -27q158 0 158 133q0 76 -61 85q-70 18 -210 59q-55 17 -92 64q-33 41 -33 110q0 230 277 230q77 0 194 -39l-9 -186h-59v44q0 53 -55 84q-45 27 -102 27
q-133 0 -133 -111q0 -72 138 -108q181 -46 212 -71q57 -44 57 -136z" />
    <glyph glyph-name="t" unicode="t" horiz-adv-x="467" 
d="M468 1184l-18 -102h-182v-385q0 -96 67 -96q40 0 94 33l25 -39l-75 -86q-12 -20 -97 -20q-149 0 -149 170v423l-114 -6v48l120 55v97l-9 127q87 30 130 62l28 -25q-20 -124 -20 -220v-44z" />
    <glyph glyph-name="u" unicode="u" horiz-adv-x="863" 
d="M844 501l-128 6l-133 -6l6 127l-77 -77q-62 -62 -172 -62q-134 0 -177 87q-28 54 -28 183v282q0 46 -9 55.5t-48 9.5h-59v64q106 11 227 64l26 -11v-450q0 -96 25 -131q31 -45 121 -45q62 0 116.5 53t54.5 114v290q0 36 -8.5 44t-46.5 8h-61v64q105 12 235 64l17 -14
v-548q0 -87 21 -94q9 -2 25 -5l73 -6v-66z" />
    <glyph glyph-name="v" unicode="v" horiz-adv-x="804" 
d="M783 1156l-61 -2q-27 -6 -66 -97l-167 -387q-11 -28 -29.5 -86t-30.5 -85h-92l-243 607q-3 8 -9 23q-10 22 -27 25l-58 2v62l178 -5l172 5v-62l-78 -2q-26 -6 -26 -25q0 -20 11 -47l164 -412l78 185l59 161q31 80 31 108q0 29 -31 30l-63 2v62l141 -5l147 5v-62z" />
    <glyph glyph-name="w" unicode="w" horiz-adv-x="1190" 
d="M1165 1156l-50 -2q-24 -1 -78 -127l-99 -233q-22 -50 -50 -146.5t-47 -148.5h-83l-188 494l-65 -146l-143 -348h-80l-143 512q-22 74 -46 114q-17 27 -46 29l-47 2v62l178 -5l178 5v-62l-63 -2q-47 -2 -47 -33q0 -8 6 -28l114 -389l221 528h41l47 -127l155 -410l58 160
l71 211q13 21 13 46q0 40 -48 42l-59 2v62l151 -5l149 5v-62z" />
    <glyph glyph-name="x" unicode="x" horiz-adv-x="735" 
d="M720 501l-94 6l-98 -4q-8 6 -39 54l-149 232l-97 -138l-88 -144h-136v60h34q17 0 35 23l208 257l-163 254q-32 33 -72 39l-33 5l-9 58l178 31q48 -44 91 -110l102 -161l168 255h133v-62h-27q-33 0 -38 -13l-202 -244l204 -298q8 -8 14 -11q18 -15 33 -17l45 -6v-66z" />
    <glyph glyph-name="y" unicode="y" horiz-adv-x="798" 
d="M789 1156l-53 -2q-22 -1 -46 -42q-29 -46 -64 -135l-291 -705q-42 -101 -80 -139q-56 -52 -145 -52q-39 0 -82 25l36 130h36q23 -37 63 -37q83 10 148 194l29 89q-15 50 -78 209l-154 396q-23 60 -63 67l-36 6v58l173 -5l174 5v-62l-60 -2q-41 -2 -41 -33q0 -13 13 -50
l94 -257q12 -32 28 -72q5 -14 34 -72l163 423q8 16 8 28q0 30 -53 33l-43 2v62l139 -5l151 5v-62z" />
    <glyph glyph-name="z" unicode="z" horiz-adv-x="716" 
d="M677 736q-13 -119 -25 -235l-450 6l-180 -6l-6 45l127 160l244 321l83 118h-188q-85 0 -73 1q-50 -3 -57 -34l-13 -107h-64q16 100 16 218q56 0 204 -4q129 -2 204 -1l162 2l-3 -55l-437 -584h243q121 0 125 25l25 130h63z" />
    <glyph glyph-name="braceleft" unicode="{" horiz-adv-x="474" 
d="M415 264v-20q-139 0 -187 55q-46 52 -46 194v252q0 86 -27 123t-108 59q77 27 106 64t29 115v281q0 132 50.5 181.5t182.5 49.5v-19q-108 -29 -108 -188v-280q0 -86 -18 -122q-24 -49 -98 -71v-14q77 -23 101 -80q15 -38 15 -135v-261q0 -155 108 -184z" />
    <glyph glyph-name="bar" unicode="|" horiz-adv-x="868" 
d="M484 507h-99v1111h99v-1111z" />
    <glyph glyph-name="braceright" unicode="}" horiz-adv-x="474" 
d="M429 927q-79 -22 -107.5 -60.5t-28.5 -121.5v-252q0 -145 -43 -195q-48 -54 -189 -54l-3 20q116 29 116 184v261q0 98 14 133q22 59 97 82v12q-73 22 -95 73q-16 34 -16 122v280q0 158 -116 188l3 19q132 0 182 -49.5t50 -181.5v-281q0 -81 28.5 -116.5t107.5 -62.5z" />
    <glyph glyph-name="asciitilde" unicode="~" horiz-adv-x="868" 
d="M802 986q-80 -181 -207 -181q-34 0 -102 25q-35 12 -98 42q-77 36 -121 36q-48 0 -86 -45q-23 -26 -64 -97l-63 75q97 186 215 186q36 0 84 -16q17 -7 88 -38q35 -17 91 -41q28 -14 56 -14q86 0 147 142z" />
    <glyph glyph-name="nonbreakingspace" unicode="&#xa0;" horiz-adv-x="537" 
 />
    <glyph glyph-name="exclamdown" unicode="&#xa1;" horiz-adv-x="333" 
 />
    <glyph glyph-name="cent" unicode="&#xa2;" horiz-adv-x="686" 
 />
    <glyph glyph-name="sterling" unicode="&#xa3;" horiz-adv-x="686" 
 />
    <glyph glyph-name="currency" unicode="&#xa4;" horiz-adv-x="453" 
 />
    <glyph glyph-name="yen" unicode="&#xa5;" horiz-adv-x="686" 
 />
    <glyph glyph-name="brokenbar" unicode="&#xa6;" horiz-adv-x="216" 
 />
    <glyph glyph-name="section" unicode="&#xa7;" horiz-adv-x="453" 
 />
    <glyph glyph-name="dieresis" unicode="&#xa8;" horiz-adv-x="400" 
 />
    <glyph glyph-name="copyright" unicode="&#xa9;" horiz-adv-x="771" 
 />
    <glyph glyph-name="ordfeminine" unicode="&#xaa;" horiz-adv-x="434" 
 />
    <glyph glyph-name="guillemotleft" unicode="&#xab;" horiz-adv-x="583" 
 />
    <glyph glyph-name="logicalnot" unicode="&#xac;" horiz-adv-x="1507" 
 />
    <glyph glyph-name="ch496" unicode="&#xad;" horiz-adv-x="1463" 
 />
    <glyph glyph-name="registered" unicode="&#xae;" horiz-adv-x="806" 
 />
    <glyph glyph-name="ch269" unicode="&#xaf;" horiz-adv-x="388" 
 />
    <glyph glyph-name="degree" unicode="&#xb0;" horiz-adv-x="307" 
 />
    <glyph glyph-name="plusminus" unicode="&#xb1;" horiz-adv-x="686" 
 />
    <glyph glyph-name="twosuperior" unicode="&#xb2;" horiz-adv-x="323" 
 />
    <glyph glyph-name="threesuperior" unicode="&#xb3;" horiz-adv-x="323" 
 />
    <glyph glyph-name="grave" unicode="&#xb4;" horiz-adv-x="498" 
 />
    <glyph glyph-name="ch278" unicode="&#xb5;" horiz-adv-x="453" 
 />
    <glyph glyph-name="paragraph" unicode="&#xb6;" horiz-adv-x="486" 
 />
    <glyph glyph-name="ch497" unicode="&#xb7;" horiz-adv-x="1463" 
 />
    <glyph glyph-name="cedilla" unicode="&#xb8;" horiz-adv-x="346" 
 />
    <glyph glyph-name="onesuperior" unicode="&#xb9;" horiz-adv-x="323" 
 />
    <glyph glyph-name="ordmasculine" unicode="&#xba;" horiz-adv-x="434" 
 />
    <glyph glyph-name="guillemotright" unicode="&#xbb;" horiz-adv-x="583" 
 />
    <glyph glyph-name="onehalf" unicode="&#xbd;" horiz-adv-x="849" 
 />
    <glyph glyph-name="threequarters" unicode="&#xbe;" horiz-adv-x="849" 
 />
    <glyph glyph-name="questiondown" unicode="&#xbf;" horiz-adv-x="612" 
 />
    <glyph glyph-name="Agrave" unicode="&#xc0;" horiz-adv-x="657" 
 />
    <glyph glyph-name="Aacute" unicode="&#xc1;" horiz-adv-x="657" 
 />
    <glyph glyph-name="Acircumflex" unicode="&#xc2;" horiz-adv-x="657" 
 />
    <glyph glyph-name="Atilde" unicode="&#xc3;" horiz-adv-x="657" 
 />
    <glyph glyph-name="Adieresis" unicode="&#xc4;" horiz-adv-x="657" 
 />
    <glyph glyph-name="Aring" unicode="&#xc5;" horiz-adv-x="657" 
 />
    <glyph glyph-name="AE" unicode="&#xc6;" horiz-adv-x="884" 
 />
    <glyph glyph-name="Ccedilla" unicode="&#xc7;" horiz-adv-x="787" 
 />
    <glyph glyph-name="Egrave" unicode="&#xc8;" horiz-adv-x="699" 
 />
    <glyph glyph-name="Eacute" unicode="&#xc9;" horiz-adv-x="1957" 
d="M1767 0h-252v240h252v-240zM1105 0h-252v240h252v-240zM442 0h-252v240h252v-240z" />
    <glyph glyph-name="Ecircumflex" unicode="&#xca;" horiz-adv-x="699" 
 />
    <glyph glyph-name="Edieresis" unicode="&#xcb;" horiz-adv-x="699" 
 />
    <glyph glyph-name="Igrave" unicode="&#xcc;" horiz-adv-x="252" 
 />
    <glyph glyph-name="Iacute" unicode="&#xcd;" horiz-adv-x="252" 
 />
    <glyph glyph-name="Icircumflex" unicode="&#xce;" horiz-adv-x="252" 
 />
    <glyph glyph-name="Idieresis" unicode="&#xcf;" horiz-adv-x="252" 
 />
    <glyph glyph-name="Eth" unicode="&#xd0;" horiz-adv-x="1201" 
d="M1206 778h-1209v173h1209v-173z" />
    <glyph glyph-name="Ntilde" unicode="&#xd1;" horiz-adv-x="1962" 
d="M1967 775h-1970v173h1970v-173z" />
    <glyph glyph-name="Ograve" unicode="&#xd2;" horiz-adv-x="751" 
 />
    <glyph glyph-name="Oacute" unicode="&#xd3;" horiz-adv-x="751" 
 />
    <glyph glyph-name="Ocircumflex" unicode="&#xd4;" horiz-adv-x="691" 
d="M470 1291h-282v212q0 27 24 63l194 290l87 -50l-190 -291h167v-224z" />
    <glyph glyph-name="Otilde" unicode="&#xd5;" horiz-adv-x="688" 
d="M470 1411q0 -10 -8 -25l-190 -330l-84 50l162 280h-160v224h280v-199z" />
    <glyph glyph-name="Odieresis" unicode="&#xd6;" horiz-adv-x="1384" 
d="M806 855h-226v216h226v-216zM1123 530h-861v152h861v-152zM806 141h-226v215h226v-215z" />
    <glyph glyph-name="Oslash" unicode="&#xd8;" horiz-adv-x="751" 
 />
    <glyph glyph-name="Ugrave" unicode="&#xd9;" horiz-adv-x="712" 
 />
    <glyph glyph-name="Uacute" unicode="&#xda;" horiz-adv-x="712" 
 />
    <glyph glyph-name="Ucircumflex" unicode="&#xdb;" horiz-adv-x="712" 
 />
    <glyph glyph-name="Udieresis" unicode="&#xdc;" horiz-adv-x="712" 
 />
    <glyph glyph-name="Yacute" unicode="&#xdd;" horiz-adv-x="567" 
 />
    <glyph glyph-name="Thorn" unicode="&#xde;" horiz-adv-x="622" 
 />
    <glyph glyph-name="germandbls" unicode="&#xdf;" horiz-adv-x="537" 
 />
    <glyph glyph-name="agrave" unicode="&#xe0;" horiz-adv-x="397" 
 />
    <glyph glyph-name="aacute" unicode="&#xe1;" horiz-adv-x="397" 
 />
    <glyph glyph-name="acircumflex" unicode="&#xe2;" horiz-adv-x="397" 
 />
    <glyph glyph-name="atilde" unicode="&#xe3;" horiz-adv-x="397" 
 />
    <glyph glyph-name="adieresis" unicode="&#xe4;" horiz-adv-x="397" 
 />
    <glyph glyph-name="aring" unicode="&#xe5;" horiz-adv-x="397" 
 />
    <glyph glyph-name="ae" unicode="&#xe6;" horiz-adv-x="806" 
 />
    <glyph glyph-name="ccedilla" unicode="&#xe7;" horiz-adv-x="550" 
 />
    <glyph glyph-name="egrave" unicode="&#xe8;" horiz-adv-x="524" 
 />
    <glyph glyph-name="eacute" unicode="&#xe9;" horiz-adv-x="524" 
 />
    <glyph glyph-name="ecircumflex" unicode="&#xea;" horiz-adv-x="524" 
 />
    <glyph glyph-name="edieresis" unicode="&#xeb;" horiz-adv-x="524" 
 />
    <glyph glyph-name="igrave" unicode="&#xec;" horiz-adv-x="252" 
 />
    <glyph glyph-name="iacute" unicode="&#xed;" horiz-adv-x="252" 
 />
    <glyph glyph-name="icircumflex" unicode="&#xee;" horiz-adv-x="252" 
 />
    <glyph glyph-name="idieresis" unicode="&#xef;" horiz-adv-x="252" 
 />
    <glyph glyph-name="eth" unicode="&#xf0;" horiz-adv-x="521" 
 />
    <glyph glyph-name="ntilde" unicode="&#xf1;" horiz-adv-x="414" 
 />
    <glyph glyph-name="ograve" unicode="&#xf2;" horiz-adv-x="395" 
 />
    <glyph glyph-name="oacute" unicode="&#xf3;" horiz-adv-x="395" 
 />
    <glyph glyph-name="ocircumflex" unicode="&#xf4;" horiz-adv-x="395" 
 />
    <glyph glyph-name="otilde" unicode="&#xf5;" horiz-adv-x="395" 
 />
    <glyph glyph-name="odieresis" unicode="&#xf6;" horiz-adv-x="395" 
 />
    <glyph glyph-name="divide" unicode="&#xf7;" horiz-adv-x="686" 
 />
    <glyph glyph-name="oslash" unicode="&#xf8;" horiz-adv-x="395" 
 />
    <glyph glyph-name="ugrave" unicode="&#xf9;" horiz-adv-x="369" 
 />
    <glyph glyph-name="uacute" unicode="&#xfa;" horiz-adv-x="369" 
 />
    <glyph glyph-name="ucircumflex" unicode="&#xfb;" horiz-adv-x="369" 
 />
    <glyph glyph-name="udieresis" unicode="&#xfc;" horiz-adv-x="369" 
 />
    <glyph glyph-name="yacute" unicode="&#xfd;" horiz-adv-x="424" 
 />
    <glyph glyph-name="thorn" unicode="&#xfe;" horiz-adv-x="375" 
 />
    <glyph glyph-name="ydieresis" unicode="&#xff;" horiz-adv-x="424" 
 />
    <glyph glyph-name="dotlessi" unicode="&#x131;" horiz-adv-x="252" 
 />
    <glyph glyph-name="Lslash" unicode="&#x141;" horiz-adv-x="615" 
 />
    <glyph glyph-name="lslash" unicode="&#x142;" horiz-adv-x="229" 
 />
    <glyph glyph-name="OE" unicode="&#x152;" horiz-adv-x="1030" 
 />
    <glyph glyph-name="oe" unicode="&#x153;" horiz-adv-x="816" 
 />
    <glyph glyph-name="Scaron" unicode="&#x160;" horiz-adv-x="670" 
 />
    <glyph glyph-name="scaron" unicode="&#x161;" horiz-adv-x="369" 
 />
    <glyph glyph-name="Ydieresis" unicode="&#x178;" horiz-adv-x="567" 
 />
    <glyph glyph-name="Zcaron" unicode="&#x17d;" horiz-adv-x="745" 
 />
    <glyph glyph-name="zcaron" unicode="&#x17e;" horiz-adv-x="498" 
 />
    <glyph glyph-name="florin" unicode="&#x192;" horiz-adv-x="622" 
 />
    <glyph glyph-name="circumflex" unicode="&#x2c6;" horiz-adv-x="388" 
 />
    <glyph glyph-name="caron" unicode="&#x2c7;" horiz-adv-x="388" 
 />
    <glyph glyph-name="macron" unicode="&#x2c9;" horiz-adv-x="388" 
 />
    <glyph glyph-name="breve" unicode="&#x2d8;" horiz-adv-x="388" 
 />
    <glyph glyph-name="dotaccent" unicode="&#x2d9;" horiz-adv-x="197" 
 />
    <glyph glyph-name="ring" unicode="&#x2da;" horiz-adv-x="388" 
 />
    <glyph glyph-name="ogonek" unicode="&#x2db;" horiz-adv-x="291" 
 />
    <glyph glyph-name="tilde" unicode="&#x2dc;" horiz-adv-x="521" 
 />
    <glyph glyph-name="hungarumlaut" unicode="&#x2dd;" horiz-adv-x="505" 
 />
    <glyph glyph-name="ch493" unicode="&#x394;" horiz-adv-x="1463" 
 />
    <glyph glyph-name="ch491" unicode="&#x3a9;" horiz-adv-x="1463" 
 />
    <glyph glyph-name="mu" unicode="&#x3bc;" horiz-adv-x="453" 
 />
    <glyph glyph-name="pi" unicode="&#x3c0;" horiz-adv-x="861" 
 />
    <glyph glyph-name="ch280" unicode="&#xf00;" horiz-adv-x="1432" 
d="M1295 1466q0 -44 -15.5 -130.5t-15.5 -129.5v-767h-29l-442 664q-9 17 -42 72q-45 74 -139 122q-7 4 -25 11l-79 -130q28 -10 97 -35q137 -58 137 -140q0 -106 -130.5 -230t-236.5 -124q-149 0 -229 140q-66 116 -66 278v133q6 25 6 45q0 63 -9 113q-23 69 -32 108v117
h198v-99l-40 -129q-23 -74 -32 -133q-9 -51 -9 -142q0 -128 57 -187q36 -39 156 -86q56 -23 107 -23q140 0 136 115q-2 36 -31 55q-47 19 -76 39q-40 25 -168 58l-58 16l259 351q-57 -7 -75 80q-5 24 -6 85h444q0 -77 -16 -105q-31 -53 -90 -53q9 -15 109 -173
q119 -193 146 -242l136 -257v453q0 51 -52 143q-51 86 -44 129v105h199v-117zM1679 2254l-202 -205q-73 -74 -331 -117q-227 -37 -290 -172q-14 -28 -14 -64q0 -41 18 -87q0 -9 9 -19h-83l-113 60q-63 43 -196 73q-39 3 -111 9q-92 0 -123 -7q-42 -13 -154 -13h-47
q14 68 35 107q56 110 156 110q74 0 138 -20q48 -14 156 -80l250 -150q-3 28 -3 40q0 38 12 77l39 113q70 145 161 193q44 23 172 39q26 3 80 0q49 -3 56 -3q107 0 199 47q28 13 69 42q13 8 48 31zM853 2088q0 -122 -89 -189q-68 -50 -145 -50q-83 0 -170 78q-79 68 -79 136
q0 14 5 28q43 183 266 183q212 0 212 -186zM743 2062q0 56 -60 98q-24 16 -64 35q-26 0 -52 -16q-43 -30 -43 -71q0 -61 37 -119q41 -67 99 -67q83 0 83 140z" />
    <glyph glyph-name="ch281" unicode="&#xf01;" horiz-adv-x="1341" 
d="M1234 439l-443 664q-9 17 -43 72q-43 74 -138 122q-7 4 -24 11l-81 -130q30 -10 98 -35q136 -58 136 -140q0 -106 -130 -230t-236 -124q-148 0 -229 140q-66 116 -66 278v133q7 25 7 45q0 63 -10 113q-23 69 -33 108v117h200v-99l-41 -129q-22 -74 -33 -133
q-7 -51 -7 -142q0 -128 56 -187q37 -39 156 -86q57 -23 107 -23q141 0 136 115q-2 36 -30 55q-47 19 -77 39q-40 25 -169 58l-56 16l259 351q-57 -7 -76 80q-4 24 -6 85h443q0 -77 -16 -105q-30 -53 -88 -53q8 -15 108 -173q120 -193 145 -242l137 -257z" />
    <glyph glyph-name="ch282" unicode="&#xf02;" horiz-adv-x="1798" 
d="M1092 448h-40q-86 188 -173 265q-110 94 -296 94h-152q-6 94 42 149q34 37 148 54q143 39 143 222q0 130 -81 170q-53 25 -201 25q-193 0 -239 -16q-103 -37 -103 -186q0 -95 98 -206q37 -52 37 -172v-40q-25 7 -39 10q-154 49 -189 133q-18 42 -18 139q0 131 91 301
q102 193 223 193h551l-23 -123l20 -79q19 -86 19 -116q0 -103 -64 -176q-23 -25 -118 -96q81 0 134 -57q79 -84 136 -212q43 -94 94 -276zM871 2094q-82 -275 -295 -275q-118 0 -170 40q-75 56 -133 235h20q60 -77 113 -112q77 -53 173 -53q181 0 266 165h26zM522 2250
q4 33 42 54t38 30q0 12 -7 26q-19 31 -19 107h26v-44q0 -23 7 -33q39 -22 43 -56q0 -25 -31.5 -47.5t-31.5 -40.5q2 -21 67.5 -52.5t65.5 -92.5q0 -50 -49 -80q-42 -27 -94 -27q-146 0 -146 100q0 72 76 72q9 -2 23 -16l9 -9q-29 -16 -29 -34q0 -67 64 -67q57 0 59 57
q2 35 -53 67q-65 37 -60 86zM1127 182q0 -62 -67 -205q-80 -171 -152 -171h-126q-201 0 -326 221q-14 23 -129 269q-53 110 -172 182q-40 23 -110 50l36 27q70 -24 106 -39q105 -49 199 -156q55 -67 165 -197q42 -46 158 -169q98 -76 182 -76q58 0 104 45t46 103
q0 132 -117 132q-69 0 -146 -75l26 196q38 19 64 26q74 31 117 31q142 0 142 -194zM1614 1308q0 -90 -93.5 -174.5t-182.5 -84.5q-24 17 -81 66q-78 77 -78 177q0 63 72 155.5t133 92.5q75 0 152.5 -79t77.5 -153zM1630 769q0 -92 -93 -175.5t-186 -83.5q-60 46 -80 67
q-79 85 -79 179q0 88 92 175q78 72 120 72q47 0 126 -63q100 -80 100 -171zM1509 1255q0 65 -51.5 122t-116.5 57q-67 0 -67 -63q0 -64 42 -132q48 -74 107 -74q86 0 86 90zM1523 720q0 65 -51.5 122t-117.5 57q-67 0 -67 -62q0 -61 45 -132q50 -78 108 -78q83 0 83 93z" />
    <glyph glyph-name="ch283" unicode="&#xf03;" horiz-adv-x="1927" 
d="M1092 448h-40q-86 188 -173 265q-110 94 -296 94h-152q-6 94 42 149q34 37 148 54q143 39 143 222q0 130 -81 170q-53 25 -201 25q-193 0 -239 -16q-103 -37 -103 -186q0 -95 98 -206q37 -52 37 -172v-40q-25 7 -39 10q-154 49 -189 133q-18 42 -18 139q0 131 91 301
q102 193 223 193h551l-23 -123l20 -79q19 -86 19 -116q0 -103 -64 -176q-23 -25 -118 -96q81 0 134 -57q79 -84 136 -212q43 -94 94 -276zM871 2094q-82 -275 -295 -275q-118 0 -170 40q-75 56 -133 235h20q60 -77 113 -112q77 -53 173 -53q181 0 266 165h26zM522 2250
q4 33 42 54t38 30q0 12 -7 26q-19 31 -19 107h26v-44q0 -23 7 -33q39 -22 43 -56q0 -25 -31.5 -47.5t-31.5 -40.5q2 -21 67.5 -52.5t65.5 -92.5q0 -50 -49 -80q-42 -27 -94 -27q-146 0 -146 100q0 72 76 72q9 -2 23 -16l9 -9q-29 -16 -29 -34q0 -67 64 -67q57 0 59 57
q2 35 -53 67q-65 37 -60 86zM1127 182q0 -62 -67 -205q-80 -171 -152 -171h-126q-201 0 -326 221q-14 23 -129 269q-53 110 -172 182q-40 23 -110 50l36 27q70 -24 106 -39q105 -49 199 -156q55 -67 165 -197q42 -46 158 -169q98 -76 182 -76q58 0 104 45t46 103
q0 132 -117 132q-69 0 -146 -75l26 196q38 19 64 26q74 31 117 31q142 0 142 -194zM1730 1365q0 -89 -93 -174t-183 -85q-58 39 -80 62q-79 82 -79 181q0 95 89 178q76 69 117 69q53 0 133 -66q96 -80 96 -165zM1860 1178q-43 -95 -150 -196q-121 -116 -209 -116
q-84 0 -222 107q-133 103 -171 186l17 12q131 -168 376 -168q213 0 342 194zM1759 532q0 -90 -106 -184.5t-195 -94.5q-52 34 -84 66q-81 86 -81 175q0 65 87.5 167t153.5 102q47 0 126 -63q99 -80 99 -168zM1626 1311q0 66 -52 123t-116 57q-70 0 -70 -64t42 -132
q50 -73 110 -73q86 0 86 89zM1644 474q0 93 -69 146q-54 41 -101 41q-80 0 -80 -103q0 -63 51 -132q55 -72 114 -72q36 0 62 44q23 38 23 76z" />
    <glyph glyph-name="ch284" unicode="&#xf04;" horiz-adv-x="2857" 
d="M2729 1148q-87 -173 -140 -249q-172 -247 -349 -247h-165q-226 0 -409 101q-103 57 -383 292q-194 160 -437 290q-315 168 -541 169l-7 36h64q165 0 464 -120q265 -108 435 -220q561 -374 897 -374h139q120 0 202 94q77 91 77 212q0 33 -10 70q-50 192 -203 192h-102
q-206 0 -206 -106q0 -57 101 -81l148 -20q75 -25 75 -127q0 -54 -28 -120q-62 70 -189 70q-63 19 -116 76q-78 83 -78 192q0 46 8 71q55 234 345 234h39q144 0 243 -79q126 -100 126 -302v-54zM2683 737l-142 -179q-75 -75 -133 -116q-173 -120 -333 -120q-178 0 -491 159
q-77 89 -144 192.5t194 -56.5q69 -42 171 -76q143 -47 253 -47h156q118 0 302 120q52 35 167 123z" />
    <glyph glyph-name="ch285" unicode="&#xf05;" horiz-adv-x="899" 
d="M841 1145q-99 -160 -158 -233q-192 -235 -339 -235q-140 0 -415 137q-95 46 -249 136q18 25 30 37q45 39 106 39q69 0 252 -102q165 -91 250 -91q37 0 80 14q180 64 215 96q73 68 73 248q0 87 -64 146.5t-152 59.5h-91q-168 0 -200 -109q0 -59 102 -79q26 -6 149 -22
q72 -25 72 -123q0 -58 -29 -124q-57 70 -185 70q-66 19 -121 76q-76 77 -76 190q0 29 10 73q54 234 275 234h94q139 0 242 -82q129 -105 129 -301v-55zM858 920q-35 -98 -112 -223q-175 -282 -422 -282q-119 0 -381 104q-90 35 -243 101q23 37 36 51q38 37 78 37q10 0 19 -1
q330 -159 527 -159q188 0 362 205q57 69 136 210v-43z" />
    <glyph glyph-name="ch286" unicode="&#xf06;" horiz-adv-x="2743" 
d="M2615 2730q-87 -173 -139 -250q-172 -248 -350 -248h-165q-226 0 -408 102q-103 57 -384 292q-194 160 -437 290q-315 168 -541 168l-6 38h64q165 0 464 -123q265 -107 434 -220q562 -372 898 -372h138q121 0 202 94q78 89 78 212q0 33 -10 70q-51 191 -203 191h-102
q-206 0 -206 -105q0 -58 100 -81l148 -19q76 -27 76 -129q0 -54 -29 -120q-62 69 -189 70q-63 20 -116 76q-78 84 -78 194q0 44 9 68q54 236 344 236h39q145 0 243 -80q126 -101 126 -301v-53zM2570 2318l-143 -180q-74 -75 -132 -115q-174 -120 -334 -120q-178 0 -490 159
q-130 64 -313 225q-99 86 -429 379l3 54q84 -59 175 -121q353 -243 614 -401q69 -43 171 -77q143 -46 253 -46h156q118 0 301 120q53 34 168 123zM2109 1640l-44 -181v-1637h-56v642q0 272 -34 552q-56 455 -176 456l44 168h266z" />
    <glyph glyph-name="ch287" unicode="&#xf07;" horiz-adv-x="0" 
 />
    <glyph glyph-name="ch288" unicode="&#xf08;" horiz-adv-x="1250" 
d="M1108 1583q-47 -357 -224 -475q-106 -70 -323 -70h-186q68 34 140 114q87 100 87 180q0 152 -87 152q-19 0 -43 -6q-175 -48 -171 -202q0 -11 3 -38q1 -22 1 -36q0 -113 -165 -113q53 180 93 257q131 253 315 253q100 0 140 -36.5t40 -135.5q0 -47 -47 -119
q-58 -88 -63 -111q-4 -29 53 -49l29 -9q16 -13 45 -13q84 0 142 85q53 78 53 167q-4 24 -4 36v46q0 69 -10 123h182zM1103 1139q0 -127 -50 -173q-37 -37 -172 -65q-139 -30 -213 -110q-25 -28 -47 -80q-90 57 -133 80q-151 79 -255 79q-133 0 -160 -13l53 139h124
q81 0 133 -40q174 -135 219 -162q26 27 118 123q65 70 113 93zM1128 899q0 -149 -76 -175q-54 -8 -158 -27q-45 -9 -71 -23q-77 -40 -110 -110v-799h-60v232q0 251 -25 379q-15 69 -61 126q-90 112 -308 112h-175l56 149q175 0 278 -35q82 -29 153 -101q26 -28 50 -63
q19 23 67 78q70 78 174 149q55 35 161 75q37 14 105 33z" />
    <glyph glyph-name="ch289" unicode="&#xf09;" horiz-adv-x="0" 
 />
    <glyph glyph-name="ch290" unicode="&#xf0a;" horiz-adv-x="0" 
 />
    <glyph glyph-name="ch291" unicode="&#xf0b;" horiz-adv-x="358" 
d="M332 1527q0 -86 -53 -181q-6 -19 -29 -42h-51q-8 44 -28 82q-11 13 -58 60q-43 45 -43 58v79h262v-56z" />
    <glyph glyph-name="ch292" unicode="&#xf0c;" horiz-adv-x="358" 
d="M332 1527q0 -86 -53 -181q-6 -19 -29 -42h-51q-8 44 -28 82q-11 13 -58 60q-43 45 -43 58v79h262v-56z" />
    <glyph glyph-name="ch293" unicode="&#xf0d;" horiz-adv-x="579" 
d="M399 1583l-44 -181v-1637h-57v643q0 272 -33 551q-56 455 -176 455l44 169h266z" />
    <glyph glyph-name="ch294" unicode="&#xf0e;" horiz-adv-x="1146" 
d="M962 1583l-45 -181v-1637h-56v643q0 272 -35 551q-55 455 -174 455l44 169h266zM399 1583l-44 -181v-1637h-57v643q0 272 -33 551q-56 455 -176 455l44 169h266z" />
    <glyph glyph-name="ch295" unicode="&#xf0f;" horiz-adv-x="884" 
d="M522 1213q-9 -28 -40 -70q-9 -12 -38 -47h-33q-17 23 -28 40q-33 49 -44 89v79h183v-91zM668 954q-31 -42 -97 -61q-23 -7 -67 -14v-1114h-48v424q0 400 -117 694h-34q-80 10 -146 83l81 98q69 -68 178 -68q85 0 175 46q12 7 35 25z" />
    <glyph glyph-name="ch296" unicode="&#xf10;" horiz-adv-x="884" 
d="M531 1567q0 -17 -51 -85q-7 -14 -23 -32h-36q-11 11 -30 38q-31 41 -41 91l-3 77h184v-89zM522 1213q-9 -28 -40 -70q-9 -12 -38 -47h-33q-17 23 -28 40q-33 49 -44 89v79h183v-91zM668 954q-31 -42 -97 -61q-23 -7 -67 -14v-1114h-48v424q0 400 -117 694h-34
q-80 10 -146 83l81 98q69 -68 178 -68q85 0 175 46q12 7 35 25z" />
    <glyph glyph-name="ch297" unicode="&#xf11;" horiz-adv-x="884" 
d="M697 1495q-4 -30 -39 -74q-9 -11 -37 -43h-34q-9 11 -29 36q-28 39 -40 93l-3 76h182v-88zM343 1495q0 -19 -51 -87q-7 -12 -23 -30h-36q-11 11 -30 36q-31 42 -41 93l-3 76h184v-88zM525 1213q-8 -28 -40 -70q-8 -12 -38 -47h-32q-17 23 -29 40q-34 49 -43 89v79h182
v-91zM671 954q-30 -42 -97 -61q-23 -7 -66 -14v-1114h-48v424q0 400 -117 694h-35q-80 10 -146 83l81 98q69 -68 179 -68q85 0 173 46q14 7 36 25z" />
    <glyph glyph-name="ch298" unicode="&#xf12;" horiz-adv-x="0" 
 />
    <glyph glyph-name="ch299" unicode="&#xf13;" horiz-adv-x="0" 
 />
    <glyph glyph-name="ch300" unicode="&#xf14;" horiz-adv-x="1004" 
d="M755 1365q0 -89 -92.5 -174t-182.5 -85q-57 39 -79 62q-80 82 -80 181q0 95 89 178q75 69 117 69q52 0 133 -66q95 -80 95 -165zM885 1178q-43 -95 -149 -196q-122 -116 -209 -116q-84 0 -222 107q-132 103 -170 186l16 12q131 -168 376 -168q212 0 342 194zM784 532
q0 -90 -105 -184.5t-196 -94.5q-52 34 -82 66q-83 86 -83 175q0 65 88.5 167t152.5 102q47 0 127 -63q98 -80 98 -168zM652 1311q0 66 -52 123t-117 57q-69 0 -69 -64t43 -132q47 -73 109 -73q86 0 86 89zM670 474q0 93 -71 146q-52 41 -99 41q-79 0 -79 -103q0 -63 50 -132
q54 -72 115 -72q35 0 62 44q22 38 22 76z" />
    <glyph glyph-name="ch301" unicode="&#xf15;" horiz-adv-x="0" 
 />
    <glyph glyph-name="ch302" unicode="&#xf16;" horiz-adv-x="0" 
 />
    <glyph glyph-name="ch303" unicode="&#xf17;" horiz-adv-x="0" 
 />
    <glyph glyph-name="ch304" unicode="&#xf18;" horiz-adv-x="0" 
 />
    <glyph glyph-name="ch305" unicode="&#xf19;" horiz-adv-x="0" 
 />
    <glyph glyph-name="ch306" unicode="&#xf1a;" horiz-adv-x="0" 
 />
    <glyph glyph-name="ch307" unicode="&#xf1b;" horiz-adv-x="0" 
 />
    <glyph glyph-name="ch308" unicode="&#xf1c;" horiz-adv-x="0" 
 />
    <glyph glyph-name="ch309" unicode="&#xf1d;" horiz-adv-x="0" 
 />
    <glyph glyph-name="ch310" unicode="&#xf1e;" horiz-adv-x="0" 
 />
    <glyph glyph-name="ch311" unicode="&#xf1f;" horiz-adv-x="0" 
 />
    <glyph glyph-name="ch312" unicode="&#xf20;" horiz-adv-x="1010" 
d="M821 1122q-14 -87 -54 -133q-29 -35 -114 -90q-173 -114 -219 -105q-65 11 -149 85q-126 112 -126 243q0 49 21 119q38 129 125 257q16 23 54 65q52 7 106 7q96 0 142 -16q59 -20 115 -86q104 -122 104 -281q0 -42 -5 -65zM690 1168q10 84 -37 190q-58 132 -177 159
q-32 -37 -58 -76q-120 -181 -120 -322q0 -77 53 -151q57 -79 131 -79q12 -6 40 -6q135 0 168 285z" />
    <glyph glyph-name="ch313" unicode="&#xf21;" horiz-adv-x="842" 
d="M645 1108q0 -144 -26 -231q-40 -137 -156 -254q-76 -55 -113 -79q-123 -82 -175 -96l49 124q45 9 130 87q80 73 109 123q57 102 57 393v44q0 -28 4 59q3 95 -19 175l-152 -35q-62 -55 -62 -173q0 -24 4.5 -69t4.5 -68q0 -47 -48 -126l-129 -16q56 20 56 170v238
q45 47 95 76l180 73l80 44h111v-459z" />
    <glyph glyph-name="ch314" unicode="&#xf22;" horiz-adv-x="1023" 
d="M908 458h-124v340q0 362 -104 385q-23 4 -54 4q-173 0 -306 -133q-40 -38 -52 -44l-38 86q11 11 38 40q37 38 95 80q27 18 139 53q53 16 77 28q73 41 73 121q0 73 -82 73q-97 0 -176 -45l-219 -119q-14 -4 -31 -4q-34 0 -69 23q-7 2 -20 16l352 192q54 29 150 29
q182 0 207 -59q11 -26 11 -60q0 -18 -10 -46l-62 -101q35 -12 56 -22q105 -55 133 -258q16 -120 16 -246v-333z" />
    <glyph glyph-name="ch315" unicode="&#xf23;" horiz-adv-x="1103" 
d="M982 484h-122v349q0 241 -113 329l-37 -30q-52 -41 -76 -63q-39 -43 -93 -135l-146 2q29 41 100 137q110 144 205 196q77 64 77 99q-10 22 -39 22q-45 0 -117 -44q-31 -20 -93 -74q-65 -58 -75 -97l-101 31q67 127 147 172q73 54 68 113q-19 20 -59 20q-61 0 -139 -36
q-25 -11 -78 -103q-56 -95 -69 -103q-21 -15 -73 3q-16 4 -49 20q46 68 80 110q77 96 141 128q57 29 181 42q78 7 172 7q14 -12 16 -21q10 -22 10 -43q0 -11 -3 -24q-5 -35 -32 -64q73 45 142 45q37 0 80 -22q7 -29 7 -45q0 -35 -10 -50l-58 -90q57 -57 97 -143
q59 -132 59 -282v-356z" />
    <glyph glyph-name="ch316" unicode="&#xf24;" horiz-adv-x="1010" 
d="M903 642l-50 -87q-34 11 -63 23q-155 64 -359 216q-125 122 -212 338l-73 182l200 143q25 18 176 94l58 28l18 -49q-3 -9 -3 -39q0 -202 166 -332q31 -25 88 -56l-19 -104q-92 33 -126 52q-137 76 -189 194q-27 55 -50 152q-3 15 -9 44l-155 -99l68 -174
q79 -210 214 -331q62 -57 181 -130q47 -31 114 -55q13 -6 25 -10z" />
    <glyph glyph-name="ch317" unicode="&#xf25;" horiz-adv-x="1010" 
d="M888 519h-142l-94 92q-147 181 -147 323v174l-244 -177q-5 -4 -9 -4q-31 0 -77 101q-50 107 -50 153q0 230 56 317l140 36q-22 -65 -30 -100q-35 -125 -33 -177q6 -190 82 -190q42 0 93 48q17 16 47 50q44 91 44 170q0 90 46 176q11 29 49 72h136q-25 -22 -36 -43
q-86 -141 -84 -425q1 -116 10 -184q25 -201 110 -282z" />
    <glyph glyph-name="ch318" unicode="&#xf26;" horiz-adv-x="1010" 
d="M845 1191q9 -123 -61 -198l-146 -156q-125 0 -241 60q-123 65 -183 170q-79 138 -79 354v305h117v-254q0 -230 115 -389q97 -136 239 -136q68 0 113 52q16 20 29 58q-2 23 -12 32q-31 31 -160 70l-136 41l279 275l46 -48l-152 -149z" />
    <glyph glyph-name="ch319" unicode="&#xf27;" horiz-adv-x="1010" 
d="M836 1579q0 -347 -23 -460q-48 -236 -171 -236q-22 0 -62 18q-52 23 -64 26q-44 9 -76 9q-60 0 -155 -25q-26 -8 -90 -54q-20 -17 -60 -50v92l114 117q44 46 82 96q19 24 67 107q15 27 16 127q-17 -5 -27 -7q-64 -23 -79 -28q-39 -19 -49 -42q-4 -13 -4 -63h-113
q0 116 123 188q44 26 208 50q14 1 81 9q0 -177 -30 -237q-41 -68 -107 -147q-25 -29 -48 -50q64 10 98 10q33 0 80.5 -18t62.5 -18q49 0 80 57q24 47 25 102l4 596h117v-169z" />
    <glyph glyph-name="ch320" unicode="&#xf28;" horiz-adv-x="1010" 
d="M819 458h-129v146q0 464 -308 535l-250 58q80 49 113 72q126 87 188 145q17 18 63 64q74 70 74 105l106 -4q-39 -105 -145 -185l-168 -125l164 -50q292 -90 292 -615v-146z" />
    <glyph glyph-name="ch321" unicode="&#xf29;" horiz-adv-x="1010" 
d="M929 1583l-49 -92l-38 -45l-152 -307q-19 -39 -19 -63q0 -34 33 -50q9 -4 34 -10l-34 -66q-153 18 -153 133q0 29 47 126q13 25 46 92l103 203l-99 -13q-23 0 -117.5 -108.5t-180.5 -322.5q-49 -124 -76 -284q-8 -48 -8 -79q0 -147 133 -235h-101q-108 97 -120 119
q-38 61 -38 136q0 72 34 198q6 21 69 211q45 133 152 268q96 119 169 160z" />
    <glyph glyph-name="ch322" unicode="&#xf2a;" horiz-adv-x="0" 
 />
    <glyph glyph-name="ch323" unicode="&#xf2b;" horiz-adv-x="0" 
 />
    <glyph glyph-name="ch324" unicode="&#xf2c;" horiz-adv-x="0" 
 />
    <glyph glyph-name="ch325" unicode="&#xf2d;" horiz-adv-x="0" 
 />
    <glyph glyph-name="ch326" unicode="&#xf2e;" horiz-adv-x="0" 
 />
    <glyph glyph-name="ch327" unicode="&#xf2f;" horiz-adv-x="0" 
 />
    <glyph glyph-name="ch328" unicode="&#xf30;" horiz-adv-x="0" 
 />
    <glyph glyph-name="ch329" unicode="&#xf31;" horiz-adv-x="0" 
 />
    <glyph glyph-name="ch330" unicode="&#xf32;" horiz-adv-x="0" 
 />
    <glyph glyph-name="ch331" unicode="&#xf33;" horiz-adv-x="0" 
 />
    <glyph glyph-name="ch332" unicode="&#xf34;" horiz-adv-x="0" 
 />
    <glyph glyph-name="ch333" unicode="&#xf35;" horiz-adv-x="66" 
d="M-142 -889l-9 -68q0 -43 -70.5 -102t-117.5 -59q-91 9 -156 67q-70 65 -65 155l3 63q12 45 88 95.5t124 50.5q203 -19 203 -202zM-43 -1118l-7 -14l-6 -19q-166 -224 -308 -224q-157 0 -297 190q-32 45 -32 83q0 34 23 34q35 -11 63 -32q156 -113 300 -113q74 0 124 32
l73 63l21 9l23 7l16 -7zM-243 -926q0 89 -131 131l-30 2q-32 0 -48 -43v-39q0 -89 133 -126l32 -4q28 0 39 48z" />
    <glyph glyph-name="ch334" unicode="&#xf36;" horiz-adv-x="0" 
 />
    <glyph glyph-name="ch335" unicode="&#xf37;" horiz-adv-x="9" 
d="M-235 -789q0 -149 -126 -212q-73 -38 -146 -38q-46 0 -116 57q-99 79 -99 189q0 87 86.5 160.5t174.5 73.5q83 0 160 -68q66 -58 66 -162zM-358 -830q0 116 -72 168q-48 22 -86 22q-72 0 -75 -123q0 -49 41 -122q44 -78 92 -78q100 0 100 133z" />
    <glyph glyph-name="ch336" unicode="&#xf38;" horiz-adv-x="1280" 
d="M1151 1441q0 -157 -137 -329q-174 -223 -451 -223h-263q47 45 167 160q144 138 144 238q0 73 -43.5 119.5t-117.5 46.5q-146 0 -146 -118v-38q0 -208 -172 -208q-2 4 -2 14q0 6 2 23q0 114 123 279q137 182 292 174q88 -3 152 -62q66 -61 66 -149q0 -91 -116 -216
q-46 -48 -115 -107h225q238 0 238 294v276h154v-174z" />
    <glyph glyph-name="ch337" unicode="&#xf39;" horiz-adv-x="40" 
d="M-176 1475l22 142l52 93l36 -14l57 -23q54 0 73 20q23 16 62 61l-30 -155l-29 -52q-20 -24 -60 -24q-63 0 -109 24l-17 16l-10 -88h-47z" />
    <glyph glyph-name="ch338" unicode="&#xf3a;" horiz-adv-x="0" 
 />
    <glyph glyph-name="ch339" unicode="&#xf3b;" horiz-adv-x="0" 
 />
    <glyph glyph-name="ch340" unicode="&#xf3c;" horiz-adv-x="1127" 
d="M1179 2032q0 -119 -60 -183q-19 -20 -60 -37l-142 -45q-54 -18 -137 -64q-45 -47 -45 -120q0 -168 178 -295l-127 -79h-96q-119 0 -186 -44q-89 -84 -89 -437v-621q0 -127 -16 -182q-26 -90 -114 -131l-266 -126v44l175 113q85 57 85 235v544q0 29 -2 86t-2 86
q0 315 163 424l34 22q85 56 244 82q-111 163 -111 270q0 113 115 186l255 85q42 11 84 54q56 60 56 137z" />
    <glyph glyph-name="ch341" unicode="&#xf3d;" horiz-adv-x="1127" 
d="M1150 -288v-44l-266 126q-85 40 -115 132q-18 61 -18 181v662q0 142 -4 181q-13 153 -82 215q-75 44 -189 44h-98l-125 79q181 134 181 298q0 63 -45 117q-35 30 -139 64l-143 45q-37 15 -57 37q-59 65 -59 183l63 4q0 -77 56 -137q41 -43 84 -54l253 -85
q117 -73 117 -186q0 -109 -111 -270q153 -25 240 -82l35 -22q166 -111 166 -424q0 -29 -1.5 -86t-1.5 -86v-551q0 -97 7 -128q15 -58 77 -100z" />
    <glyph glyph-name="ch342" unicode="&#xf3e;" horiz-adv-x="0" 
 />
    <glyph glyph-name="ch343" unicode="&#xf3f;" horiz-adv-x="0" 
 />
    <glyph glyph-name="ch344" unicode="&#xf40;" horiz-adv-x="1194" 
d="M1080 1583l-31 -221v-1597h-67v650q0 441 -51 700l-5 24q-57 286 -159 286h-133v-867h-41v49l-13 270q-7 177 -60 360q-16 55 -38 109l-35 79h-64q-37 0 -53 -7q-8 -10 -10 -13q-16 -23 -22 -43l-48 -187l-31 -102q-43 -99 -112 -123l-78 -10l38 182q59 14 82 43l61 104
l49 156h-69q-22 12 -38 89l-3 69h931z" />
    <glyph glyph-name="ch345" unicode="&#xf41;" horiz-adv-x="1194" 
d="M1030 1583l-19 -149v-918l-37 32q-133 155 -170 186q-100 83 -228 83h-213q0 131 42 139q10 22 84 276q13 44 58 123q10 17 39 70h-185q-234 0 -234 -824v-836h-58l3 1653l83 165h835zM946 766v117q0 231 -19 319q-29 147 -127 223h-101q-16 -19 -50 -63
q-52 -69 -86 -153q-37 -86 -77 -236q242 0 344 -97z" />
    <glyph glyph-name="ch346" unicode="&#xf42;" horiz-adv-x="1208" 
d="M1067 1583l-23 -178v-1640h-59v744q0 401 -27 577q-46 308 -183 339h-159q19 -68 19 -387v-471q-89 119 -174 240q-105 86 -254 86h-171q0 112 26 129q13 69 42 210q26 116 84 193h-37q-28 28 -28 82q0 49 16 76h928zM570 804v166q0 110 -42 260q-52 195 -134 195h-94
q-102 -121 -136 -223q-20 -59 -20 -135q91 -13 229 -38q104 -36 197 -225z" />
    <glyph glyph-name="ch347" unicode="&#xf43;" horiz-adv-x="1166" 
d="M1033 1583l-16 -175v-734h-61v253q0 188 -33 325q-44 173 -125 173h-124v-608q-5 4 -9 4q-8 0 -17 -4q-159 193 -405 193h-110q-44 0 -44 66q0 53 37 79q14 95 39 153q11 24 68 117h-50q-21 25 -21 70q0 58 32 88h839zM621 940q-4 58 -19 211q-38 276 -164 276h-83
q-148 -147 -148 -227q0 -11 3 -19q112 0 149 -13q60 -22 166 -126q23 -23 96 -102zM1023 684q-14 -54 -27 -72q-47 -73 -149 -73h-266q-134 0 -229 -81q-27 -22 -69 -79h51q25 0 58 4q47 0 103 -28q9 -3 24 -16q39 34 72 53q92 53 170 53q262 0 262 -242q0 -44 -67 -193
q-28 -63 -65 -138h-53l56 155q19 40 19 90q0 59 -32 121q-34 70 -82 91t-91 21q-120 0 -146 -41l35 -34l114 -191h-46q-42 55 -74 79q-102 80 -236 80h-179q-8 41 -8 56q0 9 2 13q3 18 20 38q4 5 20 19l65 170q-16 9 -25 12q-47 28 -47 70q0 37 14 63h806z" />
    <glyph glyph-name="ch348" unicode="&#xf44;" horiz-adv-x="1156" 
d="M1089 494l-126 126q-84 84 -213 145q-136 65 -248 72q-60 3 -131 3q-129 0 -222 -49q-25 -14 -53 -35q-8 12 -12 31q-14 39 -14 60q0 26 16 58q2 12 21 31q0 192 28 284q22 75 68 158q9 20 26 47h-61q-38 39 -38 119v26q0 9 3 13h810q-3 -76 -20 -105q-34 -53 -97 -53
h-361q-104 0 -171.5 -75.5t-67.5 -181.5q0 -27 3 -42l21 -97q208 0 324 -20q177 -34 382 -281l133 -161v-73z" />
    <glyph glyph-name="ch349" unicode="&#xf45;" horiz-adv-x="1197" 
d="M1086 971q0 -60 -30 -110q-52 -85 -70 -144q-58 -178 -270 -178q-62 0 -253 40q-47 10 -92 89q-20 36 -32 60l-129 205q-44 66 -93 138q-53 76 -117 145l47 41q44 -51 133 -94q87 -39 163 -46q59 0 133 26q85 32 94 80q4 29 4 50v28q0 125 -98 128l-191 11q-47 1 -66 72
q-4 24 -9 71h820q3 -17 3 -29q0 -114 -159 -114h-233q5 -13 7 -19q21 -56 23 -70q3 -25 2 -46q-2 -20 -5 -32l122 -38q99 -33 189 -100q107 -83 107 -164zM940 755q23 52 23 92q0 39 -16 70q-28 35 -37 51q-50 76 -165 115q-83 26 -143 28q-85 -54 -129 -58q-29 -3 -62 -3
q-82 0 -119 21q54 -98 133 -205q8 -11 100 -108q34 -37 49 -47q22 -18 67 -31q58 -20 110 -20q149 0 189 95z" />
    <glyph glyph-name="ch350" unicode="&#xf46;" horiz-adv-x="1280" 
d="M1057 1583q0 -62 -4 -79q-13 -79 -72 -79h-371q4 -12 16 -44q22 -58 26 -86q9 -65 -7 -133q-1 -18 -10 -40l181 94q37 19 88 19q114 0 185 -84q69 -80 69 -195q0 -162 -67 -294q-82 -165 -230 -165q-119 0 -223 84q-29 25 -79 87q-24 -54 -50 -83q-78 -88 -191 -88
q-139 0 -215 159q-61 126 -61 280q0 125 76 204t200 79q38 0 73 -10l175 -50q-9 90 -23 133q-42 135 -133 135h-209q-66 0 -66 156h922zM1057 807q3 144 -142 222q-82 54 -147 54q-69 0 -133 -54v-143q0 -76 51 -123q22 -20 101 -66q63 -36 121 -36q62 0 105 42t44 104z
M537 879l6 61q-132 92 -271 92q-55 0 -81 -16q-66 -42 -66 -117q0 -37 14 -69q24 -65 88 -100q46 -24 155 -53q24 -6 44 -6q70 0 94 79q5 24 17 129z" />
    <glyph glyph-name="ch351" unicode="&#xf47;" horiz-adv-x="1172" 
d="M1107 189h-57q-171 205 -211 243q-159 146 -346 182q-86 16 -266 16h-72q-103 0 -103 -10q-4 28 -4 41q0 48 10 69l33 74q18 147 48 351q9 74 22 114q26 85 43 156h-37q-35 0 -35 119v39h836q-4 -57 -10 -79q-22 -79 -93 -79h-369q-20 -4 -70 -17q-73 -24 -119 -81
q-10 -11 -35 -70q-5 -7 -23 -51h557q3 -31 3 -44q0 -130 -100 -130h-511l-13 -202h25q14 0 42 3q297 0 428 -93q81 -58 172 -185z" />
    <glyph glyph-name="ch352" unicode="&#xf49;" horiz-adv-x="1061" 
d="M949 642l-333 -877h-57l187 524q20 56 41 198q5 33 19 127q0 199 -47 288q-66 124 -254 162q-29 -20 -98 -68q-103 -74 -103 -130q0 -24 17 -36l140 -102q71 -66 79 -109q3 -18 3 -41q0 -39 -19 -94q-174 78 -256 146q-107 90 -107 187q0 66 75 139q4 2 131 104
q34 27 190 142q22 74 22 125q0 100 -192 100h-80q-143 0 -143 -95q0 -88 78 -161q3 -4 23 -16l-117 -123q-106 43 -106 168q0 134 129 272q34 36 129 111h468v-39q0 -85 -16 -98l-23 -16q0 -80 -10 -106q-21 -46 -81 -105q-9 -11 -28 -28q348 -83 348 -415q0 -59 -9 -134z
" />
    <glyph glyph-name="ch353" unicode="&#xf4a;" horiz-adv-x="1244" 
d="M1143 1583l-18 -149q-142 -213 -263 -587q-38 -116 -95 -335h-63l100 387q-21 12 -73 37q-127 60 -203 60q-149 0 -228 -170q-62 -131 -62 -298q0 -72 24 -155q15 -52 107 -307l107 -301h-58l-113 265q-38 89 -127 324q-82 229 -82 386q0 184 95 290q100 113 281 113
q80 0 225 -83q45 -26 129 -85l124 450h-607q-87 35 -77 158h877z" />
    <glyph glyph-name="ch354" unicode="&#xf4b;" horiz-adv-x="1134" 
d="M1017 801l-81 -174q-43 25 -96 27l-98 7h-155q-154 0 -295 -139q-34 -34 -120 -143h-32v1042l-37 162h833l-3 -88l-26 -74q43 -89 43 -156q-3 -24 -3 -36q-7 -48 -34 -86l-57 -79l94 -108q14 -16 52 -116zM798 1425h-500v-111q14 -94 127 -139q87 -36 196 -36
q92 0 163 75q53 55 53 118q0 45 -39 93zM923 817q6 46 -32 100q-67 89 -171 89q-148 0 -302 80q-55 28 -126 82l-17 -165q-2 -31 -22 -133q-10 -49 -24 -104l-35 -241l138 136q112 156 245 156h346z" />
    <glyph glyph-name="ch355" unicode="&#xf4c;" horiz-adv-x="1208" 
d="M1115 950h-305q-172 0 -274 -84q-95 -76 -153 -243q-49 -140 -124 -493q-17 -84 -42 -228q-2 0 -23 -137h-52l68 417q41 260 69 409q79 411 286 512q76 36 212 36h236q-77 286 -348 286h-240q-64 5 -79 82q-4 17 -7 76h747v-43q0 -96 -27 -115h-48q11 -22 25 -57
q50 -129 50 -197q0 -32 -3 -59z" />
    <glyph glyph-name="ch356" unicode="&#xf4d;" horiz-adv-x="1166" 
d="M1020 1016h-433q-218 0 -377 -234q-39 -57 -93 -194q-23 -58 -44 -124h-47q24 77 38 117q33 109 66 195q107 280 272 367q43 22 181 48l61 11h266q-8 47 -29 118q-21 45 -77 74q-76 31 -276 31h-185q-81 0 -110 79q-8 25 -14 79h794v-66q0 -51 -27 -76q-8 -7 -30 -20
l30 -126q6 -29 6 -54q0 -41 -6 -50zM1030 172q-35 -114 -72 -199q-19 -45 -66 -140l-73 -145h-48l77 171q22 49 63 189q6 37 6 56q0 173 -123 227q-51 23 -102 23q-119 0 -119 -56l37 -70l82 -202l-27 -19q-34 53 -60 81q-80 87 -198 130q-7 3 -224 26l44 77l38 37l114 292
h-56q-59 0 -80 73q-3 22 -7 76h738q-3 -77 -27 -108q-43 -51 -131 -51h-190q-141 -19 -234 -139q-23 -31 -69 -124q55 0 103 -13q34 -4 67 -17q9 -4 29 -13q50 49 83 75q101 82 170 82q112 0 187 -78.5t75 -191.5v-26q-7 -16 -7 -23z" />
    <glyph glyph-name="ch357" unicode="&#xf4e;" horiz-adv-x="1181" 
d="M1079 927q0 -132 -70 -227q-80 -109 -206 -109q-134 0 -226 73q-100 79 -100 209v93q-298 -184 -298 -939v-262h-60v719q0 379 193 573q25 26 114 91q63 49 57 65q6 25 6 65q0 147 -107 147h-78q-80 0 -103 79q-6 23 -10 79h794q3 -59 0 -79q-13 -79 -70 -79h-86
q-246 0 -270 -225h173q347 0 347 -273zM988 909q-40 64 -93 84q-133 26 -180 26q-101 0 -172 -13q0 -141 14 -166q54 -112 195 -110q30 1 67 4q190 13 190 116q0 24 -21 59z" />
    <glyph glyph-name="ch358" unicode="&#xf4f;" horiz-adv-x="1100" 
d="M950 1583q0 -53 -3 -79q-19 -79 -85 -79h-616l84 -505q63 74 108 112q136 116 243 116q289 0 289 -325q0 -235 -160 -660l-149 -398h-63l163 447q85 236 85 440q0 330 -266 330q-75 0 -158 -65q-22 -17 -72 -70l88 -369h-52q-12 49 -40 171q-45 181 -78 260
q-25 55 -148 395l-43 121l53 158h820z" />
    <glyph glyph-name="ch359" unicode="&#xf50;" horiz-adv-x="1156" 
d="M991 1583l-23 -162v-1054h-32q-67 94 -120 145q-155 149 -304 149h-208q-63 0 -153 -25l-60 -16q-28 -7 -45 -16q-4 29 -4 50q0 78 33 115q5 55 41 155q26 40 82 95l29 30q-40 4 -77 44.5t-44 81.5q-14 64 38 164q17 31 57 86l-26 2q-36 -2 -36 156h852zM819 1332l-6 93
h-525q-68 -54 -68 -105q0 -58 80 -107q59 -38 124 -51q30 -10 92 -10q273 0 303 180zM908 502l-43 508l-29 219q-68 -67 -114 -103q-142 -107 -261 -107q-38 0 -74 10q-10 1 -20 1q-92 0 -179 -125q-30 -44 -30 -68v-46q31 6 87 13q101 13 128 13h132q60 0 162 -73
q77 -55 117 -102z" />
    <glyph glyph-name="ch360" unicode="&#xf51;" horiz-adv-x="1096" 
d="M927 -235h-58v291q0 534 -196 754q-139 156 -538 156h-89l19 91q0 81 16 191q7 53 60 130q15 24 34 47h-31q-32 26 -32 158h757q0 -75 -17 -105q-31 -53 -93 -53h-189q-144 0 -269 -67q-142 -77 -176 -203h111q392 0 535 -205q94 -135 130 -383q26 -182 26 -498v-304z
" />
    <glyph glyph-name="ch361" unicode="&#xf52;" horiz-adv-x="1127" 
d="M1098 462l-48 12q-130 313 -218 392q-109 97 -371 97h-345l23 110q1 47 16 140q20 73 43 145q5 16 29 69h-26q-34 0 -34 120v36h750v-46q-16 -110 -108 -110h-129q-203 0 -294 -48q-117 -63 -159 -240h180q402 0 532 -260q5 -13 159 -417zM966 204q-35 -113 -72 -199
q-20 -44 -68 -139l-72 -146h-47l77 172q21 49 62 189q7 37 7 56q0 174 -124 227q-52 23 -101 23q-120 0 -120 -56l36 -71l84 -202l-29 -19q-33 53 -59 82q-79 86 -197 130q-8 3 -224 25l43 77l37 37l115 292h-56q-60 0 -79 73q-4 22 -7 76h738q-5 -77 -29 -107
q-41 -52 -130 -52h-190q-140 -19 -233 -139q-23 -31 -70 -124q55 0 104 -12q32 -5 66 -18q10 -4 29 -12q50 48 83 75q101 81 170 81q112 0 187.5 -78t75.5 -191v-27q-7 -16 -7 -23z" />
    <glyph glyph-name="ch362" unicode="&#xf53;" horiz-adv-x="1096" 
d="M946 -235h-65v508q0 269 -62 415q-50 111 -209 275l-14 -116q-25 -230 -275 -230q-107 0 -190 78t-83 184q0 113 53 214q82 164 227 164q22 0 35 -2l168 -26q-38 196 -266 196h-48q-76 0 -98 79q-8 23 -10 79h723q0 -77 -16 -105q-32 -53 -89 -53h-145q12 -20 14 -35
q16 -35 17 -70l3 -107q25 -10 48 -22q59 -36 98 -85q116 -150 155 -302q29 -106 29 -299v-740zM527 936v63q-84 41 -121 55q-71 29 -129 38q-56 8 -99 -23.5t-43 -86.5q0 -28 20 -55q36 -54 59 -73q13 -14 107 -63q35 -25 77 -25q129 0 129 170z" />
    <glyph glyph-name="ch363" unicode="&#xf54;" horiz-adv-x="1096" 
d="M975 1482q-25 -151 -25 -237v-751h-37q-218 205 -265 240q-180 129 -366 129h-149q-26 -3 -76 -33h-34l41 169l165 428h-35q-44 0 -52 156h429q-1 -15 -7 -53q-9 -53 -49 -96q-21 -22 -116 -53q-53 -18 -76 -39q-87 -79 -133 -187q-15 -33 -34 -139h94q291 0 427 -107
q130 -149 217 -232v409q0 186 -120 398v99h201v-101z" />
    <glyph glyph-name="ch364" unicode="&#xf55;" horiz-adv-x="1096" 
d="M1002 1441q-23 -23 -23 -146v-801h-36q-121 116 -259 206q-222 146 -399 147q-15 0 -47 1.5t-48 1.5q-60 0 -117 -29h-41l15 161l182 445h-39q-48 -9 -48 156h429q-1 -15 -7 -53q-9 -50 -49 -96q-15 -16 -89 -36t-96 -47q-82 -92 -124 -203l-50 -132h94l139 -4
q80 100 220 162l269 118q0 36 -74 161v130h198v-142zM897 714v457q-107 -19 -166 -39q-180 -59 -246 -150q105 -30 127 -38q76 -27 111 -61z" />
    <glyph glyph-name="ch365" unicode="&#xf56;" horiz-adv-x="1096" 
d="M975 1583v-101q-25 -151 -25 -237v-751h-37q-218 205 -265 240q-180 129 -366 129h-149q-26 -3 -76 -33h-34l41 169l165 428h-35q-44 0 -52 156h833zM515 1427q-68 9 -151 -53q-66 -47 -115 -115q-34 -44 -59 -104q-15 -33 -34 -139h94q291 0 427 -107q130 -149 217 -232
v409q0 142 -114 341h-265z" />
    <glyph glyph-name="ch366" unicode="&#xf57;" 
d="M966 1583v-734h-59q-104 91 -214 140q-168 77 -404 77q-116 0 -156 -14q-33 -20 -67 -33l-47 73l11 83l163 243l-73 7q-20 25 -20 65q0 37 17 68q3 9 19 25h830zM883 1016v87l-20 121q-11 71 -53 124q-55 70 -122 70h-210q-56 -9 -91 -17q-94 -24 -177 -113
q-30 -31 -64 -83h110q292 0 408 -50q120 -80 219 -139zM966 226q-38 -114 -78 -200q-20 -44 -70 -139l-78 -146h-50l81 172q23 50 68 190q6 37 6 56q0 172 -131 227q-55 22 -108 22q-127 0 -127 -56l39 -70l88 -202l-29 -19q-36 52 -64 81q-84 87 -209 131q-9 2 -238 25
l45 77l41 36l122 293h-60q-63 0 -86 73q-3 22 -5 76h782q-4 -77 -28 -107q-46 -53 -140 -53h-202q-149 -18 -247 -138q-24 -31 -74 -124q59 0 110 -13q35 -4 70 -17q11 -4 31 -14q53 50 88 76q107 81 180 81q120 0 200 -78.5t80 -190.5v-26q-7 -16 -7 -23z" />
    <glyph glyph-name="ch367" unicode="&#xf58;" horiz-adv-x="1280" 
d="M1174 1464q-50 -51 -50 -305v-748l-42 7l-492 502q6 -23 6 -66q0 -269 -282 -269q-112 0 -189 65q-79 69 -79 180q0 373 314 370q10 -1 35.5 -2t37.5 -1q0 228 -209 228q-53 0 -53 122v23q0 9 4 13h580q0 -77 -16 -105q-30 -53 -90 -53l-70 -11q-70 -9 -70 -119
q0 -64 15 -98q72 -25 118 -65q80 -72 275 -348l136 -193v419q0 88 -35 206q-13 41 -76 214q-15 30 -15 74q0 50 15 79h232v-119zM500 791q0 120 -43.5 169.5t-163.5 49.5q-135 0 -135 -79q0 -91 88 -158q112 -83 161 -83q93 0 93 101z" />
    <glyph glyph-name="ch368" unicode="&#xf59;" horiz-adv-x="1197" 
d="M1264 1875q4 -27 4 -46q0 -157 -130 -157h-92l-16 -70q6 -24 6 -35q0 -113 -156 -113h-196q13 -29 13 -75q0 -55 -13 -103l106 -30q99 -29 190 -103q106 -84 106 -169q0 -61 -30 -112q-52 -87 -70 -147q-58 -184 -270 -184q-62 0 -253 42q-49 10 -92 91q-9 19 -32 63
l-126 217q-77 131 -213 278l47 48q38 -52 151 -96q123 -47 185 -49q164 -8 188 123q3 17 3 33q0 173 -118 173h-171q-54 0 -68 75q-5 16 -7 73h769v101l-43 172q21 -8 71 -27q75 -27 118 -27q52 0 110 36zM940 753q23 54 23 95q0 40 -16 72q-28 35 -37 52q-50 77 -165 117
q-83 28 -143 30q-39 -27 -139 -61q-57 -8 -88 -8q-40 0 -77 18q10 -18 34 -61q21 -41 93 -139l114 -137q65 -78 206 -78q154 0 195 100z" />
    <glyph glyph-name="ch369" unicode="&#xf5a;" horiz-adv-x="1280" 
d="M610 1425q4 -12 16 -44q22 -58 26 -86q9 -65 -7 -133q-1 -18 -10 -40l181 94q37 19 88 19q114 0 185 -84q69 -80 69 -195q0 -162 -67 -294q-82 -165 -230 -165q-119 0 -223 84q-29 25 -79 87q-24 -54 -50 -83q-78 -88 -191 -88q-139 0 -215 159q-61 126 -61 280
q0 125 76 204t200 79q38 0 73 -10l175 -50q-9 90 -23 133q-42 135 -133 135h-209q-66 0 -66 156h874v90l-44 202q106 -58 179 -58q38 0 100 28q21 12 52 30q0 -72 -5 -108q-32 -111 -133 -111h-91l-10 -73q0 -62 -4 -79q-13 -79 -72 -79h-371zM1057 807q3 144 -142 222
q-82 54 -147 54q-69 0 -133 -54v-143q0 -76 51 -123q22 -20 101 -66q63 -36 121 -36q62 0 105 42t44 104zM537 879l6 61q-132 92 -271 92q-55 0 -81 -16q-66 -42 -66 -117q0 -37 14 -69q24 -65 88 -100q46 -24 155 -53q24 -6 44 -6q70 0 94 79q5 24 17 129z" />
    <glyph glyph-name="ch370" unicode="&#xf5b;" horiz-adv-x="1172" 
d="M1197 1875q0 -74 -7 -102q-25 -103 -133 -103h-85l-10 -87q0 -56 -4 -72q-15 -77 -93 -86h-369q-13 -2 -42 -7q-98 -24 -147 -91l-58 -121h557q3 -31 3 -44q0 -130 -100 -130h-511l-13 -202h25q14 0 42 3q298 0 428 -93q80 -58 172 -185l246 -350h-41l-199 231
q-153 142 -379 181q-76 13 -252 13h-72q-103 0 -103 -10q-4 28 -4 41q0 48 10 69l33 74q18 147 48 351q9 74 22 114q26 85 43 156h-33q-28 21 -36 158h776v107l-42 185l70 -30q73 -28 114 -28q42 0 94 28q13 8 50 30z" />
    <glyph glyph-name="ch371" unicode="&#xf5c;" horiz-adv-x="1096" 
d="M1153 1878q2 -69 -3 -98q-23 -103 -107 -103h-84l-9 -84q0 -59 -7 -82q-24 -86 -106 -86h-377q-35 -11 -54 -17q-61 -28 -86 -62l-31 -35h478q9 -66 -13 -92q-41 -48 -142 -48h-353l-30 -63q-8 -13 0 -48h259q268 0 425 -133q64 -56 225 -193h-39q-92 55 -243 143
q-65 38 -387 40l-329 3v106l16 135q12 107 73 233q7 14 24 40h-54q-40 23 -40 106v29q0 10 3 14h738v110l-44 194q25 -12 67 -28q81 -33 113 -36q50 0 95 36q7 6 22 19zM966 172q-35 -114 -72 -199q-20 -45 -68 -140l-72 -145h-47l77 171q21 49 62 189q7 37 7 56
q0 173 -124 227q-52 23 -101 23q-120 0 -120 -56l36 -70l84 -202l-29 -19q-33 53 -59 81q-79 87 -197 130q-8 3 -224 26l43 77l37 37l115 292h-56q-60 0 -79 73q-4 22 -7 76h738q-5 -77 -29 -108q-41 -51 -130 -51h-190q-140 -19 -233 -139q-23 -31 -70 -124q55 0 104 -13
q32 -4 66 -17q10 -4 29 -13q50 49 83 75q101 82 170 82q112 0 187.5 -78.5t75.5 -191.5v-26q-7 -16 -7 -23z" />
    <glyph glyph-name="ch372" unicode="&#xf5d;" horiz-adv-x="1208" 
d="M1225 1574q-10 -26 -24 -60q-27 -73 -39 -93q-16 -28 -56 -59q-42 -35 -70 -35q-43 0 -93 22q-11 2 -30 13q-17 -18 -19 -27q-21 -34 -16 -57q0 -54 84 -87q70 -29 130 -23v-123q-26 -15 -26 -89v-703h-53q-118 127 -183 179q-224 179 -435 179q-126 0 -166 -23l-57 89
q57 26 90 89l130 250h-40q-29 29 -29 70q0 25 13 50q3 7 16 23q209 0 209 103q0 163 -241 163q-236 0 -236 -128q0 -52 26 -72l55 -41q64 -67 64 -185q-216 0 -216 309q6 66 87 180q31 44 78 95h310l105 -111q72 -79 72 -145q0 -58 -82 -159h320q-33 8 -58 38q-20 20 -35 63
q-2 8 -6 19l90 275q17 -9 62 -29q61 -29 110 -30q47 -1 103 30q12 6 56 40zM998 425q0 173 -25 408q-11 98 -30 183h-444q-91 -90 -116 -247q271 0 401 -117q104 -97 163 -165q9 -11 51 -62z" />
    <glyph glyph-name="ch373" unicode="&#xf5e;" horiz-adv-x="1208" 
d="M1066 -235h-59v428q0 173 -35 372q-52 282 -146 314q-33 -46 -59 -69q-83 -73 -174 -73q-34 0 -68 10q-103 29 -133 51q-60 34 -69 119q0 206 121 285q40 27 127 39q138 0 203 -35q10 -6 88 -63q6 25 6 38q0 98 -51 166q-58 78 -262 78q-107 0 -156 -28
q-144 -80 -198 -141q-75 -86 -75 -224q0 -78 20 -143q24 -51 57 -149q3 -16 3 -33q0 -94 -83 -185q-10 -12 -39 -38q0 97 -11 139q-26 73 -60 226q-6 56 -6 107q0 127 144 370q153 257 264 257h583v-79q-9 -79 -48 -79l-24 2q6 -17 21 -59q23 -69 23 -96q0 -72 -44 -186
q88 -190 104 -253q36 -156 36 -339v-729zM784 943q0 93 -223 149l-92 14q-83 0 -83 -71q0 -78 158 -156q53 -25 107 -25q62 0 103 42q13 14 30 47z" />
    <glyph glyph-name="ch374" unicode="&#xf5f;" horiz-adv-x="1115" 
d="M923 1583l-20 -156v-943h-43q-189 244 -501 244q-34 2 -54 2q-106 0 -165 -26l-111 -27q13 29 32 57q82 130 175 161q47 14 119 14q140 0 322 -95q69 -36 153 -100v222q-46 41 -72 57q-100 58 -217 58h-291q-85 0 -98 114q0 16 -3 54h395q131 0 273 -93q4 64 0 93
q-24 208 -176 208h-336q-98 0 -122 77q-5 19 -5 79h745z" />
    <glyph glyph-name="ch375" unicode="&#xf60;" horiz-adv-x="1124" 
d="M1092 448h-40q-86 188 -173 265q-110 94 -296 94h-152q-6 94 42 149q34 37 148 54q143 39 143 222q0 130 -81 170q-53 25 -201 25q-193 0 -239 -16q-103 -37 -103 -186q0 -95 98 -206q37 -52 37 -172v-40q-25 7 -39 10q-154 49 -189 133q-18 42 -18 139q0 131 91 301
q102 193 223 193h551l-23 -123l20 -79q19 -86 19 -116q0 -103 -64 -176q-23 -25 -118 -96q81 0 134 -57q79 -84 136 -212q43 -94 94 -276z" />
    <glyph glyph-name="ch376" unicode="&#xf61;" horiz-adv-x="1321" 
d="M1199 1544l-43 -126v-944h-41l-221 260l-253 245q-133 -188 -325 -188q-91 0 -187.5 83.5t-96.5 174.5q0 57 68 220q20 51 65 152q-18 9 -29 16q-32 22 -36 41q-11 36 3 85q1 9 10 20h230q-12 -56 -16 -69q-23 -71 -52 -96l-53 -56q-25 -29 -39 -54q-25 -43 -37 -111
q-14 -90 177 -243q62 -52 111 -52q146 0 146 355q7 28 7 44q0 95 -92 152q-7 13 -7 29v19q0 33 13 59q2 10 17 23h227q-6 -48 -32 -119q-48 -53 -48 -113q3 -19 3 -34v-69q16 -27 67 -103q72 -110 125 -172q47 -58 135 -189l85 -123v302q0 176 -21 294q-9 45 -23 92
q-30 41 -63 139q0 34 13 72q4 14 12 23h201v-39z" />
    <glyph glyph-name="ch377" unicode="&#xf62;" horiz-adv-x="1250" 
d="M1199 512h-68q-23 45 -139 202q-187 252 -545 252q-139 0 -260 -61q-46 -22 -94 -63q9 61 17 92q26 92 68 133q65 65 230 88q48 7 153 10q22 35 22 64q0 19 -9 47q-30 80 -136 114q-169 54 -180 62q-53 30 -68 82q-4 17 -7 49h767q-10 -56 -21 -82q-36 -83 -108 -83h-168
q21 -80 21 -153q0 -43 -26 -87q-5 -7 -17 -19l97 -27q103 -26 247 -230q86 -118 197 -324z" />
    <glyph glyph-name="ch378" unicode="&#xf63;" horiz-adv-x="1280" 
d="M1183 1583l-32 -175v-953h-44q-12 19 -43 67q-99 140 -225 231q-169 120 -356 120h-110q6 28 14 54q31 90 122 110q38 8 73 12q63 80 63 142q0 19 -7 41q-34 114 -42 126q-42 69 -139 69q-293 0 -293 -170q0 -71 15.5 -102t72.5 -72q20 -34 20 -80q0 -54 -23 -104
q-4 -5 -15 -20q-62 22 -95 48q-97 70 -97 188q0 38 10 82q21 95 135 233q122 153 207 153h377l-25 -165q7 -13 19 -30q22 -37 22 -61q0 -97 -44 -182q-27 -48 -86 -113q90 0 125 -26q59 -43 176 -185q29 -37 114 -144v520q-7 49 -42 153q-52 87 -52 128q0 60 23 105h182z
" />
    <glyph glyph-name="ch379" unicode="&#xf64;" horiz-adv-x="1266" 
d="M1135 1583l-29 -218v-1600h-63v450q0 444 -26 658q-6 42 -19 83q-50 -56 -79 -79q-96 -79 -177 -79q-90 0 -210 95q-47 36 -101 97v-107l10 -53l58 -269h-34q-9 27 -34 93q-84 209 -289 251q-26 6 -110 15l61 153h79q70 -7 116 -38q19 -14 95 -85v282q25 194 132 291
q33 32 99 60h521zM989 1089q0 116 -31 206q-45 130 -137 130h-137q-134 -30 -175 -94q-22 -35 -27 -106q-8 -82 112 -191q115 -107 199 -107q101 0 157 79q15 23 39 83z" />
    <glyph glyph-name="ch380" unicode="&#xf65;" horiz-adv-x="1266" 
d="M1294 920q-100 -3 -153 -21q-171 -58 -240 -250q-14 -39 -29 -105h-33l56 339v107l-27 -30q-43 -43 -71 -67q-120 -95 -211 -95q-83 0 -179 62q-33 21 -79 67q-20 -104 -28 -227q-16 -253 -16 -485v-450h-64v1600l-29 218h521q66 -25 101 -56q104 -97 133 -295v-282
q65 62 111 92q14 7 97 31h80zM845 1225q-8 86 -29 114q-45 58 -174 86h-137q-94 0 -136 -130q-32 -92 -32 -206q21 -59 36 -79q59 -83 161 -83q99 0 208 99q112 102 103 199z" />
    <glyph glyph-name="ch381" unicode="&#xf66;" horiz-adv-x="1250" 
d="M1147 1583l-26 -119q-33 -28 -33 -179v-837l-31 -6q-27 40 -92 136q-118 169 -183 259q-85 113 -137 162l-341 328q-12 -17 -23 -42q-55 -116 -70 -170l-20 -70q77 -3 116 -13q126 -33 170 -130l161 -285h-52q-77 88 -116 120q-142 120 -295 120h-133q0 45 10 99
q6 35 35 56q4 4 32 20l32 143q20 88 50 167q5 13 10 23l3 56q-43 50 -43 126v32l4 4h515q0 -99 -52 -149l-95 -69l109 -127q116 -135 148 -200q26 -64 108 -212l101 -161v537q0 57 -73 153q-33 41 -32 79q3 56 13 103q6 23 19 46h211z" />
    <glyph glyph-name="ch382" unicode="&#xf67;" horiz-adv-x="1100" 
d="M985 782q0 -187 -77 -376q-28 -67 -95 -236l-161 -405h-58l96 262q87 241 116 368q35 156 35 286q0 234 -129 301q-60 30 -136 30q-106 0 -106 -49l64 -159q21 -54 42 -123q1 -7 6 -29h-42q-31 77 -54 111q-80 120 -225 157q-50 14 -133 14h-37q-16 0 -29 -3q-4 24 -4 39
q0 36 10 49l33 54l135 352h-61q-59 5 -59 119v26q0 9 3 13h762q0 -75 -29 -105q-54 -53 -166 -53h-143q-190 -23 -294 -177q-35 -49 -70 -145h59q74 0 149 -43q6 -4 39 -28q41 43 70 64q94 63 213 63q276 0 276 -377z" />
    <glyph glyph-name="ch383" unicode="&#xf68;" horiz-adv-x="1432" 
d="M1294 1466q0 -44 -15.5 -130.5t-15.5 -129.5v-767h-29l-443 664q-9 17 -43 72q-43 74 -138 122q-7 4 -24 11l-81 -130q30 -10 98 -35q136 -58 136 -140q0 -106 -130 -230t-236 -124q-148 0 -229 140q-66 116 -66 278v133q7 25 7 45q0 63 -10 113q-23 69 -33 108v117h200
v-99l-41 -129q-22 -74 -33 -133q-7 -51 -7 -142q0 -128 56 -187q37 -39 156 -86q57 -23 107 -23q141 0 136 115q-2 36 -30 55q-47 19 -77 39q-40 25 -169 58l-56 16l259 351q-57 -7 -76 80q-4 24 -6 85h443q0 -77 -16 -105q-30 -53 -88 -53q8 -15 108 -173
q120 -193 145 -242l137 -257v453q0 51 -52 143q-50 86 -43 129v105h199v-117z" />
    <glyph glyph-name="ch384" unicode="&#xf69;" horiz-adv-x="1156" 
d="M1041 1583l-36 -165v-860h-43v328q0 148 -23 269q-51 270 -177 270h-105v-575h-28q-4 93 -63 363q-18 82 -61 171q-4 10 -19 41h-61q-49 0 -62 -10.5t-27 -58.5q-21 -65 -78 -230q-47 -121 -149 -144l-6 -2q-41 -8 -67 -10l51 195q65 0 91.5 12.5t66.5 63.5l59 186h-39
q-48 0 -48 156h824zM1287 181q-76 -2 -107 -9q-120 -26 -199 -110q-49 -53 -83 -137q-7 -21 -29 -82h-33l52 300v105q-60 -61 -101 -92q-121 -98 -208 -98q-85 0 -178 79q-23 20 -80 81l-10 -81q-30 -208 -30 -351h-67v820l-26 179h518q63 -6 100 -30q105 -72 133 -266v-282
q89 90 136 111q49 10 72 16h81zM839 477q0 74 -30 106q-39 42 -174 69h-135q-169 0 -169 -302q19 -53 36 -80q58 -82 160 -82q100 0 206 94.5t106 194.5z" />
    <glyph glyph-name="ch385" unicode="&#xf6a;" horiz-adv-x="1250" 
d="M1199 512h-68q-23 45 -139 202q-187 252 -545 252q-139 0 -260 -61q-46 -22 -94 -63q9 61 17 92q26 92 68 133q65 65 230 88q48 7 153 10q22 35 22 64q0 19 -9 47q-30 80 -136 114q-169 54 -180 62q-53 30 -68 82q-4 17 -7 49h767q-10 -56 -21 -82q-36 -83 -108 -83h-168
q21 -80 21 -153q0 -43 -26 -87q-5 -7 -17 -19l97 -27q103 -26 247 -230q86 -118 197 -324z" />
    <glyph glyph-name="ch386" unicode="&#xf71;" horiz-adv-x="0" 
d="M28 -276l-63 -32q-91 136 -501 136q17 36 64 74q52 42 85 42l110 -23q68 11 68 123q0 66 -71 105q-55 31 -130 31q-198 0 -198 -86q0 -24 15 -68t16 -59q1 -10 1 -19q0 -51 -47 -85q-44 -32 -98 -32q-20 0 -34 3q14 16 20 23q24 31 20 51q-14 92 -14 105q4 24 4 36
q33 230 345 230h323q0 -21 -61 -58q-33 -19 -33 -32q0 -1 42 -43.5t42 -82.5q0 -67 -68 -106q-83 -48 -85 -52z" />
    <glyph glyph-name="ch387" unicode="&#xf72;" horiz-adv-x="0" 
d="M4 1593h-56l-105 100q-50 48 -482 333q-34 23 -80 45q-98 47 -147 47q-8 0 -29 -7q-25 -14 -47 -30q-48 -37 -48 -60q0 -165 172 -165q13 0 44 16q9 3 32 21l41 -37l-174 -108q-33 -22 -67 -22q-82 0 -144 78q-59 73 -59 158q7 59 117 143q134 102 275 102q99 0 172 -42
q20 -11 197 -187z" />
    <glyph glyph-name="ch388" unicode="&#xf73;" horiz-adv-x="0" 
d="M-28 1593h-57l-104 100q-51 48 -483 333q-34 23 -81 45q-97 47 -146 47q-8 0 -28 -7q-26 -14 -47 -30q-49 -37 -49 -60q0 -165 172 -165q13 0 43 16q10 3 33 21l40 -37l-173 -108q-34 -22 -66 -22q-84 0 -145 78q-58 73 -58 158q6 59 117 143q134 102 275 102
q98 0 172 -42q19 -11 197 -187zM28 -276l-63 -32q-91 136 -501 136q17 36 64 74q52 42 85 42l110 -23q68 11 68 123q0 66 -71 105q-55 31 -130 31q-198 0 -198 -86q0 -24 15 -68t16 -59q1 -10 1 -19q0 -51 -47 -85q-44 -32 -98 -32q-20 0 -34 3q14 16 20 23q24 31 20 51
q-14 92 -14 105q4 24 4 36q33 230 345 230h323q0 -21 -61 -58q-33 -19 -33 -32q0 -1 42 -43.5t42 -82.5q0 -67 -68 -106q-83 -48 -85 -52z" />
    <glyph glyph-name="ch389" unicode="&#xf74;" horiz-adv-x="0" 
d="M-14 -295q0 -62 -66 -205q-80 -172 -152 -172h-127q-200 0 -326 221q-14 24 -130 269q-51 109 -171 182q-39 24 -110 49l37 27q70 -23 105 -39q105 -48 199 -155q56 -66 166 -197q41 -45 156 -169q100 -77 182 -77q60 0 106 45t46 104q0 133 -117 133q-70 0 -146 -76
l26 196q38 21 63 26q75 31 116 31q143 0 143 -193z" />
    <glyph glyph-name="ch390" unicode="&#xf75;" horiz-adv-x="0" 
d="M2 -324l-32 -34q-146 136 -389 136h-117q53 93 61 99q31 28 81 28h111q60 0 60 98q0 114 -173 114q-248 0 -248 -70q0 -17 15 -61q20 -59 22 -65q3 -16 3 -29q0 -98 -160 -98q13 19 16 28q19 33 19 51q-3 35 -9 68q0 132 110 217q100 78 238 78h323q-4 -14 -61 -54
q-23 -16 -23 -33l46 -61q25 -32 25 -67q0 -73 -61 -107q-77 -43 -82 -50zM46 -584q-9 -78 -103 -158q-110 -91 -249 -91q-204 0 -376 167q-357 348 -488 348v39q131 -20 225 -79l440 -279q179 -113 296 -113q138 0 138 97q0 44 -47 108q-51 67 -91 67q-20 4 -68 -26
q-13 -6 -43 -29v55q42 30 69 46q78 48 114 54q79 0 134.5 -63.5t48.5 -142.5z" />
    <glyph glyph-name="ch391" unicode="&#xf76;" horiz-adv-x="15" 
d="M-118 1962q0 -81 -73.5 -155.5t-156.5 -74.5q-24 0 -43 16l-162 120l29 22q72 -57 97 -51q50 13 108 64q68 56 68 102q0 28 -43 60q-36 27 -69.5 35t-47.5 8q-80 0 -174 -69q-19 -21 -78 -73l-312 -276l-103 -100h-64l140 133q23 21 94 136q19 30 73 116q62 66 123 133
q98 87 208 87q151 0 277 -93q109 -80 109 -140zM-12 535v-473h-19l-25 53q-34 74 -250 136q-184 52 -298 52q-106 0 -247 -16q-57 -7 -111 -20l76 130q81 51 260 51q106 0 231 -32q152 -39 208 -101l121 -108v329z" />
    <glyph glyph-name="ch392" unicode="&#xf77;" horiz-adv-x="4" 
d="M-70 1956q0 -81 -73.5 -155t-156.5 -74q-23 0 -42 15l-163 120l30 22q72 -57 97 -51q50 13 108 65q67 56 67 101q0 29 -42 60q-37 28 -70.5 36t-46.5 8q-80 0 -174 -70q-19 -20 -79 -73l-311 -276l-104 -100h-64l140 133q24 21 94 136q19 30 73 117q63 65 124 133
q98 86 209 86q150 0 275 -93q109 -80 109 -140zM-87 535v-473h-19l-25 53q-34 74 -250 136q-184 52 -299 52q-105 0 -246 -16q-57 -7 -111 -20l76 130q81 51 260 51q107 0 232 -32q151 -39 207 -101l121 -108v329zM-183 -519l-62 -32q-91 136 -502 136q17 36 65 74
q51 41 84 41l110 -22q68 11 68 123q0 67 -71 105q-55 31 -130 31q-198 0 -198 -87q0 -22 15 -66.5t16 -59.5q1 -10 1 -19q0 -51 -47 -85q-44 -32 -97 -32q-21 0 -34 3q13 16 20 23q23 31 19 51q-13 92 -13 105q3 24 3 38q33 228 345 228h323q0 -21 -61 -56q-32 -20 -32 -33
q0 -2 41.5 -44t41.5 -83q0 -67 -68 -106q-83 -48 -84 -53z" />
    <glyph glyph-name="ch393" unicode="&#xf78;" horiz-adv-x="0" 
d="M-59 1962q0 -81 -74 -155.5t-156 -74.5q-24 0 -43 16l-162 120l29 22q72 -57 97 -51q50 13 108 64q68 56 68 102q0 28 -43 60q-36 27 -70 35t-47 8q-80 0 -174 -69q-19 -21 -78 -73l-311 -276l-105 -100h-63l139 133q24 21 94 136q19 30 74 116q62 66 123 133
q99 87 209 87q150 0 275 -93q110 -80 110 -140zM-134 798l-17 -156v-538h-23q-190 178 -418 178q-78 0 -153 -20q-17 -5 -29 -9q-6 11 -6 27q0 18 9 48q25 71 92 94q20 4 23 10q64 32 64 132q0 58 -13 72q-24 25 -103 25q-282 0 -282 -167q0 -58 64 -99q19 -12 66 -28
l-47 -131q-52 4 -76 20q-76 51 -76 202q0 83 82 208q88 132 159 132h379l-11 -121v-99q0 -50 -44 -87q-4 -5 -84 -59q54 -9 113 -29q41 -13 142 -68l114 -82v123q0 148 -39 196q-29 34 -66 42q-19 37 -19 76q0 57 37 94q6 6 19 14h143z" />
    <glyph glyph-name="ch394" unicode="&#xf79;" horiz-adv-x="0" 
d="M-193 1962q0 -81 -73.5 -155.5t-156.5 -74.5q-24 0 -43 16l-162 120l29 22q72 -57 97 -51q50 13 108 64q68 56 68 102q0 28 -43 60q-36 27 -69.5 35t-47.5 8q-80 0 -174 -69q-19 -21 -78 -73l-311 -276l-104 -100h-64l140 133q23 21 94 136q19 30 73 116q62 66 123 133
q99 87 209 87q150 0 276 -93q109 -80 109 -140zM-183 -519l-62 -32q-91 136 -502 136q17 36 65 74q51 41 84 41l110 -22q68 11 68 123q0 67 -71 105q-55 31 -130 31q-198 0 -198 -87q0 -22 15 -66.5t16 -59.5q1 -10 1 -19q0 -51 -47 -85q-44 -32 -97 -32q-21 0 -34 3
q13 16 20 23q23 31 19 51q-13 92 -13 105q3 24 3 38q33 228 345 228h323q0 -21 -61 -56q-32 -20 -32 -33q0 -2 41.5 -44t41.5 -83q0 -67 -68 -106q-83 -48 -84 -53zM-134 798l-17 -156v-538h-23q-190 178 -418 178q-78 0 -153 -20q-17 -5 -29 -9q-6 11 -6 27q0 18 9 48
q25 71 92 94q20 4 23 10q64 32 64 132q0 58 -13 72q-24 25 -103 25q-282 0 -282 -167q0 -58 64 -99q19 -12 66 -28l-47 -131q-52 4 -76 20q-76 51 -76 202q0 83 82 208q88 132 159 132h379l-11 -121v-99q0 -50 -44 -87q-4 -5 -84 -59q54 -9 113 -29q41 -13 142 -68l114 -82
v123q0 148 -39 196q-29 34 -66 42q-19 37 -19 76q0 57 37 94q6 6 19 14h143z" />
    <glyph glyph-name="ch395" unicode="&#xf7a;" horiz-adv-x="4" 
d="M-152 1629l-143 129q-72 54 -156 108q-154 100 -366 147h-228l69 189q167 0 286 -48q98 -42 269 -201q39 -42 156 -152l113 -100v-72z" />
    <glyph glyph-name="ch396" unicode="&#xf7b;" horiz-adv-x="21" 
d="M-93 1599h-53q-21 27 -61 64q-169 158 -383 256l-206 59l-203 43l57 151q22 -6 109 -25q124 -28 240 -66q38 -12 133 -106q30 -32 92 -97zM-311 1602h-48q-78 46 -139 71q-179 74 -345 75l-32 2l-124 17l34 149l220 -41q92 -26 201 -95q37 -23 97 -70z" />
    <glyph glyph-name="ch397" unicode="&#xf7c;" horiz-adv-x="0" 
d="M563 2214l-271 -156q-94 -53 -320 -53h-145q-249 0 -279 -102q-13 -54 -13 -91q0 -63 23 -125q8 -22 27 -56h-31l-80 79q-135 136 -237 193q-126 69 -293 69h-63q38 54 74 90q95 92 175 92q116 0 186 -108q63 -176 149 -263q9 -11 38 -33q-22 73 -22 99q0 75 41 165
q83 184 354 184q75 0 117 -3q213 -16 235 -16q85 0 125 4q52 6 104 24l106 37v-30z" />
    <glyph glyph-name="ch398" unicode="&#xf7d;" horiz-adv-x="4" 
d="M218 2227l-114 -62q-101 -55 -133 -63q-97 -24 -350 -24q-142 0 -159 -45q-10 -24 -10 -58q0 -38 10 -53h-57l-52 63q-105 84 -221 84q-33 0 -108 -17q-37 -8 -61 -16q7 67 20 95q44 96 152 96q52 0 120 -62q22 -19 90 -100l63 -76q-3 32 -3 50q0 88 41 130q79 79 244 79
q43 0 84 -13q112 -33 162 -33q78 0 164 22q64 16 96 30q9 4 22 13v-40zM297 2039l-56 -50q-103 -75 -199 -137q-106 -69 -251 -69h-145q-110 -9 -121 -54q-10 -19 -10 -39q0 -24 13 -50q4 -7 13 -19h-52l-24 23q-160 149 -395 149h-100q7 79 29 106q43 53 136 53
q62 0 127 -49q35 -35 120 -117l87 -83q-9 71 29 146q65 120 282 120q30 0 87.5 -8.5t84.5 -8.5q127 0 320 113q8 5 25 20v-46z" />
    <glyph glyph-name="ch399" unicode="&#xf7e;" horiz-adv-x="0" 
d="M-367 1966q0 -149 -127 -212q-74 -38 -146 -38q-46 0 -116 57q-99 79 -99 189q0 77 80.5 155t157.5 78q13 1 27 1q80 0 156 -69q67 -59 67 -161zM-491 1926q0 124 -72 166q-39 23 -86 23q-73 0 -73 -123q0 -54 39 -122q44 -77 92 -77q100 0 100 133z" />
    <glyph glyph-name="ch400" unicode="&#xf7f;" horiz-adv-x="709" 
d="M550 1365q0 -89 -93 -174t-183 -85q-23 16 -79 65q-79 78 -79 178q0 63 70 154q73 93 135 93q74 0 151.5 -78t77.5 -153zM566 826q0 -92 -93 -175.5t-185 -83.5q-61 45 -81 66q-79 87 -79 181q0 86 92 173q78 73 120 73q47 0 127 -64q99 -79 99 -170zM446 1311
q0 66 -51.5 123t-117.5 57t-66 -64t42 -131q47 -74 107 -74q86 0 86 89zM461 776q0 66 -52.5 123t-117.5 57q-67 0 -67 -63q0 -61 45 -131q50 -78 107 -78q85 0 85 92z" />
    <glyph glyph-name="ch401" unicode="&#xf80;" horiz-adv-x="0" 
d="M-30 1962q0 -81 -73.5 -155.5t-155.5 -74.5q-24 0 -43 16l-163 120l30 22q72 -57 96 -51q51 13 109 64q67 56 67 102q0 28 -43 60q-36 27 -69.5 35t-45.5 8q-81 0 -175 -69q-19 -21 -79 -73l-311 -276l-104 -100h-64l140 133q24 21 94 136q20 30 73 116q63 66 124 133
q98 87 208 87q151 0 276 -93q109 -80 109 -140z" />
    <glyph glyph-name="ch402" unicode="&#xf81;" horiz-adv-x="4" 
d="M-63 1962q0 -81 -73 -155.5t-156 -74.5q-24 0 -43 16l-162 120l29 22q72 -57 97 -51q50 13 108 64q67 56 67 102q0 28 -42 60q-37 27 -70 35t-47 8q-79 0 -174 -69q-19 -21 -78 -73l-312 -276l-103 -100h-64l140 133q23 21 94 136q19 30 73 116q62 66 123 133
q98 87 208 87q150 0 276 -93q109 -80 109 -140zM28 -276l-63 -32q-91 136 -501 136q17 36 64 74q52 42 85 42l110 -23q68 11 68 123q0 66 -71 105q-55 31 -130 31q-198 0 -198 -86q0 -24 15 -68t16 -59q1 -10 1 -19q0 -51 -47 -85q-44 -32 -98 -32q-20 0 -34 3q14 16 20 23
q24 31 20 51q-14 92 -14 105q4 24 4 36q33 230 345 230h323q0 -21 -61 -58q-33 -19 -33 -32q0 -1 42 -43.5t42 -82.5q0 -67 -68 -106q-83 -48 -85 -52z" />
    <glyph glyph-name="ch403" unicode="&#xf82;" horiz-adv-x="0" 
d="M-197 1932q-81 -276 -294 -276q-118 0 -171 40q-73 56 -133 236h21q59 -76 112 -112q77 -53 173 -53q182 0 266 165h26zM-546 2088q4 33 42 54.5t38 29.5q0 11 -6 26q-19 30 -19 107h25v-45q0 -22 7 -33q39 -22 43 -55q0 -25 -31.5 -47.5t-31.5 -39.5q3 -22 69 -54
q64 -32 64 -93q0 -49 -49 -79q-40 -26 -94 -26q-146 0 -146 99q0 73 76 73q9 -3 23 -16l9 -11q-28 -16 -28 -33q0 -67 64 -67q57 0 58 58q3 34 -53 65q-65 37 -60 87z" />
    <glyph glyph-name="ch404" unicode="&#xf83;" horiz-adv-x="0" 
d="M-187 1952q-41 -103 -169 -218q-136 -123 -236 -123q-87 0 -242 120q-148 114 -186 201l27 34q152 -193 401 -193q103 0 211 61q102 59 161 148zM-375 2071q0 -124 -91 -190q-65 -48 -142 -48q-91 0 -178 86q-71 71 -71 133q0 81 91 152q67 54 177 54q92 0 150 -47
q64 -51 64 -140zM-486 2046q0 56 -60 98q-15 11 -62 35q-34 0 -65 -28q-35 -26 -35 -59q0 -68 36 -123q40 -63 104 -63q82 0 82 140z" />
    <glyph glyph-name="ch405" unicode="&#xf84;" horiz-adv-x="0" 
d="M-129 -311l-36 -24l-342 342l-146 -63v196l169 87z" />
    <glyph glyph-name="ch406" unicode="&#xf85;" horiz-adv-x="1264" 
d="M1083 -358q-85 73 -279 73q-246 0 -246 162q-3 25 -3 37q0 78 58 193q32 60 97 185q28 56 113 293q8 24 33 89q-27 321 -301 377q-40 9 -51 9q-138 0 -138 -110q0 -135 255 -206l-70 -156q-190 81 -230 128q-44 50 -39 201q2 74 65 156q67 89 138 89h129q17 64 17 95
q0 164 -272 164q-233 0 -233 -136q0 -9 5 -27.5t5 -25.5q13 -48 58 -77q5 -3 23 -12l-94 -161q-63 0 -98 61q-30 53 -25 119q0 125 172 284q64 60 174 137l377 -4l12 -78q45 -59 49 -87q9 -20 3 -48q-4 -30 -10 -42q-29 -61 -87 -140q-5 -6 -16 -22q318 -42 318 -389v-45
q-3 -21 -3 -31q-10 -20 -102 -203q-119 -236 -142 -305l-35 -98q-20 -58 -20 -110q0 -131 143 -131q77 0 142 -52q18 -14 55 -55z" />
    <glyph glyph-name="ch407" unicode="&#xf86;" horiz-adv-x="0" 
 />
    <glyph glyph-name="ch408" unicode="&#xf87;" horiz-adv-x="0" 
 />
    <glyph glyph-name="ch409" unicode="&#xf88;" horiz-adv-x="1058" 
d="M965 1051l-41 -78h-796l53 107l289 175l-331 229l56 99h767l-45 -79l-298 -207zM806 1482h-469l239 -158zM762 1080l-242 149l-246 -149h488z" />
    <glyph glyph-name="ch410" unicode="&#xf89;" horiz-adv-x="1058" 
d="M942 1029l-139 -86q58 139 58 263q0 80 -31 156q-41 100 -111 91q-76 0 -125 -75q-15 -37 -15 -81q0 -43 20 -149l-126 -122q-16 140 -36 212q-64 215 -182 215q-30 0 -64 -35.5t-43 -66.5q-13 -40 24 -118q42 -90 42 -121q0 -23 -3 -32q-16 -51 -69 -117q-8 -11 -26 -27
q-70 136 -70 277q0 80 25 129l68 124q13 40 67 76.5t98 36.5q164 0 236 -214l17 62l39 87q46 69 140 69q71 0 105 -23q29 -20 76 -85q68 -101 68 -237q0 -102 -43 -209z" />
    <glyph glyph-name="ch411" unicode="&#xf8a;" horiz-adv-x="0" 
 />
    <glyph glyph-name="ch412" unicode="&#xf8b;" horiz-adv-x="1058" 
d="M1005 1466l-47 -104q-17 91 -126 91q-73 0 -113 -42q-7 -40 -7 -62q0 -88 47 -197q18 -44 47 -85l-58 -111q-129 60 -262 60q-72 0 -133 -17q-19 -3 -49 -20l46 120l48 30l45 96q18 71 18 92q0 24 -7 34q-52 106 -189 106q-84 0 -142 -69q-4 -14 -4 -42q0 -136 126 -201
l-70 -126q-55 26 -90 101q-33 66 -33 135q0 40 16 84l51 105q64 135 195 135q124 0 191 -119q29 -49 29 -89q0 -39 -29 -99l-59 -129q59 2 88 2q77 0 162 -42q-47 139 -47 173q0 51 24 102l54 110q43 91 154 91q109 0 124 -113z" />
    <glyph glyph-name="ch413" unicode="&#xf90;" horiz-adv-x="0" 
d="M-118 798l-16 -210v-823h-50v232q0 317 -29 450q-46 205 -143 205h-97v-583h-33q0 140 -34 298l-29 134q-17 76 -47 116q-3 8 -26 35h-96q-7 -10 -11 -25q-32 -93 -99 -279q-22 -49 -46 -69q-56 -49 -143 -49l47 172q21 7 57 23q58 31 88 87l51 140h-41q-26 0 -35 72
q0 23 -3 74h735z" />
    <glyph glyph-name="ch414" unicode="&#xf91;" horiz-adv-x="0" 
d="M-73 798l-16 -169v-551h-37q-99 89 -172 123q-91 42 -212 42q-41 8 -102 0q-44 -7 -97 -16q0 66 42 143q37 68 75 135q7 15 51 124h-191q-187 0 -187 -479v-232h-49v673l72 207h823zM-149 243l-5 92q-14 190 -144 294h-92q-53 -9 -115 -99q-48 -72 -71 -141
q143 0 212 -20q58 -17 129 -63q53 -34 86 -63z" />
    <glyph glyph-name="ch415" unicode="&#xf92;" horiz-adv-x="0" 
d="M-99 798l-22 -156v-785h-60v285q0 510 -155 510h-103v-548h-27q-136 185 -336 185h-152q0 98 25 119q0 107 39 159q40 40 75 85h-38q-25 34 -25 72q0 28 13 52q4 4 15 22h751zM-482 205l-26 201q-33 246 -143 246h-74q-130 -84 -130 -190q0 -13 2 -23q115 0 184 -24
q62 -22 149 -149q16 -24 38 -61z" />
    <glyph glyph-name="ch416" unicode="&#xf93;" horiz-adv-x="0" 
d="M-99 798l-22 -156v-785h-60v285q0 510 -155 510h-103v-548h-27q-136 185 -336 185h-152q0 98 25 119q0 107 39 159q40 40 75 85h-38q-25 34 -25 72q0 28 13 52q4 4 15 22h751zM-482 205l-26 201q-33 246 -143 246h-74q-130 -84 -130 -190q0 -13 2 -23q115 0 184 -24
q62 -22 149 -149q16 -24 38 -61zM-88 -469q0 -52 -80 -190q-30 -51 -83 -129h-47l77 164q23 48 23 93q0 107 -105 152q-40 16 -81 16q-96 0 -119 -47l44 -65l89 -143h-43q-55 57 -93 87q-109 79 -232 88l-232 17q23 54 46 72l56 47l63 147q-21 9 -29 16q-44 30 -39 71
q2 16 5 32h771q0 -42 -8 -59q-22 -60 -106 -60h-301q-136 0 -223 -67q-27 -20 -60 -69q13 0 38 3t39 3q23 -3 33 -3q49 -9 100 -47q16 -9 42 -37q39 47 53 60q69 64 143 64q153 0 213 -73q37 -45 46 -143z" />
    <glyph glyph-name="ch417" unicode="&#xf94;" horiz-adv-x="0" 
d="M-89 -152l-110 107q-70 68 -172 105q-58 21 -143 44q-37 9 -156 9h-80q-97 0 -165 -22q-16 -5 -47 -22q-20 54 -16 77q4 24 16 50q2 5 13 22l21 221q0 70 36 149q10 23 37 64h-64q-30 0 -40 72q0 23 -3 74h770q0 -58 -4 -74q-13 -72 -88 -72h-359q-120 0 -167 -78
q-35 -61 -35 -191v-91l223 -7q149 -4 221 -48q58 -33 166 -161l146 -171v-57z" />
    <glyph glyph-name="ch418" unicode="&#xf95;" horiz-adv-x="0" 
d="M-153 285q-7 -54 -31 -99q-42 -78 -57 -126q-50 -165 -248 -165q-100 0 -183 33q-44 19 -79 62q-33 39 -93 146q-34 61 -46 91q-28 65 -93 140q-40 46 -94 91l54 54q58 -89 236 -112q38 -5 66 -5q109 0 109 101q0 17 -3 39q-8 51 -29 72q-40 42 -117 42h-60q-57 0 -76 72
q-3 23 -7 77h675v-45q-18 -101 -127 -101h-187q29 -51 29 -74q0 -26 -9 -66q41 7 64 7q94 0 195 -69q111 -74 111 -165zM-286 97q25 47 25 89q0 52 -58 109q-46 44 -106 73q-80 37 -143 38q-23 -19 -34 -23q-47 -33 -83 -38q-70 -11 -89 -8q-13 1 -13 8q20 -36 49 -83
q66 -106 103 -175q28 -50 163 -50q154 0 186 60z" />
    <glyph glyph-name="ch419" unicode="&#xf96;" horiz-adv-x="0" 
d="M-193 408q0 54 -93 88q-72 26 -137 26q-72 0 -120 -28q9 -34 35 -88q100 -131 215 -131q100 0 100 133zM-615 474q-32 9 -106 23q-118 23 -136 15q-85 -44 -85 -106q0 -107 165 -107q101 0 155 112q7 19 7 63zM-429 688q-98 0 -98 -34l-12 -76l164 39q14 3 42 3
q86 0 147 -48q65 -53 65 -136q0 -247 -219 -247q-112 0 -183 57q-24 19 -49 60q-24 -39 -46 -60q-65 -60 -137 -53q-262 0 -262 252q0 169 227 169h39q26 -7 40 -7q32 0 83 -22q5 -3 23 -13l-7 77q-3 39 -64 39h-145q-63 0 -63 119v21q0 9 3 14h661q-9 -71 -27 -102
q-31 -52 -79 -52h-103z" />
    <glyph glyph-name="ch420" unicode="&#xf97;" horiz-adv-x="0" 
d="M-53 -228l-36 -3q-184 203 -218 225q-101 66 -253 97q-81 16 -282 16h-123q0 9 -2 33q-3 46 31 90q6 6 21 20q15 112 73 341q13 32 26 63l-29 4q-38 0 -38 102v23q0 8 3 15h715q7 -54 0 -77q-18 -65 -90 -65q-9 0 -20 2h-304q-90 -18 -155 -67q-21 -16 -48 -69l-14 -28
h484q0 -105 -46 -105h-468l-29 -123h52q207 0 321 -38q160 -52 254 -195z" />
    <glyph glyph-name="ch421" unicode="&#xf99;" horiz-adv-x="0" 
d="M-235 182l-173 -417h-44l64 172q34 92 59 220q5 18 8.5 40.5t3.5 45.5q0 72 -50 159q-78 133 -218 146q-38 -25 -64 -51q-67 -63 -67 -105q0 -38 43 -57l120 -85q23 -29 23 -74q0 -43 -14 -75q-94 30 -187 85q-124 74 -124 129l10 64l266 270q29 48 29 75q0 45 -96 74
h-72q-158 0 -158 -94q0 -46 34 -93l20 -20l-114 -117q-55 43 -55 121q0 101 111 222q40 43 117 100h349v-80q0 -89 -51 -147q-3 -6 -16 -16q269 -72 269 -336q0 -72 -23 -156z" />
    <glyph glyph-name="ch422" unicode="&#xf9a;" horiz-adv-x="0" 
d="M-41 750q-17 -20 -49 -62q-43 -61 -164 -252q-26 -42 -92 -147q-9 -15 -29 -62l-41 -9l51 149q-16 25 -45 44q-55 37 -133 60q-32 10 -69 10q-91 0 -155 -61.5t-64 -153.5q0 -71 44 -153q17 -32 46 -69h-54q-24 27 -79 98q-84 112 -84 203q0 103 100 186q93 76 198 76
q118 0 227 -88q79 -64 100 -57l120 252h-542q-87 0 -119 62q-10 18 -16 66h849v-92z" />
    <glyph glyph-name="ch423" unicode="&#xf9b;" horiz-adv-x="0" 
d="M-83 395l-77 -89h-369q-148 0 -276 -79q-32 -21 -105 -85h-32v592l82 108h736l-20 -58q-9 -20 -43 -44q-4 -3 -13 -6q40 -28 53 -44q35 -34 35 -63q0 -11 -6 -23q-6 -55 -108 -65q5 -4 22 -14q128 -76 121 -130zM-290 737h-500l-12 -49q57 -93 316 -93q53 0 83 6
q57 4 112 25q65 23 65 55q0 25 -64 56zM-153 418q-9 19 -44 43q-89 58 -178 58q-136 0 -304 29q-53 9 -139 30l-19 -53l-23 -126l-11 -90l120 67q75 42 159 42h439z" />
    <glyph glyph-name="ch424" unicode="&#xf9c;" horiz-adv-x="0" 
d="M-184 306h-291q-162 0 -257 -58q-90 -55 -175 -199q-28 -47 -76 -169l-10 -23q-27 -70 -44 -123h-50l106 313q40 116 68 168q47 92 126 177q46 48 195 70q92 12 142 12h167q-25 133 -131 164q-44 14 -233 14h-133q-117 0 -117 114q0 10 3 32h681v-64q1 -10 1 -18
q0 -26 -14 -42q-3 -7 -21 -13q3 -8 11 -28q27 -67 27 -136v-29q0 -10 -4 -13z" />
    <glyph glyph-name="ch425" unicode="&#xf9d;" horiz-adv-x="0" 
d="M-184 306h-291q-162 0 -257 -58q-90 -55 -175 -199q-30 -49 -86 -192q-27 -70 -44 -123h-50l106 313q40 116 68 168q47 92 126 177q46 48 195 70q92 12 142 12h167q-25 133 -131 164q-44 14 -233 14h-133q-117 0 -117 114q0 10 3 32h681v-64q1 -10 1 -18q0 -26 -14 -42
q-3 -7 -21 -13q3 -8 11 -28q27 -67 27 -136v-29q0 -10 -4 -13zM-104 -323q0 -52 -80 -189q-30 -53 -83 -130h-47l77 163q23 49 23 93q0 108 -106 153q-40 16 -80 16q-96 0 -119 -47l44 -66l89 -142h-43q-55 57 -93 86q-109 80 -233 88l-231 18q22 54 45 73l57 46l63 147
q-21 10 -29 15q-44 29 -39 71q1 15 5 32h771q0 -42 -8 -59q-22 -59 -106 -59h-302q-135 0 -222 -67q-27 -21 -61 -70q14 0 39 3.5t38 3.5q24 -3 34 -3q49 -10 99 -46q17 -11 43 -37q39 46 53 60q69 63 143 63q152 0 212 -74q38 -44 47 -142z" />
    <glyph glyph-name="ch426" unicode="&#xf9e;" horiz-adv-x="0" 
d="M-170 838q-7 -33 -11 -54q-37 -115 -142 -115h-190q-93 0 -130 -17q-53 -23 -66 -103l95 29q80 25 140 25q80 0 129 -54q21 -22 94 -130q16 -24 16 -52q0 -108 -182 -176q-33 -16 -93 -16q-168 0 -240 121q-6 13 -26 77q0 7 -6 27q-76 -29 -146 -107q-57 -65 -76 -121
q-39 -117 -51 -284q0 -11 -6 -66h-40l6 174q7 183 49 333q9 37 52 100q21 33 143 94q22 12 56 29v70q0 32 2 37q0 10 -65 10h-51q-43 0 -66 83q-7 24 -13 86h818zM-329 406q0 67 -85 67q-18 0 -45 -5l-48 -7q-54 -11 -199 -42h-10q43 -113 156 -113q54 0 134 25q97 32 97 75
z" />
    <glyph glyph-name="ch427" unicode="&#xf9f;" horiz-adv-x="0" 
d="M-307 850q-5 -21 -5 -33q-17 -83 -66 -110h-471l63 -324q24 33 39 49q111 116 226 116q266 0 266 -302q0 -103 -86 -272l-111 -219h-42l106 245q24 56 24 140q0 78 -28 126l-11 19q-37 65 -58 84q-49 46 -140 46q-56 0 -117 -42q-21 -15 -52 -44l61 -247h-34l-115 310
q-26 60 -87 212q-2 7 -39 113l53 133h624z" />
    <glyph glyph-name="ch428" unicode="&#xfa0;" horiz-adv-x="0" 
d="M-106 842l-13 -138v-568h-39q-57 51 -106 79q-141 81 -315 81h-403q8 68 46 106q14 53 37 85l57 80q-57 28 -57 75q5 23 26 62q-5 8 -14 24q-16 28 -16 41q0 25 27 52q7 5 31 21h739zM-243 645l-21 59h-483q-12 -7 -12 -27q0 -18 9 -32q29 -42 175 -68q54 -10 110 -10
q148 0 222 78zM-186 279l-10 129l-32 156q-129 -77 -316 -77q-66 0 -146 10q-120 0 -149 -33l-28 -56h304q191 0 282 -63z" />
    <glyph glyph-name="ch429" unicode="&#xfa1;" horiz-adv-x="0" 
d="M-137 -235l-44 -3l-83 215q-74 194 -146 254q-84 72 -278 72h-266l12 96v55q0 53 42 150q9 19 22 48h-26q-29 -4 -35 59q-3 24 -6 87h628l-9 -68q-20 -69 -61 -78h-108q-187 0 -230 -14q-107 -32 -132 -164h175q253 0 340 -116q43 -61 142 -384z" />
    <glyph glyph-name="ch430" unicode="&#xfa2;" horiz-adv-x="9" 
d="M9 44l-51 -11q-6 7 -31 38t-62 78q-62 87 -83 110q-60 63 -133 91q-53 19 -159 34q-113 15 -266 15h-43q-56 0 -165 -30q0 32 22 95q4 13 13 31v32q0 17 -3 44q0 26 7 73q14 37 26 53q4 3 4 7q-13 9 -16 17q-18 19 -18 39q-3 19 11 54q4 10 16 28h687q10 -66 -10 -92
q-36 -46 -129 -46h-173q-153 0 -202 -18q-84 -29 -130 -142h266q193 0 302 -86q70 -55 199 -236q48 -66 121 -178zM-201 -226q0 -52 -80 -189q-30 -52 -83 -130h-47l77 164q23 48 23 93q0 107 -106 152q-40 16 -80 16q-96 0 -119 -47l43 -65l90 -143h-44q-55 57 -93 87
q-109 80 -231 88l-233 17q23 54 46 72l56 47l63 146q-20 10 -28 17q-44 28 -39 71q2 15 4 31h771q0 -42 -7 -59q-22 -60 -106 -60h-301q-137 0 -224 -67q-26 -19 -60 -68q13 0 38.5 3t38.5 3q23 -3 34 -3q49 -9 99 -46q16 -10 43 -37q39 46 52 59q69 64 144 64
q152 0 213 -73q36 -45 46 -143z" />
    <glyph glyph-name="ch431" unicode="&#xfa3;" horiz-adv-x="0" 
d="M-128 -235h-56v83q0 338 -130 467q-39 39 -121 71v-38q0 -128 -78 -198q-49 -43 -118 -43q-259 0 -259 222q0 219 255 219h124q-18 104 -111 104h-126q-57 0 -70 49q-3 13 -3 97h605q0 -58 -4 -74q-13 -72 -86 -72h-139q19 -30 19 -55l-9 -56l89 -29q134 -44 183 -237
q35 -141 35 -408v-102zM-505 329v66q-28 7 -67 11h-75q-165 -5 -165 -84q0 -86 177 -86q115 0 130 93z" />
    <glyph glyph-name="ch432" unicode="&#xfa4;" horiz-adv-x="0" 
d="M-158 697q-34 -24 -34 -200v-536h-33q-131 124 -282 221q-195 127 -319 127h-84q-58 0 -110 -13h-25v106l153 250h-39q-34 0 -34 111v35h386q0 -51 -4 -74q-18 -72 -90 -72h-86q-114 -78 -160 -190h64q246 0 387 -147q134 -135 220 -198v301q0 216 -87 293v87h177v-101z
" />
    <glyph glyph-name="ch433" unicode="&#xfa5;" horiz-adv-x="0" 
d="M-114 854v-734h-49q-99 93 -193 139q-151 72 -369 72h-201q-17 20 -25 42q-3 11 -3 22q0 20 16 50q3 10 18 26l118 217q-46 13 -72 49q-7 19 -7 36q0 51 16 81h357q-2 -17 -6 -56q-21 -108 -98 -126q-40 -10 -64 -14q-80 -41 -133 -117q-17 -26 -32 -67h206
q140 127 368 127q18 0 31 3q-8 10 -54 57q-33 35 -33 73q0 26 17 76q10 28 16 44h176zM-190 292v91q0 91 -14 120q-9 22 -73 22q-166 0 -272 -73q169 -38 359 -160z" />
    <glyph glyph-name="ch434" unicode="&#xfa6;" horiz-adv-x="0" 
d="M-170 704q-22 -11 -22 -126v-617h-33q-115 107 -279 182q-178 84 -322 84h-84q-58 0 -110 -15h-25v107l153 333h-23q-40 0 -50 149h807zM-268 146v276q0 151 -143 230h-359q-52 -34 -83 -71q-15 -17 -66 -119l-40 -83h104q238 0 387 -76q80 -42 200 -157z" />
    <glyph glyph-name="ch435" unicode="&#xfa7;" horiz-adv-x="0" 
d="M-170 704q-22 -11 -22 -126v-617h-33q-115 107 -279 182q-178 84 -322 84h-84q-58 0 -110 -15h-25v107l153 333h-23q-40 0 -50 149h807zM-268 146v276q0 151 -143 230h-359q-52 -34 -83 -71q-15 -17 -66 -119l-40 -83h104q238 0 387 -76q80 -42 200 -157zM-169 -453
q0 -52 -79 -189q-31 -52 -84 -130h-46l76 164q23 48 23 93q0 107 -106 152q-40 16 -80 16q-96 0 -119 -47l43 -65l90 -143h-43q-55 57 -92 87q-110 80 -233 88l-233 17q23 54 47 72l56 47l62 147q-20 10 -28 16q-44 30 -39 72q2 15 5 31h771q0 -42 -8 -59q-21 -60 -106 -60
h-301q-137 0 -223 -67q-27 -20 -60 -69q12 0 38 3.5t38 3.5q24 -4 34 -4q49 -9 99 -46q16 -10 44 -37q38 46 53 59q67 64 142 64q152 0 213 -73q37 -45 46 -143z" />
    <glyph glyph-name="ch436" unicode="&#xfa8;" horiz-adv-x="0" 
d="M-141 690q-36 -80 -36 -265v-511h-32q-20 22 -61 67q-144 161 -269 255q-21 16 -79 60q-12 -97 -26 -130q-56 -129 -221 -129q-93 0 -156 50q-70 55 -70 147q0 275 260 275q67 0 102 -15q0 155 -119 155h-52q-51 0 -61 149h475q0 -56 -3 -74q-15 -75 -77 -75h-103l18 -64
l-11 -94q25 0 40 -4q94 -20 173 -119q1 0 132 -175q22 -29 76 -92v230q0 223 -105 362v105h205v-108zM-699 212q0 81 -48 119q-29 22 -124 52q-21 6 -33 6q-89 0 -89 -83q0 -36 35 -72q121 -124 178 -124q81 0 81 102z" />
    <glyph glyph-name="ch437" unicode="&#xfa9;" horiz-adv-x="0" 
d="M29 704q-2 -21 -6 -52q-31 -127 -145 -127q-109 -10 -149 79q-7 10 -7 41q0 39 10 59h-149q-143 0 -143 -55q0 -26 16 -42q109 -32 177 -59q177 -71 175 -112q-4 -94 -53 -186q-57 -114 -246 -114q-85 0 -197 20q-42 6 -98 62q-9 12 -63 74l-212 243l55 32
q38 -43 107 -55l113 -10q14 -1 27 -1q105 0 105 76q0 13 -3 27q-23 100 -125 100h-69q-48 10 -61 103q0 12 -7 43h765q3 -31 3 -43q0 -47 -16 -64q-23 -31 -25 -36q-20 -37 -20 -58q0 -29 36 -26q30 36 94 74zM-278 338q0 31 -44 54q-29 13 -92 40q-136 62 -187 62
q-6 -7 -26 -20q-28 -18 -85 -22l-77 -7q-26 -2 -30 13q25 -33 37 -47q57 -63 133 -129q64 -46 168 -46q66 0 120 17q83 23 83 85z" />
    <glyph glyph-name="ch438" unicode="&#xfaa;" horiz-adv-x="0" 
d="M42 555q-10 -7 -27 -14q-42 -16 -66 -16q-38 0 -67 23q-56 45 -75 106q-3 8 -7 27h-194q-75 0 -85 -2q-50 -9 -50 -52v-149q47 24 87 41q99 37 140 32q235 -27 235 -209q0 -216 -200 -216q-127 0 -231 60q-33 19 -84 64q-28 -39 -46 -54q-65 -56 -174 -70
q-94 -11 -154.5 41.5t-60.5 147.5q3 23 3 33q30 203 216 203q36 0 63 -7l136 -32v85q0 84 -109 84h-94q-63 0 -82 66q-4 19 -6 67h766l-29 -97q0 -65 60 -65q41 0 135 45v-142zM-340 445q-13 3 -24 3h-16q24 0 -125 -37l-6 -66q4 -3 39 -23q91 -52 176 -86q25 -9 51 -9
q45 0 78 35q10 15 10 30q0 45 -69 98q-65 49 -114 55zM-599 348v38q-22 11 -52 22q-74 28 -120 28q-79 0 -139 -50q-32 -27 -28 -51q0 -42 74 -76q66 -29 113 -29q45 0 72 20q80 56 80 98z" />
    <glyph glyph-name="ch439" unicode="&#xfab;" horiz-adv-x="0" 
d="M-18 721l-74 -189q-46 -20 -78 -20q-68 0 -98 46q-13 22 -23 59l39 104h-236q-208 0 -243 -40l-45 -54h418l-53 -115h-408q-7 -10 -7 -15q-13 -19 -13 -29l-22 -36h194q252 0 422 -140q75 -63 147 -116q16 -11 66 -50h-70q-29 23 -74 50q-198 119 -400 130q-36 2 -120 3
q-129 3 -210 -17q-25 -3 -66 -17q-3 29 -5 54q-1 26 2 38q7 19 30 48q6 6 19 24l50 184l21 91q-15 10 -18 14q-34 33 -31 73q2 22 8 41h754q-9 -14 -28 -48q-36 -60 -36 -101q0 -37 38 -51q22 -9 86 35q16 12 64 44z" />
    <glyph glyph-name="ch440" unicode="&#xfac;" horiz-adv-x="0" 
d="M-18 721l-74 -189q-46 -20 -78 -20q-68 0 -98 46q-13 22 -23 59l39 104h-236q-208 0 -243 -40l-45 -54h418l-53 -115h-408q-7 -10 -7 -15q-13 -19 -13 -29l-22 -36h194q252 0 422 -140q75 -63 147 -116q16 -11 66 -50h-70q-29 23 -74 50q-198 119 -400 130q-36 2 -120 3
q-129 3 -210 -17q-25 -3 -66 -17q-3 29 -5 54q-1 26 2 38q7 18 30 48q6 6 19 24l50 184l21 91q-15 10 -18 14q-34 33 -31 73q2 22 8 41h754q-9 -14 -28 -48q-36 -60 -36 -101q0 -37 38 -51q22 -9 86 35q16 12 64 44zM-152 -259q0 -51 -80 -189q-31 -51 -84 -129h-46l77 163
q22 49 22 93q0 108 -106 152q-40 17 -80 17q-96 0 -118 -47l43 -65l90 -144h-44q-55 58 -92 87q-110 80 -233 89l-233 17q23 54 47 72l56 47l63 145q-20 11 -29 17q-44 29 -39 71q2 15 5 31h771q0 -42 -8 -59q-21 -60 -106 -60h-301q-137 0 -223 -66q-27 -20 -60 -69
q12 0 38 3.5t38 3.5q25 -3 34 -3q50 -10 99 -47q16 -9 44 -37q39 47 53 60q67 64 142 64q152 0 213 -73q37 -45 47 -144z" />
    <glyph glyph-name="ch441" unicode="&#xfad;" horiz-adv-x="0" 
d="M-180 -172h-19q-179 172 -386 172v17q43 59 81 106q90 110 149 169l175 172v-636zM-212 -95v478l-136 -143q-39 -42 -63 -77q-3 -6 -13 -21z" />
    <glyph glyph-name="ch442" unicode="&#xfae;" horiz-adv-x="0" 
d="M-134 -304h-36v262q0 104 -22 230q-31 173 -89 192q-18 -27 -36 -42q-54 -45 -109 -45q-18 0 -40 6q-63 19 -83 32q-35 21 -42 72q0 143 87 182q26 11 65 18q85 0 125 -22q12 -6 55 -39q4 16 4 25q0 149 -194 149q-65 0 -95 -16q-168 -94 -168 -226q0 -49 33 -137l9 -22
q8 -31 8 -40q0 -58 -53 -115l-23 -23q0 60 -7 87q-31 87 -37 137q-4 30 -4 67q0 75 90 226q94 160 162 160h360v-49q-7 -49 -32 -49l-14 1q2 -4 13 -36q15 -43 15 -59q0 -37 -28 -115q54 -116 63 -156q23 -95 23 -208v-447zM-307 419q0 57 -136 93q-29 4 -59 8
q-50 0 -50 -43q0 -49 97 -97q34 -16 67 -16q39 0 63 26q8 9 18 29z" />
    <glyph glyph-name="ch443" unicode="&#xfaf;" horiz-adv-x="0" 
d="M-151 789l-16 -115v-694h-30q-139 176 -371 179q-9 0 -23 1h-16q-79 0 -124 -19l-81 -20q17 30 23 42q62 95 129 119q36 11 91 11q102 0 236 -72q52 -26 113 -72v163q-97 87 -214 87h-215q-62 0 -72 82q0 11 -1 39h292q61 0 139 -34q34 -15 62 -34q2 51 0 68
q-16 154 -130 154h-248q-72 0 -92 56q-3 15 -3 59h551z" />
    <glyph glyph-name="ch444" unicode="&#xfb0;" horiz-adv-x="0" 
d="M-118 -1h-29q-60 132 -121 183q-77 68 -207 68h-110q-3 72 31 104q28 30 102 38q103 32 103 157q0 92 -57 120q-36 19 -143 19q-136 0 -169 -13q-72 -25 -72 -131q0 -70 69 -144q26 -38 26 -121v-29q-8 2 -27 7q-109 35 -135 94q-11 27 -11 97q0 93 63 213
q72 137 158 137h388l-16 -87q3 -7 13 -57q15 -64 15 -80q0 -75 -44 -126q-13 -15 -84 -68q60 0 95 -38q54 -59 96 -151q33 -71 66 -192z" />
    <glyph glyph-name="ch445" unicode="&#xfb1;" horiz-adv-x="0" 
d="M-95 358l-178 -195q-214 -232 -445 -232q-189 0 -305 176l-204 308l117 79q62 -54 112 -83q149 -82 329 -82h123q87 0 159 103l57 -37q-104 -142 -216 -142h-107q-103 0 -269 66q-63 26 -136 67l107 -152q45 -66 90 -101q73 -61 155 -86q42 -14 94 -14q162 0 305 149
l212 224v-48z" />
    <glyph glyph-name="ch446" unicode="&#xfb2;" horiz-adv-x="0" 
d="M-89 535v-473h-19l-24 53q-34 74 -252 136q-183 52 -298 52q-105 0 -246 -16q-56 -7 -111 -20l77 130q81 51 260 51q106 0 230 -32q152 -39 208 -101l122 -108v329z" />
    <glyph glyph-name="ch447" unicode="&#xfb3;" horiz-adv-x="0" 
d="M-135 798l-16 -156v-538h-25q-189 178 -418 178q-77 0 -153 -20q-17 -5 -29 -9q-6 11 -6 27q0 18 9 48q25 71 93 94q19 4 23 10q63 32 63 132q0 58 -13 72q-23 25 -102 25q-282 0 -282 -167q0 -58 63 -99q21 -12 67 -28l-48 -131q-52 4 -75 20q-77 51 -77 202
q0 83 83 208q88 132 159 132h379l-12 -121v-99q0 -50 -43 -87q-5 -5 -84 -59q53 -9 113 -29q40 -13 141 -68l113 -82v123q0 148 -39 196q-27 34 -65 42q-19 37 -19 76q0 57 37 94q7 6 20 14h143z" />
    <glyph glyph-name="ch448" unicode="&#xfb4;" horiz-adv-x="0" 
d="M-1198 342h79q24 -7 73 -17q46 -19 136 -110v282q27 194 133 266q36 24 100 31h517l-26 -180v-820h-66q0 131 -29 352q-2 19 -12 81q-56 -63 -79 -81q-94 -80 -178 -80q-88 0 -209 97q-41 33 -101 93v-104l10 -51l44 -251h-35q-8 26 -29 84q-33 82 -82 135
q-80 86 -200 111q-32 6 -107 9zM-810 484q0 -99 108 -194q103 -94 204 -94t159 83q17 27 37 79q0 303 -170 303h-135q-134 -28 -173 -70q-30 -33 -30 -107z" />
    <glyph glyph-name="ch449" unicode="&#xfb5;" horiz-adv-x="0" 
d="M41 189q-75 -3 -107 -9q-119 -25 -198 -111q-51 -53 -84 -135q-8 -22 -30 -84h-33l53 302v104q-59 -60 -100 -93q-121 -97 -209 -97q-84 0 -178 80q-23 18 -81 81l-10 -81q-29 -207 -29 -352h-67v820l-26 180h517q66 -7 101 -31q106 -72 133 -266v-282q89 91 137 110
q48 10 72 17h80zM-408 484q0 74 -28 107q-39 42 -174 70h-137q-168 0 -168 -303q20 -52 35 -79q61 -83 162 -83q100 0 205 94.5t105 193.5z" />
    <glyph glyph-name="ch450" unicode="&#xfb6;" horiz-adv-x="0" 
d="M-82 847l-20 -140v-492h-40l-142 130q-42 54 -223 157l-279 159q-14 -10 -20 -12q-29 -22 -52 -45l-25 -46h54q128 -15 215 -136q54 -76 70 -163q0 -10 3 -25q-44 59 -82 88q-113 89 -260 89h-99q-16 25 -16 44l7 39q7 24 26 41q6 4 22 13l15 66q9 39 25 67q4 5 16 23
q-11 10 -19 17q-22 23 -25 39q-4 7 -4 16q0 23 13 50q3 10 10 21h476q-4 -25 -7 -37q-32 -90 -87 -99q-18 -3 -53 -7l109 -68l116 -85l204 -193v133q0 116 -108 237l-22 119h202z" />
    <glyph glyph-name="ch451" unicode="&#xfb7;" horiz-adv-x="0" 
d="M-229 253q-35 -113 -73 -200q-19 -44 -67 -139l-73 -145h-47l76 172q23 48 64 189q7 36 7 56q0 173 -124 227q-52 23 -102 23q-120 0 -120 -57l37 -70l83 -202l-28 -20q-33 54 -60 83q-79 86 -197 129q-7 4 -224 26l44 77l36 37l116 291h-57q-59 0 -79 74q-3 21 -6 75
h737q-4 -76 -28 -106q-42 -52 -131 -52h-190q-139 -18 -233 -140q-22 -30 -70 -123q56 0 104 -13q33 -4 67 -17q10 -4 29 -13q50 48 82 76q102 81 170 81q113 0 188 -78.5t75 -190.5v-28q-6 -16 -6 -22z" />
    <glyph glyph-name="ch452" unicode="&#xfb8;" horiz-adv-x="0" 
d="M-176 701q0 -29 -10 -87.5t-10 -88.5v-522h-20l-298 451q-12 19 -30 49q-28 46 -96 85q-6 1 -16 7l-53 -90l34 -12q21 -8 31 -12q92 -40 92 -94q0 -72 -88.5 -156.5t-159.5 -84.5q-102 0 -155 95q-45 78 -45 188v91q3 19 3 31q0 44 -5 78l-23 72v81h136v-69l-27 -87
q-29 -89 -29 -187q0 -84 39 -127q26 -28 106 -58q43 -17 73 -17q94 0 92 81q0 22 -21 35q-32 16 -52 27q-29 18 -113 42q-14 1 -39 7l175 240q-37 -4 -52 54q-1 17 -3 59h301q0 -53 -11 -72q-22 -38 -61 -38q38 -58 75 -116q81 -131 97 -164l94 -175v308q0 34 -36 97
q-34 59 -29 88v72h134v-81z" />
    <glyph glyph-name="ch453" unicode="&#xfb9;" horiz-adv-x="0" 
d="M-118 798l-16 -210v-823h-50v232q0 317 -29 450q-46 205 -143 205h-97v-583h-33q0 140 -34 298l-29 134q-17 76 -47 116q-3 8 -26 35h-96q-7 -10 -11 -25q-32 -93 -99 -279q-22 -49 -46 -69q-56 -49 -143 -49l47 172q21 7 57 23q58 31 88 87l51 140h-41q-26 0 -35 72
q0 23 -3 74h735zM31 -263l-61 -189q-13 1 -26 1q-104 0 -191 -68q-33 -25 -67 -85q-8 -16 -26 -55v87l23 82l31 48v79q-57 -54 -98 -82q-115 -84 -208 -84q-64 0 -175 42q-36 15 -104 45q-21 -38 -29 -100q-16 -121 -16 -282h-48v717l83 172h376q51 -13 79 -23
q91 -33 130 -89q49 -70 49 -209v-137q77 100 199 130h79zM-353 -277q0 85 -19 110q-30 40 -97 56h-203q-106 0 -140 -44q-25 -36 -25 -151q28 -34 60 -54q89 -56 188 -56q79 0 147 30q89 41 89 109z" />
    <glyph glyph-name="ch454" unicode="&#xfba;" horiz-adv-x="0" 
d="M106 770q-4 -41 -7 -59q-24 -121 -128 -121q-14 0 -21 1q-55 4 -100 18q-5 0 -22 9q-17 -20 -17 -33q0 -76 123 -76q33 0 53 3l-13 -117q-8 -13 -10 -22q-14 -45 -14 -114v-300h-43q-98 60 -254 105.5t-270 45.5q-68 0 -142 -33h-47v106q49 19 96 105q50 90 83 107
q-17 11 -24 13q-22 17 -26 37q-3 18 0 32q4 15 14 32h69q80 0 80 59q0 28 -24 35q-8 2 -48 2h-91q-118 0 -109 1q-64 -7 -90 -48q-11 -19 -11 -30q0 -13 42 -44t42 -85q0 -33 -16 -60q-3 -5 -17 -19q-109 60 -109 205q0 57 18 92q9 18 61 78q22 25 70 72h255
q129 -38 129 -139q0 -60 -62 -119h272q-20 10 -34 26q-23 27 -23 48q0 22 4 35l63 152q151 -23 163 -23q35 0 105 17q9 0 30 6zM-106 94v100q-9 95 -23 126q-23 59 -86 69h-319q-88 -21 -123 -139q248 0 365 -84q39 -27 120 -53q18 -5 66 -19z" />
    <glyph glyph-name="ch455" unicode="&#xfbb;" horiz-adv-x="0" 
d="M-100 816l-37 -165v-579h-39l-44 44q-47 47 -80 73q-112 90 -215 136q-16 7 -84 29q-23 -56 -46 -82q-73 -83 -208 -83q-110 0 -176 55q-70 59 -70 166q0 47 26 98q4 16 27 53l-31 162q-5 31 17 70q4 7 17 23h169l-10 -126q-42 -33 -62 -57q-68 -76 -68 -152
q0 -156 223 -156q160 0 160 195q0 45 -7 67q-23 77 -89 117l-18 109h263l-37 -123q-47 -57 -47 -107v-59q21 -12 80 -43q94 -49 249 -196q21 -19 40 -36v133q0 43 -19 126q-4 12 -21 75l-89 124l3 109h223z" />
    <glyph glyph-name="ch456" unicode="&#xfbc;" horiz-adv-x="0" 
d="M-28 87h-41q-22 26 -53 62q-147 163 -286 198q-89 22 -196 22h-45q-34 -8 -47 -8q-138 -16 -196 -36q-20 -6 -39 -22l35 161l29 10q43 14 133 42l120 23q29 26 29 52q0 11 -9 29q-39 86 -149 87q-26 -3 -39 -3l-40 -7q-67 31 -67 94q0 33 13 56h725q0 -53 -10 -74
q-32 -73 -140 -73h-164q0 -34 -9 -74q-7 -29 -47 -75q-3 -8 -16 -19q70 -17 85 -23q208 -75 373 -343q5 -9 51 -79z" />
    <glyph glyph-name="ch457" unicode="&#xfbe;" horiz-adv-x="1555" 
d="M1160 1394l-304 -302l300 -291l-100 -97l-298 289l-286 -286l-97 91l293 288l-293 295l101 103l291 -297l299 304z" />
    <glyph glyph-name="ch458" unicode="&#xfbf;" horiz-adv-x="1463" 
 />
    <glyph glyph-name="ch459" unicode="&#xfc0;" horiz-adv-x="1463" 
 />
    <glyph glyph-name="ch460" unicode="&#xfc1;" horiz-adv-x="1463" 
 />
    <glyph glyph-name="ch461" unicode="&#xfc2;" horiz-adv-x="1463" 
 />
    <glyph glyph-name="ch462" unicode="&#xfc3;" horiz-adv-x="1463" 
 />
    <glyph glyph-name="ch463" unicode="&#xfc4;" horiz-adv-x="1463" 
 />
    <glyph glyph-name="ch464" unicode="&#xfc5;" horiz-adv-x="1463" 
 />
    <glyph glyph-name="ch465" unicode="&#xfc6;" horiz-adv-x="1463" 
 />
    <glyph glyph-name="ch466" unicode="&#xfc7;" horiz-adv-x="1463" 
 />
    <glyph glyph-name="ch467" unicode="&#xfc8;" horiz-adv-x="1463" 
 />
    <glyph glyph-name="ch468" unicode="&#xfc9;" horiz-adv-x="1463" 
 />
    <glyph glyph-name="ch469" unicode="&#xfca;" horiz-adv-x="1463" 
 />
    <glyph glyph-name="ch470" unicode="&#xfcb;" horiz-adv-x="1463" 
 />
    <glyph glyph-name="ch471" unicode="&#xfcc;" horiz-adv-x="1463" 
 />
    <glyph glyph-name="ch472" unicode="&#xfcf;" horiz-adv-x="1463" 
 />
    <glyph glyph-name="zeronojoin" unicode="&#x200c;" horiz-adv-x="0" 
d="M355 2409l-80 -80l-217 220v-2805h-115v2805l-218 -220l-80 80l279 273l-279 273l80 79l275 -278l275 278l80 -79l-277 -273z" />
    <glyph glyph-name="zerojoin" unicode="&#x200d;" horiz-adv-x="0" 
d="M58 -256h-115v3012h115v-3012z" />
    <glyph glyph-name="endash" unicode="&#x2013;" horiz-adv-x="1463" 
 />
    <glyph glyph-name="emdash" unicode="&#x2014;" horiz-adv-x="1463" 
 />
    <glyph glyph-name="quoteleft" unicode="&#x2018;" horiz-adv-x="1463" 
 />
    <glyph glyph-name="quoteright" unicode="&#x2019;" horiz-adv-x="1463" 
 />
    <glyph glyph-name="quotesinglbase" unicode="&#x201a;" horiz-adv-x="1463" 
 />
    <glyph glyph-name="quotedblleft" unicode="&#x201c;" horiz-adv-x="1463" 
 />
    <glyph glyph-name="quotedblright" unicode="&#x201d;" horiz-adv-x="1463" 
 />
    <glyph glyph-name="quotedblbase" unicode="&#x201e;" horiz-adv-x="1463" 
 />
    <glyph glyph-name="dagger" unicode="&#x2020;" horiz-adv-x="1463" 
 />
    <glyph glyph-name="daggerdbl" unicode="&#x2021;" horiz-adv-x="1463" 
 />
    <glyph glyph-name="bullet" unicode="&#x2022;" horiz-adv-x="1463" 
 />
    <glyph glyph-name="ellipsis" unicode="&#x2026;" horiz-adv-x="1463" 
 />
    <glyph glyph-name="perthousand" unicode="&#x2030;" horiz-adv-x="1463" 
 />
    <glyph glyph-name="guilsinglleft" unicode="&#x2039;" horiz-adv-x="1463" 
 />
    <glyph glyph-name="guilsinglright" unicode="&#x203a;" horiz-adv-x="1463" 
 />
    <glyph glyph-name="fraction" unicode="&#x2044;" horiz-adv-x="1463" 
 />
    <glyph glyph-name="trademark" unicode="&#x2122;" horiz-adv-x="1463" 
 />
    <glyph glyph-name="partialdiff" unicode="&#x2202;" horiz-adv-x="1463" 
 />
    <glyph glyph-name="product" unicode="&#x220f;" horiz-adv-x="1463" 
 />
    <glyph glyph-name="summation" unicode="&#x2211;" horiz-adv-x="1463" 
 />
    <glyph glyph-name="minus" unicode="&#x2212;" horiz-adv-x="686" 
 />
    <glyph glyph-name="periodcentered" unicode="&#x2219;" horiz-adv-x="223" 
 />
    <glyph glyph-name="radical" unicode="&#x221a;" horiz-adv-x="1463" 
 />
    <glyph glyph-name="infinity" unicode="&#x221e;" horiz-adv-x="1463" 
 />
    <glyph glyph-name="integral" unicode="&#x222b;" horiz-adv-x="1463" 
 />
    <glyph glyph-name="ch505" unicode="&#x2248;" horiz-adv-x="1463" 
 />
    <glyph glyph-name="notequal" unicode="&#x2260;" horiz-adv-x="1463" 
 />
    <glyph glyph-name="lessequal" unicode="&#x2264;" horiz-adv-x="1463" 
 />
    <glyph glyph-name="greaterequal" unicode="&#x2265;" horiz-adv-x="1463" 
 />
    <glyph glyph-name="lozenge" unicode="&#x25ca;" horiz-adv-x="1463" 
 />
    <glyph glyph-name="circledash" unicode="&#x25cc;" horiz-adv-x="1463" 
d="M874 1308h-209v86h209v-86zM874 494h-209v84h209v-84zM402 1045v-205h-82v205h82zM1219 1045v-205h-84v205h84zM580 1276l-146 -147l-56 58l147 148zM1160 697l-147 -146l-59 60l145 145zM434 756l146 -145l-55 -60l-147 146zM1013 1335l147 -148l-61 -58l-145 147z" />
    <glyph glyph-name="apple" unicode="&#xf000;" horiz-adv-x="1463" 
 />
    <glyph glyph-name="fi" unicode="&#xf001;" horiz-adv-x="1463" 
 />
    <glyph glyph-name="fl" unicode="&#xf002;" horiz-adv-x="1463" 
 />
    <glyph glyph-name="hyphen" horiz-adv-x="907" 
d="M759 606h-610v173h610v-173z" />
    <glyph glyph-name="glyph35" horiz-adv-x="474" 
d="M456 943l-45 -115h-386l-9 19l39 113h388z" />
    <glyph glyph-name="Delta" horiz-adv-x="395" 
 />
    <glyph glyph-name="Omega" horiz-adv-x="1558" 
 />
    <glyph glyph-name="approxequal" horiz-adv-x="1463" 
 />
    <glyph glyph-name="ka_ya" horiz-adv-x="0" 
d="M-180 -172h-19q-188 172 -386 172v17l81 106l149 169l175 172v-636zM-212 -95v478l-136 -143l-63 -77l-13 -21z" />
    <glyph glyph-name="kha_ya" horiz-adv-x="0" 
d="M-47 -257q-144 42 -221 35l-113 -9l-103 -35l-32 15l55 124l83 214l80 225l30 -85zM-102 -196l-199 432l-63 -187l-31 -118z" />
    <glyph glyph-name="ga_ya" horiz-adv-x="0" 
d="M-455 66l-3 -17q-225 -82 -321 -280l-37 -14l-39 133q-33 114 -76 219l-91 222l79 -50zM-537 72l-431 190l69 -180l57 -108z" />
    <glyph glyph-name="glyph454" horiz-adv-x="0" 
d="M-158 -175l-22 -3q-127 73 -267 73q-74 0 -113 -13v16l26 66q91 234 183 339l22 26l26 -89zM-208 -114l-121 350l-66 -100q-19 -45 -41 -76l-16 -13z" />
    <glyph glyph-name="glyph455" horiz-adv-x="0" 
d="M-145 -269h-16q-178 177 -389 177v17l120 82q99 68 195 179q28 31 59 87l31 52v-594zM-180 -189v385l-32 -54l-79 -95l-50 -50z" />
    <glyph glyph-name="glyph456" horiz-adv-x="0" 
d="M-271 -593l-13 -4q-111 39 -216 39q-120 0 -209 -42l-38 14l57 126l86 213q18 65 47 142l33 82l27 -85zM-329 -529l-199 431l-66 -187l-20 -73l-9 -47z" />
    <glyph glyph-name="glyph457" horiz-adv-x="0" 
d="M29 -139h19q188 170 388 170v18l-83 107l-149 168l-175 173v-636zM62 -63v478l136 -142l62 -77l14 -21z" />
    <glyph glyph-name="glyph458" horiz-adv-x="0" 
d="M-129 -311l-36 -24l-342 342l-146 -63v196l169 87z" />
    <glyph glyph-name="glyph459" horiz-adv-x="0" 
d="M26 -276l-63 -32q-51 75 -176 109q-101 27 -324 27q15 35 64.5 75.5t84.5 40.5l110 -23q29 0 49 49q17 40 17 74q0 65 -69 103q-59 33 -130 33q-105 0 -156 -20q-43 -24 -43 -66q0 -28 16 -73l15 -57q12 -52 -38.5 -92.5t-104.5 -40.5l-34 3l19 23q21 31 21 51l-6 43
l-9 62l4 36q20 230 346 230h322q0 -18 -60 -58q-30 -19 -32 -32q15 -25 41 -43q41 -37 41 -83q0 -64 -63 -103q-88 -53 -90 -55z" />
    <glyph glyph-name="glyph460" horiz-adv-x="0" 
d="M9 -687l-41 -43q-70 52 -119 81q-104 42 -250 42h-120l49 80q32 36 94 36h103l30 19q17 18 23 60q0 94 -159 94q-220 0 -226 -56q10 -37 16 -51l22 -49q2 -16 2 -30q0 -93 -180 -93l25 30l26 47l-13 48l7 44q15 105 120 164q91 52 204 52h312q-33 -23 -72 -73
q11 -15 36 -46q23 -20 29 -63q0 -50 -33 -80l-102 -53z" />
    <glyph glyph-name="glyph461" horiz-adv-x="0" 
d="M-16 -295q0 -65 -66 -205q-80 -172 -153 -172h-126q-218 0 -325 221l-130 269q-54 113 -172 182l-110 49l37 27l106 -39q88 -32 155 -110l209 -242q24 -25 84 -94q28 -30 73 -75q102 -77 182 -77q60 0 105 44.5t45 104.5q0 133 -116 133q-69 0 -146 -76l25 196l64 26
q75 31 117 31q74 0 111 -63q31 -51 31 -130z" />
    <glyph glyph-name="glyph462" horiz-adv-x="0" 
d="M41 157q0 -47 -69 -140q-114 -150 -288 -150q-92 0 -168 44q-20 9 -63 47q-61 45 -133 118l-96 97q-64 64 -136 100l-72 33l-10 32l58 -13q116 -26 246 -110l216 -139q163 -105 285 -105q123 0 123 98q0 124 -104 124q-57 0 -165 -36l51 185l53 19q58 22 109 22
q62 0 114 -85q49 -77 49 -141z" />
    <glyph glyph-name="glyph463" horiz-adv-x="0" 
d="M9 53q0 -46 -68 -142q-79 -110 -176 -133l-97 -13q-98 0 -189 57q-42 20 -73 55l-289 325q-21 24 -79 57l-83 47l-124 48l-32 7l4 18l55 -3q67 -12 117 -38l119 -63l100 -63l315 -222q127 -126 269 -126q124 0 124 103q0 124 -104 124q-60 0 -159 -38l-17 34
q-19 44 -19 93l2 32l54 300h50l-31 -143l-19 -154l38 21q55 20 152 20q67 0 116 -70q44 -63 44 -133z" />
    <glyph glyph-name="glyph464" horiz-adv-x="0" 
d="M-750 -279q0 -125 -82 -202q-64 -61 -140 -61h-60q-123 0 -174 79q-41 65 -41 197q0 99 26 247l20 120l7 120v48q0 27 -7 53l-24 39h56l17 -92q25 -137 21 -190l-3 -58l-15 -164q-8 -101 34 -195q51 -106 147 -119q61 0 92 86q3 9 3 21q0 39 -26 71q-29 38 -89 44l-37 -6
v149l129 -6q59 -13 99.5 -66t46.5 -115z" />
    <glyph glyph-name="glyph465" horiz-adv-x="0" 
d="M-465 -295q0 -67 -13 -120q-50 -199 -224 -257l-94 -15q-169 0 -259 250l-156 440q-59 125 -112 177l-20 13l36 25l41 -22q24 -15 88 -105q28 -41 96 -166q24 -44 69 -133q102 -217 146 -286q19 -30 55 -48l49 -9q64 0 133 51q57 49 63 88q0 108 -86 108q-49 0 -150 -51
l-52 183l89 22l143 27q64 0 111 -53t47 -119z" />
    <glyph glyph-name="glyph466" horiz-adv-x="0" 
d="M0 -324l-32 -34q-142 136 -388 136h-117l59 99q26 21 83 28h111q59 20 59 98q0 60 -50 91q-60 23 -122 23q-244 0 -249 -70q1 -7 16 -60l20 -66q5 -16 5 -29q0 -51 -58 -77q-46 -21 -103 -21l16 28q19 33 19 51l-9 68l9 83q0 85 132 155q112 57 207 57h323
q-6 -10 -13 -15q-32 -22 -69 -72l45 -58q17 -23 24 -70q0 -71 -65 -109q-76 -43 -78 -48zM45 -584q-14 -102 -134 -179q-109 -70 -218 -70q-206 0 -376 167q-354 348 -488 348v39l113 -23q44 -13 113 -56l438 -279q180 -113 295 -113q137 0 139 97q2 45 -47 110t-92 65
q-27 0 -66 -26l-44 -29v55l70 46q62 43 114 54q79 0 133 -64q49 -61 50 -142z" />
    <glyph glyph-name="glyph467" horiz-adv-x="0" 
d="M-56 -759l-30 -34q-66 34 -126 46q-98 21 -367 21q0 93 127 93h85q89 0 96 63q0 37 -54 66q-60 23 -127 23q-202 0 -209 -57l12 -36l22 -75q0 -84 -159 -84l-3 14l13 9q6 7 13 30q-19 47 -19 99q18 79 133 136q100 49 191 49h323l-77 -78l42 -30q9 -12 16 -54
q0 -46 -52 -75l-78 -29zM-79 -883q-12 -76 -121 -117q-85 -32 -178 -32q-279 0 -362 87q-191 203 -412 203l18 42q17 0 93 -14q47 -7 110 -33l304 -125q238 -97 326 -97q99 0 99 50q0 76 -66 76q-39 0 -83 -16l-27 -10l-17 49l63 25l101 32q63 0 112 -30q48 -38 40 -90z" />
    <glyph glyph-name="glyph469" horiz-adv-x="0" 
d="M-278 1590h-61l-101 100l-145 127l-247 219q-103 72 -177 72l-46 -9q-110 -24 -110 -94q0 -44 64 -99q46 -41 110 -67l55 23l44 28l31 -22l-168 -120q-9 -8 -43 -16q-80 0 -153 75t-73 155q0 56 108 137q127 96 275 96q112 0 209 -84l123 -136l70 -113q65 -107 99 -139z
M-59 2021q0 -122 -86 -188q-66 -50 -142 -50q-83 0 -171 79q-78 71 -78 139q0 92 89 153q62 53 179 53q92 0 148 -47q61 -50 61 -139zM-168 1994q0 54 -60 101l-59 32q-33 0 -65.5 -27t-35.5 -58q0 -60 39 -120q43 -66 101 -66q37 0 61 53q19 44 19 85z" />
    <glyph glyph-name="glyph470" horiz-adv-x="0" 
d="M-82 2065q0 -93 -67 -149q-80 -71 -170 -71q-32 0 -111 58q-100 72 -100 155q0 59 83 127q82 66 144 66q81 0 149 -50q72 -57 72 -136zM-284 1599l-111 108q-134 103 -232 152q-142 72 -338 126l-285 32l69 174h74q35 0 87 -6q196 0 473 -263l263 -249v-74zM-192 2042
q0 79 -51 115q-25 15 -79 15q-25 0 -57 -32.5t-35 -58.5q0 -52 40 -106q42 -56 93 -56q29 0 63 33q19 30 26 90z" />
    <glyph glyph-name="glyph471" horiz-adv-x="0" 
d="M-92 2065q0 -125 -88 -190q-64 -49 -142 -49q-89 0 -175 88q-72 75 -72 135q0 77 88 149q67 53 178 53q88 0 148 -49q63 -52 63 -137zM-268 1599h-54l-59 64q-126 132 -385 256l-206 59l-202 43l57 151l108 -25q102 -22 239 -66q48 -15 133 -106l93 -97zM-488 1602h-46
l-139 71q-149 75 -347 75l-32 2l-122 17l32 149l220 -41q96 -17 204 -95l95 -70zM-202 2042q0 53 -60 99l-60 31q-33 0 -64 -27.5t-34 -59.5q0 -62 36 -121q43 -65 100 -65q82 0 82 143z" />
    <glyph glyph-name="glyph472" horiz-adv-x="0" 
d="M262 2244l-201 -205q-67 -69 -210 -96q-229 -44 -233 -44q-126 -41 -178 -149l-13 -63q0 -45 16 -88l10 -20h-83l-113 61q-45 35 -67 40l-129 32l-52 7l-61 4l-82 -4q-28 -1 -37 -7l-73 -5l-83 -4h-37q0 57 24 106q57 110 155 110q74 0 136 -19q50 -15 160 -80l249 -150
l-3 40q-2 31 13 76l39 113q72 146 161 193q33 17 171 39h79l58 -4q50 -2 97 7l102 41l69 43l48 30zM-563 2078q0 -121 -90 -188q-65 -51 -143 -51q-89 0 -176 84q-73 71 -73 133q0 84 91 155q69 53 178 53q89 0 148 -49q65 -51 65 -137zM-673 2052q0 53 -61 98l-62 35
q-26 0 -53 -16q-38 -31 -43 -70q0 -62 37 -121q42 -65 99 -65q83 0 83 139z" />
    <glyph glyph-name="glyph473" horiz-adv-x="0" 
d="M3 2078l-152 -179q-40 -27 -94 -40l-112 -10l-92 3q-26 2 -94 7q-79 3 -112 -54l-33 -57l-30 -6l-77 61l-74 40q-25 9 -82 9l-166 -19l4 39q19 97 129 97q83 0 163 -72l103 -94l4 14q14 27 59 70q116 130 286 130h86q4 1 91 18t172 83l27 23zM-73 1789q-13 -30 -40 -57
l-52 -42l-31 -20q-59 -23 -126 -23q-43 0 -143 23l-104 23q-24 0 -35 -13l-13 -26l-4 -17q0 -21 11 -31l9 -10h-76l-54 31q-33 19 -95 36l-102 14l-54 -4h-47l-102 -17q10 54 27 73q43 74 136 74h40l67 -10l61 -45l130 -92l3 51q3 35 58 67q49 30 88 29l113 -4l124 -6l62 3
q72 16 143 66q23 15 47 41l23 23zM-510 2105q0 -88 -91 -143q-67 -40 -136 -40q-78 0 -147 54q-75 58 -75 135q0 153 241 153q208 0 208 -159zM-633 2085q0 56 -50 97l-54 22q-69 0 -89 -70q-2 -10 -2 -23q0 -47 32 -85q42 -44 90 -44q31 0 53 36q20 33 20 67z" />
    <glyph glyph-name="glyph474" horiz-adv-x="0" 
d="M-793 2021q0 -92 -65 -149q-80 -69 -174 -69q-95 0 -153.5 56.5t-58.5 151.5q0 84 72 143q66 53 152 53q121 0 165 -32q62 -47 62 -154zM-28 1962q0 -81 -74 -155.5t-157 -74.5q-18 0 -39 16l-167 120l31 22l39 -28q33 -23 60 -23q51 10 110 61q67 58 67 105q0 29 -38 57
l-75 40l-48 6q-70 0 -172 -69q-36 -26 -78 -73l-318 -276l-101 -100h-60l136 133l96 136l73 116l120 133q95 87 212 87q147 0 273 -93q110 -81 110 -140zM-909 1994q0 101 -46 124q-20 9 -84 9q-22 0 -53.5 -32t-34.5 -56q0 -54 39 -107q42 -57 94 -57q71 0 85 119z" />
    <glyph glyph-name="glyph475" horiz-adv-x="0" 
d="M-2 2232l-178 -133q-58 -63 -247 -102q-164 -35 -190 -116l-10 -64q0 -77 26 -130l28 -56h-31l-79 79q-137 136 -239 193q-125 69 -293 69h-67q47 60 78 90q102 92 175 92q107 0 187 -108q68 -190 149 -263l36 -33l-23 46q-22 69 -22 123q0 196 142 231l179 22l138 23
l218 69z" />
    <glyph glyph-name="glyph483" horiz-adv-x="1194" 
d="M1089 1583l-43 -218v-1328h-19l-25 54q-27 56 -211 122t-338 66q-150 0 -247 -17q-54 -4 -110 -19l76 130q53 33 117 38l142 14q112 0 233 -32q130 -33 207 -101l121 -110l-3 651q0 91 -33 358q-51 234 -142 234h-133v-737h-33v85q-7 27 -7 41q0 119 -58 354l-61 257
h-156l-11 -44l-82 -285q-42 -141 -121 -176q-37 -17 -95 -24l50 203q81 38 90 53l49 89l49 137l10 47h-62q-33 25 -33 92v37q2 23 7 29h872z" />
    <glyph glyph-name="glyph484" horiz-adv-x="1228" 
d="M1108 1583l-22 -158v-1388h-20l-23 54q-24 55 -136 111q-134 67 -282 67q-144 0 -236 -29l-97 -31l44 164q22 14 102 35l133 14l103 -11q55 0 136 -35q36 -16 116 -70l101 -104v421q-44 85 -136 150q-131 90 -293 90h-192l2 91q1 39 39 56l88 222l113 193h-233
q-132 0 -193 -296q-39 -188 -39 -412v-740h-60v1425l90 181h895zM1033 794v130q0 183 -22 274q-34 144 -140 227h-126l-45 -60l-102 -152q-34 -52 -50 -124l-16 -73h23l43 3q48 3 102 -7q141 -9 240 -103q42 -40 93 -115z" />
    <glyph glyph-name="glyph485" horiz-adv-x="1228" 
d="M1108 1583l-19 -169v-1377h-23l-23 54q-32 73 -254 135q-187 53 -301 53q-156 0 -245 -17q-48 -3 -107 -19l77 130q51 33 117 38l142 14q303 0 438 -133l117 -116v657q0 219 -29 342q-49 219 -181 250h-143v-802l-91 117q-119 153 -333 153h-170l-3 47l3 53q5 19 23 29
l43 213q25 117 83 190h-42q-35 32 -35 82q0 28 7 44l13 32h936zM618 870v133q0 118 -39 246q-53 176 -145 176h-91q-100 -116 -137 -223q-19 -56 -19 -135l79 -10q98 0 183 -38q74 -32 134 -107z" />
    <glyph glyph-name="glyph486" horiz-adv-x="1134" 
d="M989 33h-39l-31 68q-45 95 -198 142q-115 36 -252 36q-122 0 -226 -17q-65 -5 -103 -16l59 121q67 61 266 61q207 0 377 -153l91 -79v149q0 246 -195 439q-180 179 -386 179h-256l24 110l3 72q2 45 13 68q12 47 61 171l20 41h-23q-33 2 -35 57l-3 101h773q0 -53 -12 -79
q-30 -79 -110 -79h-117q-429 0 -496 -286h104q358 0 542 -246q149 -201 149 -485v-375z" />
    <glyph glyph-name="glyph487" horiz-adv-x="1204" 
d="M1143 648q-19 -98 -100 -242q-18 -33 -77 -131l46 -77l67 -86l-60 -3l-93 89q-72 71 -246 108q-137 29 -272 29q-77 0 -245 -16q-76 -7 -144 -21q18 37 30 61q40 69 93 115q60 21 280 21q187 0 334 -67q72 -31 163 -99q27 48 44 93q47 118 47 192q0 145 -76 270
q-88 145 -224 145q-236 0 -236 -112q0 -108 223 -183l-106 -139q-163 71 -216.5 123t-53.5 134q0 99 119 189q108 81 185 81h135q14 43 14 86q0 199 -296 199q-216 0 -216 -93q0 -46 38 -99q22 -30 22 -56q1 -8 1 -16q0 -37 -25 -91q-6 -20 -29 -60q-146 100 -146 209
q0 102 162 252q58 53 163 130h538q3 -23 3 -37q0 -63 -47 -112q-6 -11 -25 -27l16 -96q-38 -76 -93 -149q-6 -8 -19 -26q334 -75 334 -369v-70q-5 -21 -12 -49z" />
    <glyph glyph-name="glyph488" horiz-adv-x="1031" 
d="M903 1446q-8 -20 -40 -45q-8 -6 -30 -23q8 -19 21 -46q19 -56 19 -108q0 -39 -7 -59q-1 -5 -1 -11q0 -10 5 -18q28 -45 30 -51q7 -21 7 -40q0 -26 -14 -59h-276q-184 0 -282 -63q-68 -44 -130 -143q-53 -87 -53 -213q70 30 133 30q112 0 233 -66q95 -51 139 -109
l164 -156v-64q-226 220 -532 220q-119 0 -282 -23q-31 -6 -68 -14q19 21 28 33q70 74 133 121q0 251 56 397q38 61 61 90q75 96 154 119q51 20 273 20h104q38 0 55 -3l-19 79q-56 86 -71 97q-49 40 -172 40h-305q-97 0 -130 103q-10 30 -17 102h768q22 -29 29 -46
q30 -55 17 -91z" />
    <glyph glyph-name="glyph489" horiz-adv-x="1041" 
d="M821 1583q62 -16 62 -74q0 -40 -29 -72q-5 -4 -28 -23q34 -36 51 -63q48 -80 36 -130q-9 -34 -41 -65q-35 -34 -69 -34q18 -14 23 -23q51 -54 84 -100q12 -18 19 -56l10 -60l-26 -46v-635h-20l-23 50q-44 75 -256 127q-175 44 -295 43l-292 -4q40 50 81 100q54 57 105 64
q56 9 109 9q97 0 210 -36q178 -59 298 -153q15 -13 36 -33v394q-76 43 -202 43h-120q-119 0 -235 -50q-42 -17 -96 -52h-73v710l82 169h599zM740 1414h-428v-70q31 -139 259 -139q108 0 173 40q59 36 59 80q0 43 -63 89zM860 933q1 8 1 16q0 58 -94 108q-54 28 -79 28
q-139 0 -282 60q-44 17 -121 63l-19 -105l-33 -140l-7 -133l133 59q21 11 59 28q44 16 90 16h352z" />
    <glyph glyph-name="glyph490" horiz-adv-x="1158" 
d="M982 30l-235 133q-46 26 -151 49q-81 18 -174 18q-143 0 -223 -21l-86 -23l46 136q37 23 114 45l129 16q279 0 391 -130l37 126l32 146l16 156q1 22 1 43q0 116 -60 210q-68 108 -217 108q-70 0 -158 -95l-73 -100l82 -262h-58l-33 115q-27 90 -70 205l-192 520l52 158
h821l-3 -79q-16 -79 -83 -79h-618l83 -505q67 96 111 144q132 145 241 145q282 0 282 -352q0 -226 -99 -512l-47 -136l142 -112v-67z" />
    <glyph glyph-name="glyph491" horiz-adv-x="1194" 
d="M1073 1583l-27 -162v-1384h-19l-25 54q-27 56 -211 122t-338 66q-150 0 -247 -17q-54 -4 -110 -19l76 130q53 33 117 38l142 14q112 0 233 -32q143 -37 207 -101l115 -119v196q-57 94 -106 147q-138 145 -285 145h-130l-122 -3q-77 -2 -117 -16l-106 -38l-3 38l9 65
l30 46l16 89q11 67 24 90t60 71l49 48q-35 0 -70.5 32.5t-43.5 66.5t-8 63q0 72 60 155l39 53h-23q-22 0 -30 51l-10 111h854zM900 1332l-9 93h-525q-61 -48 -68 -105q0 -56 85 -107q72 -46 121 -51q23 -10 94 -10q266 0 302 180zM986 502l-16 248l-23 260l-34 219
l-112 -103q-143 -107 -262 -107l-70 10q-9 1 -20 1q-91 0 -180 -125q-31 -43 -31 -72v-42l89 13l126 13h134q58 0 160 -73q85 -61 121 -102z" />
    <glyph glyph-name="glyph492" horiz-adv-x="1058" 
d="M877 273q-6 95 -14 170q-18 184 -44 245q-50 111 -209 275l-14 -116q-25 -230 -275 -230q-107 0 -190 78t-83 184q0 113 53 214q82 164 227 164q22 0 35 -2l168 -26q-38 196 -266 196h-48q-76 0 -98 79q-8 23 -10 79h723q0 -77 -16 -105q-32 -53 -89 -53h-145
q12 -20 14 -35q16 -35 17 -70l3 -107q25 -10 48 -22q59 -36 98 -85q116 -150 155 -302q29 -106 29 -299v-740l-60 2q-30 19 -80 49q-58 34 -139 84q-157 79 -409 79q-110 0 -245 -14q-52 -5 -112 -16q9 27 20 47q61 105 158 154h203q135 0 229 -37q55 -21 122 -72l244 -185
v417zM527 936v63q-84 41 -121 55q-71 29 -129 38q-56 8 -99 -23.5t-43 -86.5q0 -28 20 -55q36 -54 59 -73q13 -14 107 -63q35 -25 77 -25q129 0 129 170z" />
    <glyph glyph-name="glyph493" horiz-adv-x="1188" 
d="M1068 1491l-22 -152l-3 -139v-1156l-20 -4l-28 54q-39 76 -248 134q-180 51 -294 51q-150 0 -247 -17q-54 -4 -110 -19l76 130q53 33 117 38l142 14q112 0 233 -32q129 -33 207 -101l115 -103v336q-183 192 -258 248q-163 120 -353 120h-149q-23 0 -77 -33h-32l39 169
l167 398h-44q-38 -8 -41 74l-2 82h429q0 -36 -7 -53q-12 -53 -49 -96q-20 -22 -117 -53q-129 -43 -210 -226l-26 -82l-6 -28h93q300 0 427 -95l216 -226v384q0 133 -69 286q-17 39 -46 90v99h197v-92z" />
    <glyph glyph-name="glyph494" horiz-adv-x="1190" 
d="M1076 1427l-24 -100l-6 -82v-1208h-19l-25 54q-27 56 -211 122t-338 66q-150 0 -247 -17q-54 -4 -110 -19l76 130q53 33 117 38l142 14q112 0 233 -32q145 -38 207 -101l115 -99v365q-150 167 -270 240q-153 95 -341 95h-149q-23 0 -77 -33h-32l32 156l174 411h-44
q-38 -8 -41 74l-2 82h840v-156zM986 740v253q0 174 -71 327q-24 51 -59 105h-377q-66 -41 -108 -121l-73 -139l-48 -108h93q227 0 347 -54q33 -14 296 -263z" />
    <glyph glyph-name="glyph495" horiz-adv-x="1208" 
d="M1128 1475q-36 -38 -52 -91l-14 -108v-1239h-35l-25 54q-27 56 -211 122t-338 66q-150 0 -247 -17q-54 -4 -110 -19l76 130q53 33 117 38l142 14q112 0 233 -32q145 -38 207 -101l136 -106v206l-5 92q-6 103 -32 130l-184 180q-80 78 -155 126l-92 59l5 -59
q0 -259 -255 -259q-104 0 -177.5 68t-73.5 170q0 213 104 288q70 51 208 51h61q-28 95 -52 130q-43 57 -123 57q-40 0 -53 53l-5 105h529l-3 -79q-16 -79 -79 -79h-54q-43 0 -67 -44q-16 -42 -16 -96v-33l4 -20l95 -35q95 -51 164 -140l120 -158l121 -165v398
q0 129 -16.5 224t-68.5 110v117h221v-108zM460 840q0 99 -19 130q-33 53 -149 94l-39 5q-113 0 -113 -96q0 -27 16 -53q33 -51 63 -73l70 -49q38 -29 82 -29q73 0 89 71z" />
    <glyph glyph-name="glyph496" horiz-adv-x="1190" 
d="M1076 1437l-24 -102l-6 -90v-1208h-19l-25 54q-27 56 -211 122t-338 66q-150 0 -247 -17q-54 -4 -110 -19l76 130q53 33 117 38l142 14q112 0 233 -32q145 -38 207 -101l115 -99v362q-162 152 -251 208q-162 100 -357 100h-149q-23 0 -77 -33h-32l20 176l183 421h-54
q-36 -6 -36 80v40q0 23 5 36h430q0 -36 -7 -53q-11 -53 -49 -96q-19 -22 -117 -53q-80 -27 -140 -116l-54 -117l-48 -132h90l142 -4q76 96 208 159l254 121q0 51 -18 79q-6 26 -58 89l3 123h199zM986 693v227l-7 251l-153 -39q-161 -60 -231 -150l82 -32q89 -35 127 -67
q91 -77 136 -133z" />
    <glyph glyph-name="glyph497" horiz-adv-x="1208" 
d="M877 849q19 40 19 77q0 30 -50 90q-38 57 -122 103t-153 46q-20 -13 -32 -20q-58 -29 -133 -36q-21 -1 -28 -1q-47 0 -47 20q46 -98 199 -265q84 -93 200 -93q107 0 147 79zM907 1579v114l-44 189l70 -30q74 -30 113 -30q50 -7 116 37q9 6 30 23q3 -30 3 -49
q0 -73 -20 -110q-34 -63 -109 -63h-93l-17 -77h73q3 -63 -3 -90q-23 -86 -123 -75h-250v-107q92 -31 208 -106q145 -94 145 -159l-52 -206v-635h-35l-23 47q-38 76 -152 119q-147 55 -385 54l-326 -3q34 54 107 134q45 32 155 32q74 0 127 -3q98 -7 201 -36q130 -37 180 -91
l104 -76v408q-49 -139 -210 -139q-49 0 -116 15l-117 25q-50 13 -85.5 56.5t-104.5 165.5q-23 42 -55 97q-5 7 -83 121q-49 71 -109 133l46 31q33 -49 138 -88q96 -36 164 -36q65 0 116 35q60 39 50 102q-8 55 -91 90q-67 29 -131 29q-109 23 -109 110q0 31 9 46z" />
    <glyph glyph-name="glyph498" horiz-adv-x="1098" 
d="M904 947q-1 -51 -36 -86t-85 -35q-47 0 -99 30q-66 38 -83 54q-43 40 -43 101v117q53 44 110 44q54 0 119 -44q121 -63 117 -181zM478 1006q-9 -87 -14 -106q-19 -66 -77 -66q-17 0 -37 6q-89 23 -126 44q-83 45 -83 138q0 62 54 95q22 14 65 14q116 0 223 -75zM954 877
q34 103 34 191q0 94 -57.5 161.5t-150.5 67.5q-43 0 -73 -16l-149 -78q8 20 9 35q13 56 6 109q-3 23 -22 70l-12 35h303q49 0 60 67q2 13 2 64l9 59h75q83 0 109 91q6 30 6 90q-28 -17 -45 -25q-49 -24 -81 -24q-60 0 -148 49l35 -167v-73h-716q0 -127 55 -127h171
q74 0 109 -112q11 -34 19 -109l-143 41q-28 8 -61 8q-101 0 -163.5 -64.5t-62.5 -167.5q0 -126 51 -230q60 -130 175 -130q93 0 157 72q22 23 42 68q40 -50 65 -70q82 -69 182 -69q25 0 53 6q49 12 110 85v-418l-104 76q-50 54 -180 91q-103 29 -201 35q-53 4 -127 4
q-110 0 -155 -33q-24 -16 -56 -61q-26 -37 -51 -72l326 2q238 2 385 -53q114 -43 152 -119l23 -47h35v685v3z" />
    <glyph glyph-name="glyph499" horiz-adv-x="1173" 
d="M1079 49h-39l-37 40q-69 75 -259 136q-173 54 -292 54q-105 0 -247 -17q-56 -7 -109 -20l77 129q79 54 258 54q112 0 253 -36q166 -43 226 -107l-80 133q-25 76 -162 140q-113 54 -213 65q-78 11 -233 11h-66q-103 0 -103 -11q-4 28 -4 40q0 48 11 70l33 73
q14 117 47 352q10 74 23 113q25 81 42 157h-32q-27 21 -31 68l-6 90h777v107l-43 186l69 -31q75 -30 117 -30q37 0 92 30q14 9 51 31q0 -75 -7 -104q-25 -102 -133 -102h-86l-10 -87q0 -56 -4 -72q-15 -77 -93 -86h-367q-17 -3 -44 -7q-99 -27 -146 -90l-60 -123h557
q4 -30 4 -43q0 -130 -100 -130h-512l-12 -202h25q15 0 41 3q304 0 458 -83q115 -61 167 -189z" />
    <glyph glyph-name="glyph500" horiz-adv-x="1267" 
d="M1119 1603q0 -111 -27 -150q-56 -79 -129 -79q-25 0 -93 27q-13 5 -28 13q-16 -39 -16 -70q0 -63 66 -96q50 -27 120 -27q4 -22 7 -53q3 -28 0 -43q-3 -14 -24.5 -39.5t-21.5 -36.5l-3 -832h-20l-24 49q-42 71 -254 119q-171 38 -294 37l-315 -4q83 102 118 125
q56 37 164 37q100 0 220 -30q142 -35 199 -92l165 -113l-3 133q-69 83 -142 145q-155 133 -303 133q-36 4 -50 4q-65 0 -158 -16q-17 0 -44 -10q-10 16 -10 22q-9 30 -6 50q0 20 20 50q5 7 19 23q84 67 98 80q27 31 61 107l-59 9q-7 10 -7 37q0 40 33 87q4 6 17 19
q92 0 106 4q47 15 47 79q0 78 -51 95q-20 8 -122 8q-103 0 -119 -3q-63 -14 -63 -79q0 -44 34 -65q39 -23 42 -36q13 -47 -27 -113q-2 -3 -23 -33q-96 52 -96 177q0 18 5 53t5 52q0 66 93 177q17 21 43 45h242q79 -84 103 -118q39 -56 39 -104q0 -60 -62 -136h251
q-10 8 -25 17q-58 38 -62 94q-2 25 -2 46l87 225q20 -5 56 -13q77 -16 97 -16q58 0 126 29zM910 667l-14 163q-1 51 -8 140q-9 52 -22 96h-374l-67 -91q-24 -34 -43 -73q225 0 308 -56q104 -70 187 -149q16 -16 33 -30z" />
    <glyph glyph-name="glyph501" horiz-adv-x="1321" 
d="M974 292q-137 133 -437 133l-143 -14q-65 -5 -117 -38l-76 -130q58 16 107 19q90 17 246 17q113 0 300 -53q221 -62 253 -135l23 -54l26 1v1380l43 126v39h-201q-8 -9 -12 -23q-13 -38 -13 -72q33 -98 63 -139q14 -47 23 -92q21 -118 21 -294v-302l-85 123
q-88 131 -135 189q-53 62 -125 172q-25 37 -67 103v69q0 15 -3 34q0 60 48 113q26 71 32 119h-227q-15 -13 -17 -23q-13 -26 -13 -59v-19q0 -16 7 -29q92 -57 92 -152q0 -16 -7 -44q0 -355 -146 -355q-49 0 -111 52q-191 153 -177 243q12 68 37 111q14 25 39 54l53 56
q29 25 52 96q4 13 16 69h-230q-9 -11 -10 -20q-14 -49 -3 -85q4 -19 36 -41q11 -7 29 -16q-45 -101 -65 -152q-68 -163 -68 -220q0 -91 96.5 -174.5t187.5 -83.5q192 0 325 188l253 -245l221 -260l1 -319z" />
    <glyph glyph-name="glyph502" horiz-adv-x="1260" 
d="M1156 1583l-25 -178v-1368h-48l-21 60q-30 84 -237 139q-160 43 -290 43q-143 0 -292 -29q-30 0 -63 -16l76 149q44 27 106 32l153 10q116 6 263 -41q127 -41 176 -92l119 -90v223l-11 156l-13 147l-32 219q-40 -45 -77 -74q-99 -75 -176 -75q-93 0 -209 95
q-46 38 -102 97v-107l12 -53l60 -263h-37q-25 73 -35 91q-78 198 -288 247l-108 15l60 153h77l72 -13q46 -22 140 -110v282q22 187 133 291q32 31 98 60h519zM1013 1089q0 111 -32 206q-45 130 -139 130h-135q-128 -29 -168 -86q-22 -31 -35 -114q-12 -82 110 -192
q117 -106 203 -106q96 0 156 79z" />
    <glyph glyph-name="glyph503" horiz-adv-x="1234" 
d="M1156 1583l-37 -133q-20 -20 -33 -85l-6 -136v-1192h-21l-23 54q-31 73 -252 135q-187 53 -299 53q-156 0 -247 -17q-51 -4 -108 -19l76 130q51 33 117 38l142 14q112 0 232 -32q145 -38 206 -101l110 -94v276l-119 207q-147 250 -220 318l-344 328l-38 -75l-56 -137
l-19 -70q66 0 115 -13q115 -30 172 -130l164 -285h-54q-58 69 -115 120q-139 120 -296 120h-117v36q0 88 34 123l22 16l36 143q3 25 19 81q9 22 25 64l16 45l5 56q-52 57 -49 100l3 62h519q0 -93 -48 -149l-91 -56l104 -140q101 -135 161 -248l91 -164l78 -165v539
q0 49 -36 101q-68 105 -72 126q0 70 23 120q12 28 21 36h209z" />
    <glyph glyph-name="glyph504" horiz-adv-x="1188" 
d="M1023 91q-149 107 -258 145q-116 43 -293 43q-159 0 -246 -17q-47 -3 -106 -19l74 130q49 33 119 38l140 14q221 0 337 -74l78 221q23 64 23 158q0 243 -130 308l-68 26l-68 5q-107 0 -107 -50l62 -159l45 -123l6 -30h-48q-25 71 -51 110q-82 119 -227 158l-127 15h-42
l-26 -3l-3 39q-3 27 10 50l29 53l139 296h-63q-29 0 -50 39l-13 83v32l770 4q0 -70 -29 -105q-54 -53 -169 -53h-144q-188 -20 -292 -147l-69 -119h56l73 -11q45 -9 79 -33l38 -26l69 59q99 65 213 65q122 0 193 -90q66 -82 66 -206q0 -96 -43 -227l-128 -378l181 -160v-61z
" />
    <glyph glyph-name="glyph505" horiz-adv-x="1432" 
d="M1140 47q-44 42 -104 69q-156 65 -340 65q-157 0 -247 -16q-51 -4 -109 -19l77 129q51 33 117 39l142 14q111 0 232 -32q145 -38 206 -101l104 -87v352l-427 643q-9 17 -43 72q-43 74 -138 122q-7 4 -24 11l-81 -130q30 -10 98 -35q136 -58 136 -140q0 -106 -130 -230
t-236 -124q-148 0 -229 140q-66 116 -66 278v133q7 25 7 45q0 63 -10 113q-23 69 -33 108v117h200v-99l-41 -129q-22 -74 -33 -133q-7 -51 -7 -142q0 -128 56 -187q37 -39 156 -86q57 -23 107 -23q141 0 136 115q-2 36 -30 55q-47 19 -77 39q-40 25 -169 58l-56 16l259 351
q-57 -7 -76 80q-4 24 -6 85h443q0 -77 -16 -105q-30 -53 -88 -53q8 -15 108 -173q120 -193 145 -242l137 -257v453q0 51 -52 143q-50 86 -43 129v105h199v-117q0 -44 -15.5 -130.5t-15.5 -129.5l-1 -1263q-20 1 -20 4q-24 23 -102 100z" />
    <glyph glyph-name="glyph506" horiz-adv-x="1307" 
d="M1089 1583l-16 -158v-599h-33l-149 144q-146 138 -238 192l-275 162l-46 -23q-47 -29 -73 -79l-16 -67l116 -3q128 -20 185 -107l130 -133h-43l-83 54q-126 57 -235 53l-75 -3l-138 -17l13 50l23 50l23 27l19 13l35 130q12 44 53 119l23 39h-90q-27 26 -27 68q0 56 34 88
h494l-3 -62q-9 -68 -56 -94h-97l217 -175q99 -82 193 -176l59 -60l-15 203q-6 95 -28 143q-31 63 -92 63l-4 28l4 35l32 95h179zM1086 801l-13 -159v-1006l-17 3l-39 57q-59 83 -255 152q-173 60 -297 60q-143 0 -243 -20l-109 -21l93 146q83 47 202 47l36 -4q110 0 263 -73
q126 -58 173 -110l133 -108v405q-6 35 -6 51q0 131 -25 194q-31 134 -65 180q-28 49 -71 57h-130v-545h-26l-13 129q0 36 -12 95l-27 121q-19 89 -45 159q-7 16 -19 41h-140l-39 -140l-33 -90q-39 -103 -129 -130l-77 -3l43 143q113 21 151 143l21 77h-19q-33 0 -44 45
l-7 104h785z" />
    <glyph glyph-name="glyph507" horiz-adv-x="1058" 
d="M975 1583l-5 -169v-710h-57v315q0 202 -64 315q-46 84 -93 84h-136v-555h-32l-14 126q-33 313 -73 390q-20 39 -59 39h-83q-17 0 -80 -186q-21 -62 -50 -120q-66 -131 -144 -149q-29 -7 -48 -7q10 74 15 93q12 49 34 87q9 14 90 69q60 42 97 163q2 16 12 50l-72 7
q-43 28 -43 105q0 33 6 53h799zM1049 -273l-102 73q-91 41 -167 66q-197 66 -322 66q-60 0 -236 -16q-76 -8 -152 -20q21 23 56 60q64 65 77 68q118 33 249 33q200 0 332 -75q60 119 60 217q0 217 -300 217q-34 0 -99 -49q-16 -15 -59 -51l53 -149h-33q-14 23 -20 36
q-27 43 -59 93q-40 77 -141 186q-32 37 -97 100l108 212h766q-13 -48 -29 -72q-55 -77 -154 -77h-540l119 -278q55 50 86 72q106 73 199 73q125 0 214 -52q105 -63 105 -180q0 -163 -137 -317l157 -137q10 -7 40 -37l26 -26v-36z" />
    <glyph glyph-name="glyph508" horiz-adv-x="1282" 
d="M1092 801l-16 -152v-1013l-17 3l-39 57q-45 64 -190 132q-169 80 -335 80q-134 0 -239 -20l-114 -21l94 146q86 48 173 48q15 0 29 -1l38 -4q131 -11 247 -62q119 -53 161 -99l133 -101l-4 475q-1 83 -18 159q-29 128 -36 144q-31 80 -81 80h-178v-548l-47 36
q-169 189 -424 189h-80l-7 38q0 50 36 85q-3 12 -3 26q0 62 44 139l31 37l-24 -2q-23 0 -23 45v37q0 19 -6 67h895zM641 285v137l-20 113q-41 117 -122 117h-153q-53 0 -87 -73q-26 -59 -26 -117q159 0 299 -86q54 -33 109 -91zM1089 1583l-16 -158v-599h-40l-146 144
q-153 149 -234 192l-301 162l-47 -23q-43 -25 -76 -79l-7 -51q62 0 121 -16q127 -35 185 -136l130 -133h-44q-36 37 -89 68q-127 72 -250 65l-62 -3l-143 -17l14 50l23 47l33 36l9 7l38 130q23 81 49 119l26 39h-40q-40 0 -50 51l-7 105h535q0 -52 -7 -76q-21 -80 -84 -80
h-65l217 -175q99 -82 193 -176l59 -60v155q0 83 -24 155q-34 99 -98 99l-11 41l-2 51q9 30 16 43l16 23h179z" />
    <glyph glyph-name="glyph509" horiz-adv-x="1098" 
d="M999 1583l-13 -169v-710h-57v306q0 321 -126 424h-159l-3 -272v-299h-24q-54 73 -113 107q-91 49 -248 49h-150q0 94 21 111q17 14 43 88q57 171 82 216l-54 63q-9 35 -9 86h810zM588 999v26q0 13 3 41v40q-6 33 -6 49q-14 93 -24 186q-22 93 -103 93h-83
q-48 -37 -101.5 -123.5t-60.5 -145.5q62 -4 193 -26q63 -17 129 -80q16 -16 53 -60zM1023 -263h-43l-77 56q-61 46 -175 73q-123 30 -296 30q-162 0 -278 -16q-36 -2 -69 -11q43 56 78 80q112 79 279 79q222 0 349 -72l50 85q60 139 46 183q-31 101 -129 152q-45 24 -100 24
q-36 0 -85 -15q-64 -18 -64 -45l37 -40l79 -152l-23 -14q-21 30 -44 46q-67 49 -206 84q-40 10 -116 12l-89 4h-60q-23 0 -30 -4l56 97q10 24 44 36l107 217q-22 10 -30 16q-53 35 -55 86q-1 27 -1 50h821q-6 -73 -49 -103q-74 -49 -239 -49h-195q-143 0 -242 -121
q-25 -29 -61 -102q71 0 126 -10q44 0 93 -20q54 48 96 76q120 81 200 81q117 0 195 -60q84 -65 84 -179q0 -65 -43 -148q-28 -50 -64 -102l-76 -108q17 -15 47 -40q57 -50 89 -93z" />
    <glyph glyph-name="glyph510" 
d="M970 1583l-47 -116q-26 -37 -319 -37h-136q-108 0 -148 -20q-48 -24 -91 -115q-10 -31 -10 -60q0 -45 10 -60q204 0 313 -20q93 -17 186 -83q71 -52 112 -99l107 -124l-37 -3l-56 56q-51 52 -169 90q-111 37 -190 37h-266q-57 0 -140 -19q-10 -4 -40 -11l7 33q4 17 10 34
l46 70q-2 17 -2 34q0 40 30 134q19 45 58 100q11 13 24 26l-52 23q-14 28 -14 130h814zM938 902l-29 -139v-898h-33l-7 25q-15 62 -227 102q-162 31 -272 31q-182 0 -368 -23l109 128q26 8 136.5 16t136.5 5q100 3 219 -30q106 -30 156 -66l106 -53v268q0 161 -20 259
q-44 220 -162 217l-107 -4v-565h-26q-80 194 -362 194q-73 0 -126 13q-10 29 -10 56q0 12 22 60t25 99q3 103 49 153q-14 9 -23 16q-28 25 -30 43q-4 30 26 74q4 6 18 19h799zM520 369l-19 186q-5 36 -29 115q-18 59 -42 86l-122 -3q-101 -46 -133 -130q-14 -33 -24 -126
q30 4 50 4q65 0 142 -27q50 -17 140 -80q11 -7 37 -25z" />
    <glyph glyph-name="glyph511" horiz-adv-x="1058" 
d="M1152 1880q3 -70 -4 -101q-22 -103 -105 -103h-84l-9 -83q0 -57 -8 -82q-23 -86 -105 -86h-379q-33 -11 -52 -18q-61 -26 -87 -63l-30 -33h478q10 -66 -14 -93q-40 -47 -142 -47h-352l-30 -63q-8 -15 0 -49h259q266 0 425 -133q82 -72 226 -192h-40q-81 49 -242 143
q-65 36 -389 40l-328 2v107l16 135q14 110 73 233q6 12 23 40h-54q-39 23 -39 106v28q0 11 4 15h737v110l-43 192q19 -7 66 -26q81 -33 112 -37q51 0 97 37zM1023 -187h-43l-77 56q-61 45 -175 73q-123 30 -296 30q-162 0 -278 -16q-36 -3 -69 -12q43 56 78 80
q112 80 279 80q222 0 349 -74l50 87q60 138 46 182q-31 102 -129 153q-45 24 -100 24q-36 0 -85 -15q-64 -19 -64 -45l37 -40l79 -152l-23 -14q-21 30 -44 46q-67 49 -206 83q-40 11 -116 13l-89 3h-60q-23 0 -30 -3l56 96q10 24 44 37l107 216q-22 11 -30 16q-53 36 -55 87
q-1 27 -1 50h821q-6 -74 -49 -103q-74 -50 -239 -50h-195q-143 0 -242 -120q-25 -30 -61 -102q71 0 126 -10q44 0 93 -21q54 48 96 77q120 80 200 80q117 0 195 -59q84 -66 84 -179q0 -66 -43 -148q-28 -51 -64 -102l-76 -109q17 -14 47 -40q57 -49 89 -92z" />
    <glyph glyph-name="glyph512" 
d="M903 1583q0 -83 -17 -112l-37 -44q21 -79 21 -146q0 -66 -21 -92q11 -14 14 -24q16 -37 14 -62q-6 -42 -35 -84h-96q-16 0 -58.5 1.5t-70.5 1.5h-107q-185 0 -314 -145q-80 -92 -112 -167l-54 -6l122 219q49 86 130 166q47 47 105 64q86 27 171 29l239 3q-11 119 -60 169
q-66 67 -238 67h-157q-73 0 -93 79q-7 27 -7 83h661zM958 -154h-42l-77 56q-61 45 -175 72q-124 29 -296 29q-163 0 -280 -15q-35 -2 -69 -11q45 54 80 79q112 80 278 80q221 0 350 -73l49 86q61 139 46 182q-31 102 -130 153q-43 24 -98 24q-36 0 -86 -15q-64 -19 -64 -45
l37 -40l78 -152l-22 -14q-20 31 -43 47q-69 48 -206 82q-40 11 -116 14l-90 2h-59q-23 0 -29 -2l54 96q10 23 44 37l106 216q-20 11 -30 16q-51 35 -55 87q-1 26 -1 49h823q-7 -73 -50 -102q-75 -50 -239 -50h-196q-142 0 -241 -120q-26 -31 -61 -103q71 0 126 -10
q44 0 94 -20q54 47 95 77q119 79 201 79q116 0 194 -59q84 -66 84 -179q0 -65 -43 -147q-27 -51 -63 -103l-76 -109q17 -15 46 -40q57 -49 90 -92z" />
    <glyph glyph-name="glyph513" horiz-adv-x="1058" 
d="M950 1583q-8 -32 -11 -53q-36 -116 -142 -116h-190q-96 0 -129 -16q-53 -24 -67 -103l97 30q74 23 140 23q79 0 129 -53q16 -18 93 -130q16 -24 16 -53q0 -55 -65 -109q-53 -43 -117 -67q-33 -17 -93 -17q-167 0 -240 124q-9 16 -26 76q0 6 -7 26q-74 -26 -145 -107
q-58 -65 -76 -121q-39 -119 -51 -283q-1 -20 -6 -67h-41l8 173q6 186 48 334q11 41 51 101q20 30 143 93q27 13 56 29v69q0 35 4 38q-63 10 -67 10h-49q-45 0 -67 83q-6 24 -13 86h817zM793 1152q0 66 -86 66q-17 0 -45 -4l-48 -9q-63 -5 -199 -40h-9q41 -113 155 -113
q56 0 134 25q98 31 98 75zM908 886q0 -47 -10 -72q-30 -77 -130 -77h-291q-114 0 -157 -20l-66 -50l-40 -90l170 -3q160 -3 258 -75q86 -63 140 -216q11 -32 70 -253l46 -175l-27 -6l-175 112q-55 21 -117 37q-156 39 -255 39q-120 0 -216 -30q-17 -4 -40 -16q17 24 43 62
q49 70 63 80q43 25 126 23q24 0 55 -2q29 -2 35 -2q185 0 266 -66l159 -95l-26 102q-131 349 -469 349h-169q-11 14 -14 20q-16 24 -16 39q0 19 16 47q5 7 18 23q3 52 23 110q8 23 23 56q-18 13 -23 19q-27 28 -30 47q-5 22 13 54q2 7 17 29h730z" />
    <glyph glyph-name="glyph514" horiz-adv-x="1058" 
d="M950 1583q-8 -32 -11 -53q-36 -116 -142 -116h-190q-96 0 -129 -16q-53 -24 -67 -103l97 30q74 23 140 23q79 0 129 -53q16 -18 93 -130q16 -24 16 -53q0 -55 -65 -109q-53 -43 -117 -67q-33 -17 -93 -17q-167 0 -240 124q-9 16 -26 76q0 6 -7 26q-74 -26 -145 -107
q-58 -65 -76 -121q-39 -119 -51 -283q-1 -20 -6 -67h-41l8 173q6 186 48 334q11 41 51 101q20 30 143 93q27 13 56 29v69q0 35 4 38q-63 10 -67 10h-49q-45 0 -67 83q-6 24 -13 86h817zM793 1152q0 66 -86 66q-17 0 -45 -4l-48 -9q-63 -5 -199 -40h-9q41 -113 155 -113
q56 0 134 25q98 31 98 75zM865 776q-4 -15 -13 -31q14 -22 17 -31q19 -35 19 -81l16 -187h-264q-177 0 -270 -46q-62 -32 -122 -110q-53 -70 -53 -127h139q103 0 216 -56q59 -37 133 -83l169 -112l3 -43q-281 155 -521 155q-92 0 -223 -14q-55 -4 -111 -14l65 114l79 44
q0 142 57 255q34 44 56 67q74 73 150 86q33 10 159 13l137 3h108l-35 97q-29 37 -47 47q-41 20 -163 20h-345q-45 0 -70 73q-5 14 -16 76h734q3 -17 4 -41q3 -28 -8 -74z" />
    <glyph glyph-name="glyph515" 
d="M954 789l-26 -149v-883h-30l-27 37q-30 52 -225 86q-152 27 -256 27q-210 0 -365 -22q32 52 60 85q71 85 116 78l173 -2q137 -2 237 -37q108 -36 148 -68l109 -56v370q0 120 -20 192q-29 107 -113 193h-159v-170l3 -354h-30q-7 60 -69 361q-3 15 -10 63q-17 70 -44 103
h-98q-37 -37 -64 -93q-19 -28 -42 -86q-25 -64 -39 -87q-20 -38 -52 -86q-53 -79 -135 -90l52 204q94 0 132 98l55 137q-18 3 -28 3q-33 9 -56 37q-9 26 -9 43q0 29 19 69zM954 1029q0 -56 -48 -171t-85 -154h-65q18 33 28 82q0 9 2 17q31 75 31 146q0 102 -75 162
q-70 54 -175 54h-32q-34 0 -113 -43q-20 -11 -70 -40l79 -203h-60l-119 233q-49 96 -110 202q-16 29 -56 100l70 169h744q0 -55 -7 -83q-20 -82 -90 -82h-565l84 -273q55 49 93 73q113 74 213 74q135 0 224 -62q102 -70 102 -201z" />
    <glyph glyph-name="glyph516" 
d="M1017 -279l-102 73q-92 41 -168 67q-196 65 -322 65q-59 0 -235 -16q-77 -7 -152 -20q20 23 56 60q64 65 77 68q118 34 248 34q200 0 332 -75q60 118 60 218q0 215 -299 215q-34 0 -99 -49q-16 -14 -60 -49l53 -150h-33q-13 23 -20 36q-26 43 -60 93q-39 77 -139 186
q-33 36 -97 100l107 212h767q-14 -49 -30 -73q-54 -76 -154 -76h-540l120 -279q55 50 86 72q106 74 199 74q125 0 213 -53q106 -63 106 -180q0 -163 -137 -317l157 -137q9 -6 40 -36l26 -27v-36zM954 1029q0 -56 -48 -171t-85 -154h-65q18 33 28 82q0 9 2 17q31 75 31 146
q0 102 -75 162q-70 54 -175 54h-32q-34 0 -113 -43q-20 -11 -70 -40l79 -203h-60l-119 233q-49 96 -110 202q-16 29 -56 100l70 169h744q0 -55 -7 -83q-20 -82 -90 -82h-565l84 -273q55 49 93 73q113 74 213 74q135 0 224 -62q102 -70 102 -201z" />
    <glyph glyph-name="glyph517" 
d="M954 1029q0 -56 -48 -171t-85 -154h-65q18 33 28 82q0 9 2 17q31 75 31 146q0 102 -75 162q-70 54 -175 54h-32q-34 0 -113 -43q-20 -11 -70 -40l79 -203h-60l-119 233q-49 96 -110 202q-16 29 -56 100l70 169h744q0 -55 -7 -83q-20 -82 -90 -82h-565l84 -273
q55 49 93 73q113 74 213 74q135 0 224 -62q102 -70 102 -201zM967 794q0 -83 -13 -141l-26 -88v-802h-33l-156 80q-70 35 -144 53q-82 20 -232 20q-188 0 -357 -23q10 25 28 63q35 60 70 82q23 3 107 12l139 17q91 0 214 -28q144 -32 198 -76l112 -74v238q-84 72 -285 117
q-165 36 -312 36h-106q-44 0 -93 -20h-26v109l162 276q-26 9 -40 13q-40 21 -50 43q-6 29 18 70q4 9 16 23h335q7 -33 7 -49q0 -55 -36 -83q-14 -10 -84 -44l-73 -32q-83 -52 -127 -110l-36 -51h116q270 0 362 -33q121 -69 249 -132v216q0 32 -65 91q-68 63 -76 98
q-8 40 -8 63q0 40 6 66h239z" />
    <glyph glyph-name="glyph518" horiz-adv-x="1070" 
d="M720 110q25 47 41 157q9 68 9 191q0 94 -57 172q-80 110 -234 110q-54 0 -110 -56l-61 -61l70 -240h-39l-70 184l-224 536l75 154h291q30 51 30 85q0 35 -42 66l-47 17h-126q-44 16 -61 47l-13 72v26l4 13h611q0 -158 -109 -158h-117l3 -44l-9 -64q-8 -25 -27 -41
l-23 -19h322l3 -41q8 -104 -110 -104h-487l85 -444l85 101q88 108 191 108q145 0 236 -124q70 -93 70 -212q0 -147 -31 -229l-65 -176l-67 -133q46 -11 133 -62q42 -24 110 -84l186 -198h-50l-25 26q-30 32 -51 44q-73 42 -290 106q-72 22 -162 22h-58q-25 0 -48 -3
q-172 -12 -265 -37q-54 -14 -106 -39l69 166q3 3 77.5 36.5t144.5 41.5q72 15 114 14q53 -3 175 -20z" />
    <glyph glyph-name="glyph519" 
d="M1079 531h-53q-84 157 -116 209q-137 224 -243 279q-89 47 -342 47h-46l-179 -7q-14 20 -16 30q-21 36 -21 56q0 15 19.5 46.5t23.5 53.5l53 173q-7 9 -10 12q-26 37 -29 60q0 30 22 73q5 8 14 20h817q-19 -61 -31 -83q-44 -82 -128 -82h-303q-134 0 -182 -17
q-107 -36 -173 -166h186q268 0 395 -96q66 -50 210 -333q35 -70 132 -275zM954 794l-29 -140v-898h-33l-7 27q-15 62 -227 102q-162 31 -271 31q-183 0 -369 -23l109 128q27 7 137 15.5t136 4.5q101 4 219 -31q106 -28 156 -65l106 -52v267q0 161 -20 259q-44 219 -162 216
l-106 -2v-566h-27q-80 193 -362 193q-73 0 -126 14q-10 30 -10 56q0 13 22 60.5t25 98.5q3 104 49 153q-14 9 -22 16q-29 25 -31 43q-4 29 26 74q5 7 18 19h799zM536 260l-19 186q-5 37 -29 116q-18 59 -42 87l-122 -4q-100 -47 -133 -129q-13 -34 -24 -127q31 3 50 3
q65 0 142 -25q50 -17 141 -80q10 -8 36 -27z" />
    <glyph glyph-name="glyph520" 
d="M1079 531h-53q-84 157 -116 209q-137 224 -243 279q-89 47 -342 47h-46l-179 -7q-14 20 -16 30q-21 36 -21 56q0 15 19.5 46.5t23.5 53.5l53 173q-7 9 -10 12q-26 37 -29 60q0 30 22 73q5 8 14 20h817q-19 -61 -31 -83q-44 -82 -128 -82h-303q-134 0 -182 -17
q-107 -36 -173 -166h186q268 0 395 -96q66 -50 210 -333q35 -70 132 -275zM989 787q0 -49 -11 -74q-35 -79 -147 -79h-330q-130 0 -178 -20l-74 -52l-46 -92l191 -3q183 -4 295 -80q95 -64 156 -217q15 -36 80 -263l53 -180l-30 -8l-200 116q-62 22 -131 38q-178 41 -289 41
q-137 0 -246 -31q-18 -3 -44 -17q18 26 48 65q55 70 72 81q48 26 142 24q29 0 64 -3q30 -1 38 -1q210 0 302 -67l180 -99l-30 106q-148 358 -531 358h-191q-13 16 -15 20q-20 26 -20 41q0 20 20 49q3 6 18 23q5 54 27 113q9 23 26 58q-18 15 -26 20q-30 28 -35 49
q-4 24 15 55q2 7 20 29h827z" />
    <glyph glyph-name="glyph521" 
d="M1079 531h-53q-84 157 -116 209q-137 224 -243 279q-89 47 -342 47h-46l-179 -7q-14 20 -16 30q-21 36 -21 56q0 15 19.5 46.5t23.5 53.5l53 173q-7 9 -10 12q-26 37 -29 60q0 30 22 73q5 8 14 20h817q-19 -61 -31 -83q-44 -82 -128 -82h-303q-134 0 -182 -17
q-107 -36 -173 -166h186q268 0 395 -96q66 -50 210 -333q35 -70 132 -275zM938 789l-10 -146v-886h-43l-173 107q-47 29 -136.5 45.5t-195.5 16.5q-110 0 -241 -19q-40 -6 -114 -20q21 33 30 54q37 53 77 91q47 33 252 33q123 0 238 -39q87 -29 130 -66l113 -70v221
q-106 80 -232 117q-141 41 -376 37l-178 -4q-9 6 -14 11q-29 26 -29 56q-4 35 16 63q8 10 27 23l125 232q-21 11 -29 16q-33 24 -40 47q-3 20 9 51q4 9 17 29h777zM865 265v212q0 59 -43 106q-57 63 -153 63h-192q-44 -10 -67 -13q-42 -12 -166 -83q-29 -23 -63 -73l-42 -63
h98q248 0 393 -40q87 -24 235 -109z" />
    <glyph glyph-name="glyph522" 
d="M1079 531h-53q-84 157 -116 209q-137 224 -243 279q-89 47 -342 47h-46l-179 -7q-14 20 -16 30q-21 36 -21 56q0 15 19.5 46.5t23.5 53.5l53 173q-7 9 -10 12q-26 37 -29 60q0 30 22 73q5 8 14 20h817q-19 -61 -31 -83q-44 -82 -128 -82h-303q-134 0 -182 -17
q-107 -36 -173 -166h186q268 0 395 -96q66 -50 210 -333q35 -70 132 -275zM958 -252h-42l-77 56q-61 45 -175 73q-124 30 -296 30q-163 0 -280 -17q-35 -2 -69 -10q45 55 80 80q112 79 278 79q221 0 350 -73l49 86q61 138 46 183q-31 101 -130 152q-43 23 -98 23
q-36 0 -86 -15q-64 -18 -64 -44l37 -39l78 -153l-22 -15q-20 31 -43 47q-69 49 -206 83q-40 10 -116 14l-90 3h-59q-23 0 -29 -3l54 96q10 23 44 37l106 215q-20 12 -30 16q-51 37 -55 87q-1 27 -1 50h823q-7 -74 -50 -103q-75 -50 -239 -50h-196q-142 0 -241 -119
q-26 -31 -61 -103q71 0 126 -9q44 0 94 -21q54 47 95 77q119 79 201 79q116 0 194 -59q84 -66 84 -180q0 -65 -43 -146q-27 -51 -63 -103l-76 -108q17 -16 46 -40q57 -50 90 -93z" />
    <glyph glyph-name="glyph523" horiz-adv-x="1058" 
d="M1043 591h-47l-46 162q-11 36 -64 120q-81 130 -162 187q-53 39 -129 68q-7 -85 -28 -129q-59 -133 -225 -133q-116 0 -199 53q-94 62 -94 173q0 20 7 47q24 95 97 150t172 55q20 0 66 -6l120 -30q0 70 -61 95q-37 15 -121 15h-127q-65 7 -79 86q-3 13 -6 79h816
q-1 -28 -7 -72q-15 -77 -69 -93h-104q-143 0 -143 -34q0 -4 1 -6l3 -93q77 -16 120 -37q66 -32 108 -89q66 -86 86 -129q14 -28 42 -141zM520 1043q4 3 19 56q0 7 5 23q0 24 -77 43q-51 11 -101 20q-24 0 -78 4l-59 3q-83 0 -89 -44q0 -52 46 -80q174 -65 222 -65
q80 0 112 40zM1033 -279l-102 73q-91 41 -167 67q-197 65 -322 65q-60 0 -236 -16q-76 -7 -152 -20q21 23 56 60q64 65 77 68q118 34 249 34q199 0 331 -75q61 118 61 218q0 215 -300 215q-34 0 -99 -49q-16 -14 -60 -49l54 -150h-34q-13 23 -20 36q-26 43 -58 93
q-41 77 -141 186q-33 36 -97 100l107 212h767q-13 -49 -30 -73q-54 -76 -153 -76h-540l119 -279q55 50 86 72q106 74 199 74q125 0 213 -53q106 -63 106 -180q0 -163 -137 -317l157 -137q10 -6 40 -36l26 -27v-36z" />
    <glyph glyph-name="glyph524" horiz-adv-x="1058" 
d="M1043 591h-47l-46 162q-11 36 -64 120q-81 130 -162 187q-53 39 -129 68q-7 -85 -28 -129q-59 -133 -225 -133q-116 0 -199 53q-94 62 -94 173q0 20 7 47q24 95 97 150t172 55q20 0 66 -6l120 -30q0 70 -61 95q-37 15 -121 15h-127q-65 7 -79 86q-3 13 -6 79h816
q-1 -28 -7 -72q-15 -77 -69 -93h-104q-143 0 -143 -34q0 -4 1 -6l3 -93q77 -16 120 -37q66 -32 108 -89q66 -86 86 -129q14 -28 42 -141zM520 1043q4 3 19 56q0 7 5 23q0 24 -77 43q-51 11 -101 20q-24 0 -78 4l-59 3q-83 0 -89 -44q0 -52 46 -80q174 -65 222 -65
q80 0 112 40zM996 789q0 -47 -10 -73q-34 -76 -145 -76h-326q-128 0 -176 -20l-74 -50l-45 -90l190 -3q180 -4 289 -76q95 -63 156 -215q13 -32 79 -252l52 -177l-31 -5l-195 112q-62 22 -131 37q-175 40 -285 40q-134 0 -242 -31q-20 -3 -45 -16q20 25 49 63q54 68 70 79
q48 25 140 22q28 0 62 -2q32 -1 39 -1q208 0 297 -65l179 -96l-30 103q-146 348 -524 348h-189q-13 14 -15 19q-18 25 -18 41q0 19 18 45q5 7 19 23q4 53 26 110q9 23 26 57q-19 12 -26 19q-30 27 -33 47q-5 22 14 54q2 7 19 29h816z" />
    <glyph glyph-name="glyph525" horiz-adv-x="1058" 
d="M1043 591h-47l-46 162q-11 36 -64 120q-81 130 -162 187q-53 39 -129 68q-7 -85 -28 -129q-59 -133 -225 -133q-116 0 -199 53q-94 62 -94 173q0 20 7 47q24 95 97 150t172 55q20 0 66 -6l120 -30q0 70 -61 95q-37 15 -121 15h-127q-65 7 -79 86q-3 13 -6 79h816
q-1 -28 -7 -72q-15 -77 -69 -93h-104q-143 0 -143 -34q0 -4 1 -6l3 -93q77 -16 120 -37q66 -32 108 -89q66 -86 86 -129q14 -28 42 -141zM520 1043q4 3 19 56q0 7 5 23q0 24 -77 43q-51 11 -101 20q-24 0 -78 4l-59 3q-83 0 -89 -44q0 -52 46 -80q174 -65 222 -65
q80 0 112 40zM967 784q0 -84 -13 -141q-13 -46 -26 -88v-802h-33l-156 79q-70 35 -144 54q-82 19 -232 19q-188 0 -357 -23q10 25 28 62q35 62 70 83q23 3 107 13l139 16q91 0 214 -28q144 -31 198 -77l112 -72v238q-84 72 -285 117q-165 35 -312 35h-106q-44 0 -93 -19h-26
v109l162 275q-26 10 -40 14q-40 20 -50 42q-6 30 18 71q4 8 16 23h335q7 -34 7 -50q0 -54 -36 -82q-14 -11 -84 -45l-73 -32q-83 -52 -127 -111l-36 -49h116q270 0 362 -33q121 -70 249 -132v214q0 33 -65 93q-68 62 -76 96q-8 40 -8 64q0 41 6 67h239z" />
    <glyph glyph-name="glyph526" horiz-adv-x="1058" 
d="M1043 591h-47l-46 162q-11 36 -64 120q-81 130 -162 187q-53 39 -129 68q-7 -85 -28 -129q-59 -133 -225 -133q-116 0 -199 53q-94 62 -94 173q0 20 7 47q24 95 97 150t172 55q20 0 66 -6l120 -30q0 70 -61 95q-37 15 -121 15h-127q-65 7 -79 86q-3 13 -6 79h816
q-1 -28 -7 -72q-15 -77 -69 -93h-104q-143 0 -143 -34q0 -4 1 -6l3 -93q77 -16 120 -37q66 -32 108 -89q66 -86 86 -129q14 -28 42 -141zM520 1043q4 3 19 56q0 7 5 23q0 24 -77 43q-51 11 -101 20q-24 0 -78 4l-59 3q-83 0 -89 -44q0 -52 46 -80q174 -65 222 -65
q80 0 112 40zM974 -252h-42l-77 56q-61 45 -175 73q-123 30 -296 30q-163 0 -280 -17q-35 -2 -68 -10q44 55 79 80q112 79 278 79q221 0 350 -73l49 86q61 138 47 183q-32 101 -130 152q-44 23 -99 23q-36 0 -86 -15q-63 -18 -63 -44l36 -39l79 -153l-22 -15q-21 31 -44 47
q-68 49 -206 83q-40 10 -116 14l-89 3h-60q-24 0 -30 -3l56 96q10 23 43 37l107 215q-21 12 -30 16q-52 37 -55 87q-2 27 -2 50h823q-7 -74 -50 -103q-75 -50 -239 -50h-195q-143 0 -242 -119q-26 -31 -61 -103q72 0 127 -9q43 0 93 -21q54 47 96 77q118 79 200 79
q117 0 194 -59q84 -66 84 -180q0 -65 -42 -146q-28 -51 -64 -103l-76 -108q17 -16 46 -40q57 -50 90 -93z" />
    <glyph glyph-name="glyph527" horiz-adv-x="1078" 
d="M874 9q0 97 -25 243q-30 171 -75 257q-65 121 -160 181l-12 -79q-16 -93 -61 -143q-78 -85 -249 -85q-104 0 -185 83.5t-81 187.5q0 130 84.5 216t212.5 86q70 0 149 -16q22 0 72 -20q-9 90 -40 118q-40 51 -181 51h-57q-56 0 -76 82l-3 86h331l7 40q0 67 -84 121l-23 9
h-86q-63 0 -86 77l-8 79h579l-3 -76q-16 -80 -86 -80h-126l16 -30q8 -22 8 -48q0 -14 -1 -29l-16 -63h294l4 -38q4 -56 -24 -93t-82 -37h-187l20 -54l3 -42l-6 -100l92 -51q108 -58 168 -251q45 -153 45 -309v-517h-38l-27 60q-42 93 -177.5 135.5t-272.5 42.5
q-123 0 -226 -16q-67 -5 -104 -16l60 120q66 61 266 61q120 0 201 -35q42 -20 176 -117l79 -57zM528 711q-11 41 -150 76q-124 32 -179 20q-69 -16 -69 -83q0 -42 32 -72q57 -56 123 -104q66 -36 130 -36q92 0 113 121l7 38q0 25 -7 40z" />
    <glyph glyph-name="glyph528" horiz-adv-x="1266" 
d="M1089 1583l-16 -158v-599h-33l-149 144q-146 138 -238 192l-275 162l-46 -23q-47 -29 -73 -79l-16 -67l116 -3q128 -20 185 -107l130 -133h-43l-83 54q-126 57 -235 53l-75 -3l-138 -17l13 50l23 50l23 27l19 13l35 130q12 44 53 119l23 39l-43 -6q-40 27 -40 130v26
l494 6q0 -56 -7 -76q-16 -80 -68 -80h-81l217 -175q99 -82 193 -176l59 -60l-6 200q-8 211 -113 211l-10 30q-10 27 -6 57l2 37l11 32h198zM1089 714l-13 -182v-893h-20l-39 57q-44 63 -191 132q-167 80 -334 80q-134 0 -239 -20l-113 -21l93 146q86 48 173 48q15 0 28 -1
l38 -4q140 -11 259 -75q102 -55 149 -108l137 -104v373q-97 86 -247 134q-161 53 -285 49l-126 -3q-66 -2 -97 -13h-26v97l142 291h-32q-16 0 -26 33l-4 71h337l-2 -54q-8 -31 -53 -50q-57 -17 -154 -64l-38 -42l-74 -120h128q170 0 260 -32q43 -13 300 -203v286
q0 98 -117 195l-9 17v29l9 41h186v-90z" />
    <glyph glyph-name="glyph529" horiz-adv-x="1266" 
d="M1089 1583l-16 -158v-599h-37l-145 144q-139 134 -238 192l-275 162l-46 -23q-47 -29 -73 -79l-16 -67l116 -3q128 -20 185 -107l130 -133h-43l-83 54q-126 57 -235 53l-75 -3l-138 -17l13 50l23 50l23 27l19 13l35 130q12 44 53 119l23 39h-51q-27 21 -28 68l-4 88h494
l-3 -62q-9 -68 -56 -94h-97l217 -175q99 -82 193 -176l59 -60l-15 203q-6 95 -28 143q-31 63 -92 63l-4 28l4 35l32 95h179zM1080 661l-18 -60l-3 -69v-893h-19l-42 57q-62 86 -239 151q-161 58 -283 58q-155 0 -240 -17q-48 -2 -113 -21l94 146q83 48 172 48q16 0 29 -1
l38 -4q138 -11 257 -75q105 -56 149 -108l136 -98v291q-137 151 -294 152l-312 3q-34 9 -49 9h-35l-52 -9h-53l59 304l54 133l-31 -6q-29 0 -29 48v37q0 23 -6 64l830 -3v-137zM989 209v177q0 153 -63 215q-30 29 -112 51h-315q-94 0 -156 -140q-13 -28 -20 -70
q0 -36 -7 -50h144l198 -9q70 -5 149 -45l110 -76z" />
    <glyph glyph-name="glyph530" 
d="M966 1583v-734h-59q-104 91 -214 140q-168 77 -404 77q-116 0 -156 -14q-33 -20 -67 -33l-47 73l11 83l163 243l-73 7q-20 25 -20 65q0 37 17 68q3 9 19 25h830zM883 1016v87l-20 121q-11 71 -53 124q-55 70 -122 70h-210q-56 -9 -91 -17q-94 -24 -177 -113
q-30 -32 -64 -83h110q292 0 408 -50q120 -80 219 -139zM991 -214h-43l-77 56q-61 45 -175 72q-123 30 -296 30q-163 0 -279 -16q-36 -2 -69 -10q44 55 79 80q112 79 278 79q222 0 350 -74l49 86q61 139 47 184q-32 101 -130 152q-44 23 -99 23q-36 0 -86 -15
q-63 -18 -63 -44l36 -39l80 -153l-23 -15q-21 31 -44 47q-68 48 -206 83q-40 10 -116 13l-89 4h-60q-24 0 -30 -4l56 97q10 23 43 36l107 216q-21 11 -30 16q-52 37 -55 87q-2 27 -2 49h823q-7 -73 -50 -102q-75 -50 -238 -50h-196q-143 0 -242 -119q-24 -31 -61 -103
q72 0 127 -10q43 0 93 -20q54 47 96 77q118 79 200 79q117 0 195 -59q83 -66 83 -180q0 -65 -42 -146q-28 -51 -64 -104l-76 -107q17 -16 47 -40q57 -50 89 -93z" />
    <glyph glyph-name="glyph531" horiz-adv-x="1145" 
d="M1059 1583l-10 -139v-621h-56l-86 76l-160 127q-66 53 -173 96q-18 7 -59 23q-4 -78 -20 -116q-54 -119 -210 -119q-90 0 -164 49q-81 57 -91 144q-2 18 -2 35q0 187 254 187q60 0 117 -11q0 96 -130 130q-62 0 -89 23q-24 20 -24 116h475q0 -76 -30 -112
q-14 -19 -77 -27q-23 -3 -23 -47q7 -56 7 -83q87 -26 143 -57q68 -35 116 -82l222 -216v262q0 73 -49 149q-46 65 -94 130l-4 83h217zM425 1089q0 64 -132 97q-57 15 -97 15q-84 0 -84 -36q0 -10 11 -26q59 -75 146 -109q56 -20 90 -20q66 0 66 79zM1065 826q0 -82 -15 -140
q-12 -45 -24 -89v-802h-34l-155 81q-71 34 -145 52q-81 20 -231 20q-188 0 -358 -23q10 25 29 63q34 60 70 82q23 3 106 14l139 16q92 0 214 -29q144 -32 199 -76l112 -73v238q-85 73 -286 116q-166 36 -311 36h-107q-43 0 -93 -19h-26v109l163 275q-27 11 -40 13
q-41 21 -51 44q-6 29 17 70q5 9 17 22h335q6 -33 6 -49q0 -54 -34 -82q-14 -11 -84 -44l-73 -33q-84 -52 -128 -110l-35 -50h116q269 0 362 -33q120 -70 248 -132v215q0 32 -65 91q-67 63 -75 98q-9 40 -9 64q0 40 6 65h240z" />
    <glyph glyph-name="glyph532" horiz-adv-x="1266" 
d="M1089 1583l-16 -158v-575h-33l-149 132q-140 123 -238 180l-275 162l-35 -10q-76 -20 -114 -92l-10 -74q55 0 117 -16q128 -34 182 -116l130 -133h-65l-98 44q-102 45 -286 46l-129 -14l14 60l19 45l46 48l38 157q16 72 49 119l26 39h-72q-46 44 -41 94l3 37l10 25h538
l-3 -62q-9 -68 -56 -94h-97l217 -175q99 -82 193 -176l59 -60l-15 203q-6 95 -28 143q-31 63 -92 63l-4 28l4 35l32 95h179zM1125 744l-39 -95l-10 -82v-931l-17 3l-39 57q-45 64 -190 132q-169 80 -335 80q-134 0 -239 -20l-114 -21l94 146q86 48 173 48q15 0 29 -1l38 -4
q121 -10 262 -70q80 -35 159 -98l110 -70v264l-186 180q-73 69 -168 117l-44 23q0 -99 -14 -136q-48 -140 -217 -140q-88 0 -163 61q-79 65 -79 151q0 148 120 213q75 40 209 40h53q0 102 -107 102h-72q-50 0 -64 47l-6 100h521l3 -46q7 -104 -65 -104h-116l13 -48v-41
q-8 -26 -13 -34l62 -16q66 -29 124 -80l149 -172l60 -84v297q0 68 -34 153l-33 79v96h185v-96zM528 367l-3 51l-136 40q-123 -19 -123 -69q0 -20 19 -51q46 -74 123 -104l17 -7h19q93 0 84 140z" />
    <glyph glyph-name="glyph533" horiz-adv-x="1302" 
d="M525 721q7 -160 -97 -160q-50 7 -85 36l-70 57l-40 50q-23 36 -23 62q0 92 122 84l51 -3l139 -40zM1143 1069q16 42 62 90v98h-216v-95l51 -111q22 -49 22 -127v-343l-96 112l-192 212q-58 51 -133 70l-36 4v129h115q58 0 81 76q6 22 6 73h-230l10 28q18 50 18 77v65h88
q68 0 100 55q17 29 17 101h-541l6 -79q20 -77 75 -77h113l22 -37q23 -38 23 -86l-7 -47h-279l7 -73q23 -71 72 -72l77 -4q133 -5 133 -115l-77 6q-116 11 -215 -49q-123 -76 -123 -250q0 -93 68 -170q71 -82 163 -82q206 0 275 166q23 54 23 162l56 -23q124 -64 179 -111
l183 -158v-471l-107 76q-47 38 -166 91q-140 60 -262 71l-38 3q-14 1 -28 1q-88 0 -174 -48l-93 -145l114 20q104 20 238 20q166 0 335 -79q147 -68 190 -134l39 -56l39 1z" />
    <glyph glyph-name="glyph534" horiz-adv-x="1058" 
d="M1171 1010q-76 -5 -105 -11q-185 -39 -273 -215q-9 -21 -19 -50l-61 16l54 169l10 54v106q-65 -68 -100 -97q-119 -96 -209 -96q-84 0 -179 80q-24 20 -79 80q-5 -29 -12 -80q-28 -234 -28 -352h-67v820l-30 182h522q93 -16 135 -62q73 -80 93 -232v-284q70 67 116 93
q10 7 96 31h80zM728 1304q0 74 -31 106q-43 47 -173 74h-139q-94 0 -139 -114q-29 -78 -29 -192q19 -51 39 -79q59 -83 159 -83q101 0 204 93q109 97 109 195zM889 643l-26 -149v-882h-30l-27 37q-29 50 -225 85q-152 27 -256 27q-210 0 -364 -23q33 54 58 86q72 86 117 80
l173 -3q137 -3 237 -37q107 -37 147 -70l110 -56v371q0 120 -19 192q-30 106 -114 193h-159v-170l4 -353h-31q-6 59 -69 360q-4 15 -9 63q-19 69 -44 103h-100q-36 -36 -64 -92q-18 -29 -40 -86q-26 -65 -39 -88q-20 -37 -53 -87q-53 -78 -135 -89l53 203q93 0 132 100
l54 136q-18 3 -28 3q-33 10 -56 37q-9 25 -9 43q0 29 19 69z" />
    <glyph glyph-name="glyph535" horiz-adv-x="1058" 
d="M1171 1010q-76 -5 -105 -11q-185 -39 -273 -215q-9 -21 -19 -50l-61 16l54 169l10 54v106q-65 -68 -100 -97q-119 -96 -209 -96q-84 0 -179 80q-24 20 -79 80q-5 -29 -12 -80q-28 -234 -28 -352h-67v820l-30 182h522q93 -16 135 -62q73 -80 93 -232v-284q70 67 116 93
q10 7 96 31h80zM728 1304q0 74 -31 106q-43 47 -173 74h-139q-94 0 -139 -114q-29 -78 -29 -192q19 -51 39 -79q59 -83 159 -83q101 0 204 93q109 97 109 195zM929 635l-40 -152q-61 -83 -92 -127q-70 -98 -153 -222q-23 -33 -67 -103q-2 -3 -10 -22h-33l61 155
q-37 29 -54 40q-52 33 -83 42q-27 8 -89 8q-124 0 -192.5 -67t-64.5 -156q4 -51 9 -67q9 -21 45 -58h169q187 0 332 -76q49 -26 107 -79q12 -11 66 -77q13 -16 46 -53h-49l-20 20q-100 88 -232 114q-93 19 -250 19h-130q-118 0 -205 -27q-29 -10 -56 -27l20 60q23 62 45 87
l77 29l-41 84q-20 38 -36 138q-1 14 -1 26q0 69 52 126q77 86 219 86q106 0 248 -72q48 -25 93 -57l140 259h-574q-97 0 -97 117v17q0 9 4 15h836z" />
    <glyph glyph-name="glyph536" horiz-adv-x="1058" 
d="M1171 1010q-76 -5 -105 -11q-185 -39 -273 -215q-9 -21 -19 -50l-61 16l54 169l10 54v106q-65 -68 -100 -97q-119 -96 -209 -96q-84 0 -179 80q-24 20 -79 80q-5 -29 -12 -80q-28 -234 -28 -352h-67v820l-30 182h522q93 -16 135 -62q73 -80 93 -232v-284q70 67 116 93
q10 7 96 31h80zM728 1304q0 74 -31 106q-43 47 -173 74h-139q-94 0 -139 -114q-29 -78 -29 -192q19 -51 39 -79q59 -83 159 -83q101 0 204 93q109 97 109 195zM918 643q0 -84 -14 -141q-11 -45 -25 -88v-802h-33l-156 80q-70 35 -143 53q-83 19 -233 19q-188 0 -356 -23
q10 26 29 63q34 62 69 83q23 3 106 14l139 16q91 0 215 -29q143 -32 197 -77l112 -73v239q-83 71 -285 116q-165 35 -311 35h-106q-44 0 -94 -19h-26v109l162 276q-25 9 -40 13q-40 20 -49 43q-7 29 17 70q4 9 16 23h335q6 -33 6 -49q0 -55 -34 -83q-14 -10 -85 -44l-73 -33
q-83 -51 -126 -110l-36 -50h116q269 0 362 -33q119 -69 248 -132v215q0 32 -64 92q-68 63 -76 97q-9 41 -9 64q0 40 7 66h238z" />
    <glyph glyph-name="glyph537" 
d="M970 1583l-20 -165v-539h-40q-50 44 -130 113q-166 142 -225 183l-273 193q-23 -17 -40 -34q-44 -40 -66 -86l-34 -53q72 -8 103 -13q116 -22 163 -51q73 -43 93 -136q3 -29 10 -82q-59 43 -105 66q-146 70 -286 70h-93v43q0 24 6 33l44 60l29 107q18 62 40 98q5 8 17 28
q-21 3 -27 9q-32 22 -30 60l6 96h545q-8 -44 -20 -72q-31 -81 -79 -93h-106l115 -96q67 -59 210 -177q32 -25 112 -86v179q0 27 -43 96q-52 83 -62 119q-10 35 9 101l10 29h167zM1033 -225l-102 74q-91 40 -167 65q-197 67 -322 67q-60 0 -236 -17q-76 -7 -152 -20
q21 23 56 59q64 66 77 69q118 34 249 34q199 0 331 -76q61 119 61 219q0 215 -300 215q-34 0 -99 -49q-16 -14 -60 -49l54 -149h-34q-13 21 -20 35q-26 43 -58 93q-41 77 -141 186q-33 36 -97 100l107 211h767q-13 -48 -30 -72q-54 -77 -153 -77h-540l119 -278q55 50 86 72
q106 74 199 74q125 0 213 -53q106 -63 106 -179q0 -164 -137 -320l157 -135q10 -6 40 -36l26 -27v-36z" />
    <glyph glyph-name="glyph538" horiz-adv-x="1282" 
d="M1089 1583l-16 -158v-599h-40l-146 144q-143 138 -234 192l-275 162l-46 -23q-47 -29 -73 -79l-16 -67l116 -3q128 -20 185 -107l130 -133h-43l-83 54q-126 57 -235 53l-75 -3l-138 -17l13 50l23 50l23 27l19 13l35 130q12 44 53 119l23 39h-39q-38 0 -53 51l-10 105h513
l-3 -76q-20 -80 -85 -80h-68l217 -175l246 -236l-12 281q-16 128 -108 128v35l7 47l19 76h176zM1096 -311h-42l-67 54q-69 52 -141 91q-38 22 -129 48l-147 10h-86l-193 -10l-181 -18l77 100l49 26q88 31 216 31q168 0 291 -50l196 -107l84 -66v163q0 174 -112 338
q-35 65 -152 129l-46 24l4 -44q11 -110 -70 -174t-221 -64q-284 0 -284 219q0 106 106 165q91 50 232 50h136q-12 60 -58 86q-39 31 -132 31h-106q-89 0 -117 66l-7 70h766v-66q-24 -70 -123 -70h-166l16 -21l12 -89l121 -44q55 -9 101 -55q95 -69 152 -272q21 -74 21 -203
v-348zM607 462h-181q-146 0 -168 -89q-14 -55 57 -77q38 -11 121 -11q159 0 180 130l-4 27z" />
    <glyph glyph-name="glyph539" horiz-adv-x="1101" 
d="M634 1215q31 53 33 70q4 28 -14 66q-2 9 -16 27h163q81 12 119 112q9 24 20 93h-683q-11 -24 -11 -72q0 -122 100 -133h119q28 -22 44 -40q43 -51 43 -100v-41h-390q0 -91 13 -121q11 -24 45 -53q9 -7 31 -20l-109 -275q-37 -17 -46 -46l-58 -123q8 5 31 5h62
q144 0 213 -21q143 -43 214 -105q23 -21 44 -60l24 17l-83 194l-38 51q0 32 64 56q52 19 91 19q57 0 104 -29q101 -65 134 -193q14 -57 -49 -233l-51 -109q-86 60 -171 79q-63 14 -190 14q-174 0 -289 -102q-37 -31 -82 -101q35 11 71 13q121 22 289 22q179 0 306 -38
q119 -36 184 -93l78 -72h44l-64 82q-34 53 -94 116q-14 14 -48 52l79 137q38 67 65 131q45 104 45 186q0 134 -78 218.5t-211 84.5q-83 0 -206 -101q-44 -36 -100 -97q-51 26 -95 26q-57 12 -132 12q37 93 62 130q103 153 251 153h203q171 0 248 63q44 37 51 131h-392
q10 12 13 18z" />
    <glyph glyph-name="glyph541" 
d="M970 1583l-47 -116q-26 -37 -319 -37h-136q-108 0 -148 -20q-48 -24 -91 -115q-10 -31 -10 -60q0 -45 10 -60q204 0 313 -20q93 -17 186 -83q71 -52 112 -99l107 -124l-37 -3l-56 56q-51 52 -169 90q-111 37 -190 37h-266q-57 0 -140 -19q-10 -4 -40 -11l7 33q4 17 10 34
l46 70q-2 17 -2 34q0 40 30 134q19 45 58 100q11 13 24 26l-52 23q-14 28 -14 130h814zM931 892l-14 -144v-686h-63v328q0 246 -67 346l-209 3l-3 -176v-335h-36q-50 97 -97 126q-72 43 -245 43q-88 0 -115 14q-15 10 -18 15q-19 24 -19 44q0 33 32 63q60 132 110 215l-50 7
q-30 28 -30 67q0 34 24 73zM501 401q0 96 -20 174q-17 61 -21 79q-16 44 -36 75l-76 17q-55 0 -138 -78.5t-94 -134.5h86q159 0 245 -76q23 -20 54 -56zM966 -788h-39l-70 53q-56 43 -149 74q-134 43 -276 43q-92 0 -210 -20q-41 -7 -105 -23q15 31 26 49q24 42 47 67
q53 33 172 30q24 0 51 -3q23 -1 26 -1q209 0 315 -59l47 83q12 26 25 84q15 65 12 85q-25 114 -110 153q-38 16 -100 16q-129 0 -129 -47l36 -49q14 -18 46 -100q16 -40 33 -76l-17 -10q-40 42 -69 62q-100 77 -213 97q-38 7 -93 7h-40q-16 0 -32 -4q-9 18 -10 31
q-10 32 -4 42l46 57l98 202h-51q-32 16 -32 69q0 27 6 47h733q-5 -56 -26 -77q-40 -39 -112 -39h-294q-138 -14 -217 -110q-27 -31 -54 -98q63 0 113 -10q59 0 86 -17q52 49 87 73q102 73 176 73q110 0 178 -57q74 -60 74 -169q0 -54 -38 -138q-10 -23 -52 -97l-70 -107
q18 -15 39 -36q55 -53 84 -89z" />
    <glyph glyph-name="glyph542" 
d="M1079 531h-53q-84 157 -116 209q-137 224 -243 279q-89 47 -342 47h-46l-179 -7q-14 20 -16 30q-21 36 -21 56q0 15 19.5 46.5t23.5 53.5l53 173q-7 9 -10 12q-26 37 -29 60q0 30 22 73q5 8 14 20h817q-19 -61 -31 -83q-44 -82 -128 -82h-303q-134 0 -182 -17
q-107 -36 -173 -166h186q268 0 395 -96q66 -50 210 -333q35 -70 132 -275zM948 784l-20 -149v-686h-64v327q0 247 -65 346l-210 4l-3 -177v-334h-37q-48 97 -96 126q-71 42 -246 42q-87 0 -114 15q-15 9 -18 15q-20 24 -20 43q0 34 32 63q61 132 111 216l-50 7
q-30 27 -30 67q0 34 24 73zM511 288q0 96 -19 174q-16 61 -22 79q-15 44 -36 75l-75 17q-55 0 -137.5 -78.5t-95.5 -135.5h87q158 0 245 -75q23 -21 53 -56zM974 -998h-42l-77 56q-61 46 -175 73q-123 30 -296 30q-163 0 -280 -16q-35 -2 -68 -11q44 55 79 80q112 80 278 80
q221 0 350 -73l49 86q61 139 47 183q-32 101 -130 152q-44 24 -99 24q-36 0 -86 -15q-63 -18 -63 -45l36 -40l79 -151l-22 -15q-21 31 -44 47q-68 48 -206 82q-40 11 -116 14l-89 3h-60q-24 0 -30 -3l56 96q10 23 43 37l107 216q-21 11 -30 16q-52 36 -55 87q-2 26 -2 49
h823q-7 -73 -50 -102q-75 -50 -239 -50h-195q-143 0 -242 -120q-26 -31 -61 -103q72 0 127 -9q43 0 93 -21q54 47 96 77q118 79 200 79q117 0 194 -59q84 -66 84 -179q0 -65 -42 -147q-28 -51 -64 -103l-76 -109q17 -15 46 -40q57 -49 90 -93z" />
    <glyph glyph-name="glyph543" 
d="M1079 531h-53q-84 157 -116 209q-137 224 -243 279q-89 47 -342 47h-46l-179 -7q-14 20 -16 30q-21 36 -21 56q0 15 19.5 46.5t23.5 53.5l53 173q-7 9 -10 12q-26 37 -29 60q0 30 22 73q5 8 14 20h817q-19 -61 -31 -83q-44 -82 -128 -82h-303q-134 0 -182 -17
q-107 -36 -173 -166h186q268 0 395 -96q66 -50 210 -333q35 -70 132 -275zM1079 -257h-53q-84 157 -116 209q-137 223 -243 278q-89 46 -342 46h-46l-179 -6q-14 20 -16 30q-21 36 -21 56q0 14 19.5 46t23.5 54l53 173q-7 9 -10 13q-26 37 -29 59q0 29 22 74q5 8 14 19h817
q-19 -60 -31 -83q-44 -82 -128 -82h-303q-134 0 -182 -17q-107 -36 -173 -166h186q268 0 395 -96q66 -50 210 -333q35 -69 132 -274zM991 -992h-43l-77 56q-61 46 -175 72q-123 31 -296 31q-163 0 -279 -17q-36 -1 -69 -10q44 55 79 80q112 80 278 80q222 0 350 -74l49 87
q61 138 47 182q-32 102 -130 152q-44 24 -99 24q-36 0 -86 -14q-63 -19 -63 -45l36 -40l80 -153l-23 -13q-21 29 -44 46q-68 49 -206 83q-40 10 -116 13l-89 3h-60q-24 0 -30 -3l56 96q10 24 43 37l107 216q-21 11 -30 16q-52 36 -55 87q-2 26 -2 48h823q-7 -72 -50 -101
q-75 -50 -238 -50h-196q-143 0 -242 -120q-24 -30 -61 -102q72 0 127 -10q43 0 93 -21q54 48 96 77q118 80 200 80q117 0 195 -60q83 -65 83 -178q0 -66 -42 -148q-28 -51 -64 -102l-76 -109q17 -16 47 -40q57 -51 89 -93z" />
    <glyph glyph-name="glyph544" 
d="M1079 531h-53q-84 157 -116 209q-137 224 -243 279q-89 47 -342 47h-46l-179 -7q-14 20 -16 30q-21 36 -21 56q0 15 19.5 46.5t23.5 53.5l53 173q-7 9 -10 12q-26 37 -29 60q0 30 22 73q5 8 14 20h817q-19 -61 -31 -83q-44 -82 -128 -82h-303q-134 0 -182 -17
q-107 -36 -173 -166h186q268 0 395 -96q66 -50 210 -333q35 -70 132 -275zM912 799l-10 -159v-575h-53q-89 90 -189 136q-157 73 -368 73h-83q-84 0 -117 -6l-13 13q-19 19 -24 37q-6 27 14 66q2 6 10 21l123 228l-54 17q-23 17 -23 56q0 25 14 63q3 11 12 30h761zM839 241
v57l-3 116q-2 67 -59 141q-60 78 -125 78h-191l-81 -17q-82 -17 -171 -113q-30 -31 -65 -82h114q279 0 375 -41zM942 -986h-43l-77 56q-60 45 -174 72q-124 30 -297 30q-162 0 -279 -16q-35 -3 -69 -11q44 55 79 81q113 79 279 79q221 0 349 -74l50 87q61 138 46 183
q-31 102 -130 152q-43 24 -99 24q-36 0 -85 -16q-64 -18 -64 -43l36 -41l79 -152l-23 -14q-19 30 -42 46q-69 49 -206 84q-41 9 -116 12l-90 4h-59q-24 0 -30 -4l55 97q10 24 44 36l106 217q-21 10 -30 16q-51 36 -55 86q-1 26 -1 49h822q-6 -72 -49 -102q-75 -49 -239 -49
h-196q-142 0 -241 -120q-26 -30 -61 -103q71 0 126 -10q43 0 93 -20q55 48 96 77q119 80 201 80q116 0 193 -60q85 -66 85 -180q0 -64 -43 -146q-27 -51 -64 -103l-75 -109q17 -15 46 -40q57 -50 89 -93z" />
    <glyph glyph-name="glyph545" horiz-adv-x="1058" 
d="M1043 591h-47l-46 162q-11 36 -64 120q-81 130 -162 187q-53 39 -129 68q-7 -85 -28 -129q-59 -133 -225 -133q-116 0 -199 53q-94 62 -94 173q0 20 7 47q24 95 97 150t172 55q20 0 66 -6l120 -30q0 70 -61 95q-37 15 -121 15h-127q-65 7 -79 86q-3 13 -6 79h816
q-1 -28 -7 -72q-15 -77 -69 -93h-104q-143 0 -143 -34q0 -4 1 -6l3 -93q77 -16 120 -37q66 -32 108 -89q66 -86 86 -129q14 -28 42 -141zM520 1043q4 3 19 56q0 7 5 23q0 24 -77 43q-51 11 -101 20q-24 0 -78 4l-59 3q-83 0 -89 -44q0 -52 46 -80q174 -65 222 -65
q80 0 112 40zM1128 -10l-53 -9q-6 6 -31 36t-62 78q-62 87 -83 110q-59 63 -133 90q-53 20 -159 35q-113 15 -265 15h-44q-56 0 -165 -31q0 33 23 96q4 13 12 31v32q0 18 -3 44q0 26 7 73q14 37 26 53q4 3 4 7q-13 9 -16 17q-18 19 -18 39q-3 19 12 54q3 10 16 29h687
q10 -67 -10 -93q-36 -46 -129 -46h-173q-154 0 -202 -17q-85 -30 -131 -142h266q193 0 302 -86q71 -55 200 -237q47 -66 122 -178zM908 221q0 -47 -10 -72q-30 -77 -130 -77h-291q-114 0 -157 -19l-66 -51l-40 -89l170 -3q160 -3 258 -76q86 -62 140 -214q11 -33 70 -253
l46 -177l-27 -6l-175 113q-55 21 -117 36q-156 40 -255 40q-120 0 -216 -30q-17 -4 -40 -16q17 25 43 63q49 68 63 80q43 24 126 22q24 0 55 -2q29 -1 35 -1q185 0 266 -66l159 -96l-26 103q-131 348 -469 348h-169q-11 15 -14 20q-16 25 -16 40q0 19 16 47q5 5 18 22
q3 53 23 109q8 23 23 56q-18 13 -23 20q-27 27 -30 47q-5 22 13 54q2 6 17 28h730z" />
    <glyph glyph-name="glyph546" horiz-adv-x="1058" 
d="M1043 591h-47l-46 162q-11 36 -64 120q-81 130 -162 187q-53 39 -129 68q-7 -85 -28 -129q-59 -133 -225 -133q-116 0 -199 53q-94 62 -94 173q0 20 7 47q24 95 97 150t172 55q20 0 66 -6l120 -30q0 70 -61 95q-37 15 -121 15h-127q-65 7 -79 86q-3 13 -6 79h816
q-1 -28 -7 -72q-15 -77 -69 -93h-104q-143 0 -143 -34q0 -4 1 -6l3 -93q77 -16 120 -37q66 -32 108 -89q66 -86 86 -129q14 -28 42 -141zM520 1043q4 3 19 56q0 7 5 23q0 24 -77 43q-51 11 -101 20q-24 0 -78 4l-59 3q-83 0 -89 -44q0 -52 46 -80q174 -65 222 -65
q80 0 112 40zM1128 -10l-53 -9q-6 6 -31 36t-62 78q-62 87 -83 110q-59 63 -133 90q-53 20 -159 35q-113 15 -265 15h-44q-56 0 -165 -31q0 33 23 96q4 13 12 31v32q0 18 -3 44q0 26 7 73q14 37 26 53q4 3 4 7q-13 9 -16 17q-18 19 -18 39q-3 19 12 54q3 10 16 29h687
q10 -67 -10 -93q-36 -46 -129 -46h-173q-154 0 -202 -17q-85 -30 -131 -142h266q193 0 302 -86q71 -55 200 -237q47 -66 122 -178zM950 -756h-39l-70 54q-57 42 -150 73q-133 44 -275 44q-92 0 -210 -20q-41 -8 -105 -24q15 31 26 50q24 41 47 67q53 32 172 29q23 0 51 -3
q22 -1 26 -1q208 0 315 -59l46 83q13 27 26 85q15 64 12 84q-25 114 -111 153q-37 17 -99 17q-130 0 -130 -46l37 -51q14 -18 46 -99q16 -40 33 -76l-17 -10q-41 41 -69 63q-101 76 -213 96q-38 6 -93 6h-40q-16 0 -32 -4q-10 19 -11 31q-10 32 -3 44l46 56l98 201h-51
q-33 17 -33 70q0 26 7 46h733q-5 -56 -26 -77q-40 -39 -112 -39h-294q-138 -14 -218 -108q-26 -32 -53 -100q63 0 113 -10q57 0 86 -16q52 49 86 72q103 74 177 74q110 0 178 -57q74 -61 74 -169q0 -54 -38 -139q-10 -23 -52 -97l-70 -106q18 -16 39 -36q55 -54 84 -90z" />
    <glyph glyph-name="ch377_ch429_ch451_ch446.ccmp" 
d="M1105 613h-54q-59 96 -127 179q-63 78 -85 87q-131 52 -238 57q13 0 -249 0h-240q-8 13 -23 34q-23 39 -19 59q0 14 18 28.5t21 41.5l17 122l-14 14q-28 36 -28 62t22 63h368q11 18 11 30q0 38 -60 60q-15 6 -63 17h-140q-42 0 -42 60q0 41 9 56h677q7 -29 7 -43
q0 -73 -89 -73h-203q14 -22 14 -41v-12l-34 -54h332q3 -46 -4 -68q-19 -71 -109 -71h-335q-247 0 -247 -85q0 -17 7 -28l14 -19h199q113 0 240 -33q121 -31 196 -77q30 -23 90 -100q98 -121 161 -266zM958 -246h-42l-77 56q-61 45 -175 72q-124 30 -296 30q-163 0 -280 -16
q-35 -2 -69 -10q45 55 80 79q112 80 278 80q221 0 350 -73l49 85q61 139 46 183q-31 102 -130 152q-43 24 -98 24q-36 0 -86 -15q-64 -18 -64 -45l37 -40l78 -152l-22 -14q-20 30 -43 47q-69 48 -206 83q-40 10 -116 13l-90 3h-59q-23 0 -29 -3l54 96q10 24 44 36l106 217
q-20 10 -30 16q-51 35 -55 87q-1 26 -1 49h823q-7 -73 -50 -103q-75 -49 -239 -49h-196q-142 0 -241 -120q-26 -30 -61 -103q71 0 126 -10q44 0 94 -20q54 48 95 76q119 81 201 81q116 0 194 -60q84 -65 84 -179q0 -65 -43 -147q-27 -51 -63 -103l-76 -108q17 -15 46 -40
q57 -50 90 -93z" />
    <glyph glyph-name="ch344_ch445.ccmp" horiz-adv-x="1270" 
d="M1192 358l-179 -195q-213 -232 -446 -232q-188 0 -305 176l-201 308l117 79q56 -54 111 -83q155 -82 329 -82h124q83 0 158 103q98 140 98 256q0 72 9 103v42q0 592 -181 592h-129v-771h-36v63q0 -5 -2 19q-3 28 -6 68q-1 46 -11 162q-8 63 -44 202l-66 257h-130
q-33 -66 -56 -140l-54 -163l-33 -93q-26 -78 -117 -112l-97 -38l58 197q79 30 100 47q26 21 59 90l65 212h-58q-32 9 -43 53l-7 56l3 49h877l-26 -218v-574q0 -233 -117 -396q-101 -142 -214 -142h-108q-133 0 -268 66l-137 67l107 -152q95 -138 244 -187l94 -14
q163 0 305 149l213 224v-48z" />
    <glyph glyph-name="ch345_ch445.ccmp" horiz-adv-x="1270" 
d="M1195 348l-197 -196q-208 -208 -333 -208q-117 0 -290 173l-146 145l140 144l69 -30q75 -23 227 -47h99q76 0 146 73l63 92q16 34 44 129l6 45q-45 90 -145 158q-134 91 -298 91h-185l-3 42q-6 90 42 108l38 81l43 90q20 45 72 117l50 70h-229q-135 0 -198 -296
q-42 -189 -42 -412v-740h-58v1425l80 181h906l-20 -149v-753q0 -168 -117 -305q-104 -123 -195 -123h-90q-151 0 -263 46l-52 23l88 -86q136 -130 246 -160l65 -10q92 0 231 136l206 204v-58zM1020 854v128q0 168 -23 247q-34 118 -141 196h-121l-51 -57l-107 -149
q-26 -36 -52 -120l-7 -26h56q76 0 110 -6q130 -9 242 -101q53 -44 94 -112z" />
    <glyph glyph-name="ch346_ch445.ccmp" horiz-adv-x="1270" 
d="M1192 345l-179 -182q-229 -232 -446 -232q-181 0 -305 176l-215 308l131 69q3 -5 111 -76q155 -79 329 -79h124q83 0 158 103q44 63 70 129q19 51 37 176l4 86q3 116 -25 283q-50 287 -182 319h-160l17 -163l4 -133v-525q-64 113 -124 180q-110 125 -305 125h-172v73
q0 17 25 90q29 78 34 108q14 135 94 245h-37q-23 35 -21 73l3 46l10 39h927l-23 -178v-614q0 -228 -120 -392q-103 -143 -214 -146l-108 -3q-132 -5 -268 65l-137 71l107 -152q95 -138 244 -187l91 -14q163 0 308 149l213 220v-57zM602 860v110q0 110 -41 260
q-53 197 -133 197h-96q-99 -119 -135 -214q-19 -53 -19 -130l75 -10q78 0 149 -31q69 -20 142 -102z" />
    <glyph glyph-name="ch348_ch445.ccmp" horiz-adv-x="1244" 
d="M777 273h-140q-111 0 -271 62q-60 24 -144 67l173 -169q39 -46 100 -114q42 -48 72.5 -64.5t89.5 -21.5q43 -3 50 -3q189 0 309 126l213 222v-49l-180 -196q-189 -206 -382 -206q-172 0 -345 179l-266 276l140 129q79 -53 133 -80q159 -79 291 -79q20 0 58.5 -2t58.5 -2
q102 0 173 54q26 20 65 72q11 18 11 34q0 36 -32 80q-5 7 -21 19q-73 58 -133 97q-83 52 -149 82q-35 11 -196 11q-87 0 -133 -4q-24 -2 -68 -6q-32 -1 -52 -1h-50q-19 0 -32 4q0 38 7 76q6 23 25 63q7 13 21 37q0 116 20 209q18 47 56 126l36 73q-29 14 -43 23
q-49 30 -60 61q-9 29 11 93l9 28h877q-7 -65 -23 -98q-49 -98 -190 -100l-365 -7q-127 -17 -166 -60q-50 -55 -50 -222v-122q21 5 30 5q76 17 149 17q132 0 233 -53q54 -28 192 -176q124 -132 173 -196q5 -18 5 -37q0 -81 -79 -161q-99 -96 -211 -96z" />
    <glyph glyph-name="ch368_ch445.ccmp" horiz-adv-x="1117" 
d="M863 806q20 44 20 87q0 40 -17 70q-4 8 -33 47q-70 129 -259 129q-1 0 -43.5 -23t-59.5 -26q-26 -5 -56 -5q-84 0 -182 46q-22 12 -40 24q17 -27 26 -43q29 -47 73 -117q43 -55 74 -88q55 -65 115 -101q115 -69 243 -69q108 0 139 69zM717 273h-139q-111 0 -272 62
q-61 24 -143 67l172 -169q50 -57 125 -139q64 -64 191 -64q182 0 305 126l215 222v-49l-182 -196q-191 -206 -382 -206q-171 0 -345 179l-264 276l142 129q93 -59 133 -80q156 -79 288 -79h156q76 0 106 63q19 41 19 89q0 18 -19 70q-5 14 -20 49q-75 -28 -139 -28
q-65 0 -197 46q-39 12 -76 59q-32 53 -41 67q-36 72 -112 208q-32 55 -80.5 132t-97.5 138l43 36q25 -44 93 -80q92 -46 189 -56q82 0 107 40q12 22 12 76q0 153 -212 153h-140l86 169h655l-51 149l87 167q11 -10 34 -31q67 -59 121 -65q28 -4 55 -7v-170q-31 -3 -47 -3
q-82 0 -119 37l-47 47h-37l47 -124h74l-47 -169h-233q-142 0 -142 -153q0 -43 7 -62l102 82q86 -31 179 -107q110 -92 110 -164q-7 -56 -30 -103q-39 -77 -56 -133l-34 -104q44 -73 44 -159q0 -92 -50 -161q-55 -77 -143 -77z" />
    <glyph glyph-name="ch369_ch445.ccmp" horiz-adv-x="1098" 
d="M904 947q-1 -51 -36 -86t-85 -35q-47 0 -99 30q-66 38 -83 54q-43 40 -43 101v117q53 44 110 44q54 0 119 -44q121 -63 117 -181zM478 1006q-9 -87 -14 -106q-19 -66 -77 -66q-17 0 -37 6q-89 23 -126 44q-83 45 -83 138q0 62 54 95q22 14 65 14q116 0 223 -75zM933 828
q55 108 55 240q0 94 -57.5 161.5t-150.5 67.5q-43 0 -73 -16l-149 -78q8 20 9 35q13 56 6 109q-3 23 -22 70l-12 35h303q49 0 60 67q2 13 2 64l9 59h75q83 0 109 91q6 30 6 90q-28 -17 -45 -25q-49 -24 -81 -24q-60 0 -148 49l35 -167v-73h-716q0 -127 55 -127h171
q74 0 109 -112q11 -34 19 -109l-143 41q-28 8 -61 8q-101 0 -163.5 -64.5t-62.5 -167.5q0 -126 51 -230q60 -130 175 -130q93 0 157 72q22 23 42 68q40 -50 65 -70q82 -69 182 -69q25 0 53 6q9 -18 22 -47q23 -63 23 -82q0 -50 -19 -90q-30 -63 -106 -63h-156
q-132 0 -288 79q-40 21 -133 80l-142 -130l264 -275q174 -179 345 -179q191 0 382 206l182 195v50l-215 -223q-123 -125 -305 -125q-127 0 -191 64q-31 39 -125 138l-172 170q82 -43 143 -67q161 -63 272 -63h139q88 0 143 78q50 69 50 161q0 54 -44 161q18 15 67 91z" />
    <glyph glyph-name="ch370_ch445.ccmp" horiz-adv-x="1115" 
d="M717 273h-139q-111 0 -272 62q-61 24 -143 67l172 -169q50 -57 125 -139q64 -64 191 -64q182 0 305 126l215 222v-49l-182 -196q-191 -206 -382 -206q-171 0 -345 179l-264 276l142 129q93 -59 133 -80q156 -79 288 -79q20 0 59.5 -2t60.5 -2q26 0 36 4q125 24 172 135
q18 43 -16 101q-5 8 -16 23q-93 53 -184 79q-45 14 -199 44q-50 10 -134 13l-91 3h-60q-71 0 -105 -13q-12 -5 -21 -13q5 30 26 106l34 66l19 138q2 26 31 161q9 47 31 131q18 55 25 78h-103l67 179h656l-52 146l89 167l31 -31q71 -60 124 -60h51v-179q-33 -3 -52 -3
q-83 0 -114 33l-47 51h-39l49 -124h77l-59 -179h-429q-39 0 -87 -8q-52 -9 -76 -55l-53 -100h505l-63 -149h-482q-4 -13 -9 -36q-11 -30 -20 -64l-17 -82l279 -14q163 -8 345 -152q127 -102 173 -186q4 -15 4 -30q0 -66 -70 -151q-86 -104 -190 -104z" />
    <glyph glyph-name="ch352_ch445.ccmp" horiz-adv-x="1111" 
d="M717 273h-139q-111 0 -272 62q-61 24 -143 67l172 -169q50 -57 125 -139q64 -64 191 -64q182 0 305 126l215 222v-49l-182 -196q-191 -206 -382 -206q-171 0 -345 179l-264 276l142 129q93 -59 133 -80q156 -79 288 -79q20 0 59.5 -2t60.5 -2q63 0 95.5 16t65.5 67
q44 65 55 132q3 14 3 32q0 80 -23 165q0 81 -56 157q-82 106 -243 135q-38 7 -54 7q-116 0 -116 -93q0 -71 83 -132q64 -47 146 -71l-82 -178q-52 34 -149 105q-91 68 -91 173q0 39 4 63q0 71 61 145q65 77 135 77h122q11 47 11 81q0 175 -266 175q-216 0 -216 -123
q0 -33 10 -49q10 -48 43 -73q5 -4 33 -20l-86 -147q-103 95 -103 176q0 121 147 282q51 58 149 136h511q0 -11 3.5 -35.5t3.5 -36.5q0 -82 -77 -163q-5 -5 -26 -23q0 -83 -40 -133q-13 -17 -44 -36q162 12 242 -116q64 -105 64 -276q0 -166 -60 -307q-76 -187 -219 -187z
" />
    <glyph glyph-name="ch353_ch445.ccmp" 
d="M970 561q-12 -98 -83 -188q-78 -100 -170 -100h-139q-111 0 -272 62q-61 24 -143 67l172 -169q43 -43 104 -100q94 -84 249 -84q165 0 268 107l215 222v-49l-182 -196q-191 -206 -382 -206q-171 0 -345 179l-264 276l142 129q93 -59 133 -80q156 -79 288 -79h156
q60 0 116 62q53 58 60 120v140q-91 -47 -153 -73q-146 -62 -238 -62q-16 0 -31 2l-49 7q-373 49 -373 388q0 309 317 309q99 0 205 -67q38 -23 82 -66l91 302h-482q-139 0 -139 126q0 37 7 43h783v-109l-92 -250q-22 -64 -54 -149q-17 -31 -50 -100l-100 -225l-39 6l66 247
q-30 34 -56 56q-72 56 -136 56q-127 0 -203 -79.5t-76 -205.5q0 -77 29 -114q55 -54 91 -73q42 -23 113 -29l95 6q148 11 302 70q57 22 163 73q0 -24 3.5 -72.5t3.5 -73.5q0 -43 -3 -56z" />
    <glyph glyph-name="ch354_ch445.ccmp" horiz-adv-x="1058" 
d="M710 1421h-461v-64q30 -139 266 -139q102 0 182 43q73 40 73 83q0 40 -60 77zM833 936q0 44 -30 86q-28 31 -86.5 60.5t-99.5 29.5q-129 0 -279 59q-49 21 -121 61l-12 -110l-19 -186v-115l106 68q28 21 86 57q28 13 64 13h195q64 0 196 -23zM963 688q12 -108 12 -100
q0 -116 -70 -211q-76 -104 -188 -104h-139q-111 0 -272 62q-61 24 -143 67l172 -169q51 -51 102 -100q75 -70 107 -80q120 -13 123 -13q175 0 289 116l215 222v-49l-182 -196q-191 -206 -382 -206q-171 0 -345 179l-264 276l142 129q93 -59 133 -80q156 -79 288 -79
q19 0 58 -2t58 -2q37 0 51 4q72 19 98 42l44 61q16 23 22 47l8 42q0 42 -11 47q-179 -83 -394 -83h-93q-118 0 -220 53q-35 18 -79 56v804l70 162h734q0 -69 -18 -99q-19 -34 -79 -57q-7 -2 -24 -6q31 -32 51 -64q48 -74 36 -122q-9 -35 -44 -65.5t-69 -30.5q25 -19 43 -36
q49 -46 60 -77q14 -17 22 -56l11 -57l-75 -113q-46 25 -97 30.5t-99 9.5h-117q-131 0 -263 -106q-47 -38 -103 -111q33 -20 68 -32q98 -36 198 -36h93q116 0 302 65q73 26 160 68z" />
    <glyph glyph-name="ch355_ch445.ccmp" horiz-adv-x="1058" 
d="M717 273h-139q-111 0 -272 62q-61 24 -143 67l172 -169q50 -57 125 -139q64 -64 191 -64q182 0 305 126l215 222v-49l-182 -196q-191 -206 -382 -206q-171 0 -345 179l-264 276l142 129q93 -59 133 -80q156 -79 288 -79q20 0 59.5 -2t60.5 -2q103 0 159 60q28 38 55 77
q29 46 34 86q7 46 10 93q-69 -33 -133 -57q-163 -59 -251 -59h-70q-116 0 -266 80q-49 25 -130 82q12 21 31 57q29 52 76 119q77 109 123 143q63 45 169 46l302 4q-3 37 -10 99q-53 216 -295 216h-212q-101 0 -133 93q-10 28 -14 96h763q4 -29 4 -46q0 -110 -63 -133
q-7 0 -24 -7q17 -32 27 -65q27 -88 27 -177q0 -43 -3 -66q16 -40 36 -79q0 -32 -20 -81q-3 -6 -10 -22q-129 10 -235 10q-246 0 -330 -54q-44 -29 -93 -79q-18 -21 -42 -54q63 -60 141 -85q86 -27 160 -25l94 3q142 6 288 65q59 23 133 65l33 -56q0 -147 -72 -274
q-86 -150 -223 -150z" />
    <glyph glyph-name="ch357_ch445.ccmp" horiz-adv-x="1058" 
d="M753 949q14 17 14 40q0 46 -53 83q-48 34 -97 34q-218 0 -218 -90q11 -13 16 -21q14 -16 19 -36q37 -117 127 -117q30 0 110 35q39 16 82 72zM717 273h-139q-111 0 -272 62q-61 24 -143 67l172 -169q50 -57 125 -139q64 -64 191 -64q182 0 305 126l215 222v-49l-182 -196
q-191 -206 -382 -206q-171 0 -345 179l-264 276l142 129q93 -59 133 -80q156 -79 288 -79q18 0 53.5 -2t52.5 -2q91 0 143 37q4 4 56 67q20 24 30 92q0 20 7 63q-73 -26 -143 -46q-170 -50 -233 -50h-128q-106 0 -197 112q-30 39 -69 114q-10 49 -10 103q0 117 40 198
q32 68 96 110q10 7 86 51q37 20 40 33l10 72q0 64 -26 87t-90 23h-86q-47 13 -63 90q-4 26 -7 79h737q0 -63 -3 -83q-16 -87 -80 -79l-87 -7q-94 -7 -158 -43q-80 -44 -90 -136h119q104 0 192 -64q113 -79 113 -212q0 -184 -229 -246q-38 -9 -63 -9q-82 0 -132 64
q-33 42 -83 186l-17 45q-144 -94 -144 -182q0 -18 17.5 -91t82.5 -112q56 -34 147 -34h79q118 0 290 71q52 21 149 70q10 -57 10 -104q0 -125 -64 -227q-73 -117 -192 -117z" />
    <glyph glyph-name="ch358_ch445.ccmp" horiz-adv-x="1104" 
d="M1012 670q-29 -154 -112 -273q-79 -114 -183 -118l-139 -6q-99 -6 -272 62q-61 24 -143 67l172 -169q50 -57 125 -139q64 -64 191 -64q182 0 305 126l215 222v-49l-182 -196q-191 -206 -382 -206q-171 0 -345 179l-264 276l142 129q93 -59 133 -80q152 -77 288 -79
q26 -1 64 -2q34 -2 46 -2q30 0 46 4q115 24 169 156q15 36 33 126q0 188 -116 332q-93 116 -239 116q-45 0 -119 -56q-30 -23 -67 -56l74 -226h-34l-83 173q-46 96 -153 248q-50 73 -98 136l112 282h774q-7 -76 -20 -109q-38 -95 -124 -95q-12 0 -26 2h-587l153 -371
q52 69 89 102q112 103 216 103q177 0 270 -109q88 -102 88 -283q0 -63 -17 -153z" />
    <glyph glyph-name="ch359_ch445.ccmp" horiz-adv-x="1111" 
d="M823 1338l-2 59h-490q-62 -43 -62 -83q0 -42 76 -76q99 -43 206 -43q242 0 272 143zM893 770v126l-23 186l-28 150q-53 -49 -98 -77q-130 -80 -240 -80q-46 0 -70 7q-109 0 -175 -79q-31 -38 -42 -104q32 8 49 8q119 16 149 16h202q87 0 169 -83zM717 273h-139
q-111 0 -272 62q-61 24 -143 67l172 -169q50 -57 125 -139q64 -64 191 -64q182 0 305 126l215 222v-49l-182 -196q-191 -206 -382 -206q-171 0 -345 179l-264 276l142 129q93 -59 133 -80q156 -79 288 -79q20 0 59.5 -2t60.5 -2q63 0 94 15q36 16 71 65q47 67 47 136
q-8 69 -142 146q-113 65 -200 83h-120q-146 0 -249 -23q-7 -2 -14 -2q-41 0 -51 65q0 13 -5 40q30 46 61 97q17 50 63 98q13 15 49 44q-30 3 -63 27q-46 32 -52 76q-16 48 28 119q19 29 54 63l-10 21q-23 47 -23 82q0 59 10 83h777l-33 -169v-856q1 -14 1 -25
q0 -78 -71 -164q-82 -96 -186 -96z" />
    <glyph glyph-name="ch360_ch445.ccmp" horiz-adv-x="1111" 
d="M717 273h-139q-111 0 -272 62q-61 24 -143 67l172 -169q50 -57 125 -139q64 -64 191 -64q182 0 305 126l215 222v-49l-182 -196q-191 -206 -382 -206q-171 0 -345 179l-264 276l142 129q93 -59 133 -80q156 -79 288 -79q20 0 59.5 -2t60.5 -2q98 0 168 54q28 20 68 72
q19 27 39 70q3 11 14 30q-12 35 -20 49q-30 54 -110 147q-112 129 -478 129h-278q-16 26 -18 37q-19 39 -13 74q3 16 18 18q20 2 38 75l71 275q-16 18 -21 26q-23 37 -29 61q-7 36 10 93q2 8 12 25h818q-12 -74 -23 -102q-46 -103 -161 -103h-262q-145 0 -215 -50
q-90 -64 -113 -239l199 7q87 2 193 -28q131 -39 204 -109q55 -52 137 -192q90 -151 103 -200q0 -106 -103.5 -200t-211.5 -94z" />
    <glyph glyph-name="ch362_ch445.ccmp" horiz-adv-x="1111" 
d="M585 883v66q0 81 -216 107q-61 0 -113 -18q-74 -25 -74 -72q0 -12 11 -30q33 -70 80 -87q109 -39 112 -43q55 -29 103 -29q97 0 97 106zM690 279l-112 -6q-116 -8 -272 56q-63 24 -143 73l172 -169q50 -57 125 -139q64 -64 191 -64q182 0 305 126l215 222v-49l-182 -196
q-191 -206 -382 -206q-171 0 -345 179l-264 276l142 129q93 -59 133 -80q156 -79 288 -79h113q150 27 180 192q12 11 12 47q0 77 -45 159q-60 106 -173 179v-33q0 -133 -74.5 -211t-207.5 -78q-116 0 -186 91q-63 82 -63 201q0 150 109 229q90 67 205 67h130
q-26 199 -226 199h-93q-56 23 -56 149v27q0 9 3 13h781q3 -67 -4 -93q-25 -96 -124 -96h-98q-63 0 -87 -13q-46 -27 -46 -105l14 -81q6 -20 59 -50q76 -42 80 -46q127 -94 169 -293q15 -69 17 -178q1 -111 -73 -220q-86 -124 -187 -129z" />
    <glyph glyph-name="ch363_ch445.ccmp" horiz-adv-x="1270" 
d="M1182 348l-196 -196q-209 -208 -333 -208q-118 0 -294 173l-279 228l139 146l140 -73q138 -73 292 -89h96q83 0 160 107q45 64 68 139q-169 168 -260 226q-147 92 -326 92h-146q-33 0 -81 -33h-32l38 169l168 396h-41q-29 -7 -39 47l-6 111h427q0 -36 -6 -53
q-11 -52 -50 -96q-19 -22 -117 -53q-52 -17 -73 -39l-79 -85q-22 -28 -57 -102l-26 -82l-3 -28h89q291 0 429 -105q135 -156 214 -233v385q0 186 -114 390v101h199v-101l-21 -104l-3 -97v-600q0 -168 -116 -305q-103 -123 -196 -123h-89q-128 0 -283 76q-50 13 -156 77
l352 -273q47 -37 103 -61l57 -6q73 0 143 47l101 92l207 203v-60z" />
    <glyph glyph-name="ch364_ch445.ccmp" horiz-adv-x="1270" 
d="M1169 348l-199 -196q-116 -113 -179 -153q-85 -55 -150 -55q-119 0 -295 173l-282 228l142 146l140 -73q138 -73 291 -89h98q79 0 156 99q45 60 72 136q-129 117 -281 199q-186 100 -323 97l-130 -3q-58 -1 -93 -27h-33l17 152l185 445h-55q-19 0 -28 17l-5 57v43
q0 26 5 39h429q0 -41 -7 -53q-8 -58 -50 -94q-17 -14 -95 -58l-91 -51q-73 -51 -123 -182l-49 -129h91l142 -4q74 95 208 159l252 121q0 46 -19 92l-57 100l3 99h200l3 -146l-23 -102l-6 -90v-667q-24 -104 -106 -208q-95 -117 -189 -117h-91q-114 0 -266 66l-159 70
l309 -232q101 -75 146 -88l36 -9l37 -4q48 -4 90 26l332 324v-58zM963 744v173l-13 254l-152 -39q-142 -36 -237 -150l120 -48l93 -51z" />
    <glyph glyph-name="ch365_ch445.ccmp" horiz-adv-x="1270" 
d="M1156 348l-197 -196q-208 -208 -331 -208q-121 0 -292 173l-282 228l140 146l138 -73q139 -73 293 -89h98q143 0 227 246q-166 167 -243 219q-149 99 -345 99h-145q-23 0 -77 -33h-37l30 162l175 405h-35q-30 -6 -40 48l-7 108h833v-156l-23 -123l-3 -104v-519
q0 -166 -116 -305q-104 -123 -194 -123h-89q-131 0 -284 76q-51 13 -156 77l350 -273q55 -44 114 -64l80 -13q52 0 88 26l124 123l206 201v-58zM963 730v299q0 119 -16 180q-11 72 -98 216h-364q-118 -93 -203 -270l-44 -91h92q263 0 417 -117q137 -147 216 -217z" />
    <glyph glyph-name="ch367_ch445.ccmp" horiz-adv-x="1270" 
d="M1172 329l-183 -196q-192 -206 -380 -206q-172 0 -347 180l-264 276l142 129l133 -80q119 -71 288 -81l57 -3h63l70 6q46 5 98 48l68 72q21 36 42 114l11 35l-406 356q0 -106 -20 -158q-58 -160 -255 -160q-104 0 -177.5 68t-73.5 170q0 279 267 327q45 8 106 9
q0 190 -178 190q-39 0 -50 53l-5 105h529l-3 -79q-16 -79 -79 -79h-54q-43 0 -67 -44q-16 -42 -16 -96v-33l4 -20l95 -35q59 -32 120 -91l139 -170l146 -208v364q0 356 -108 372v119h262v-111q-84 -8 -84 -247v-564q0 -160 -119 -282q-103 -106 -227 -106h-139
q-136 0 -272 62l-143 67l174 -168l124 -137q32 -36 79 -53l112 -14q182 0 305 127l216 222v-50zM465 889q0 83 -12 107q-27 49 -145 87l-35 3q-136 0 -143 -111l10 -39l47 -70l72 -65q44 -40 110 -48q44 0 72 49q24 42 24 87z" />
    <glyph glyph-name="ch377_ch445.ccmp" horiz-adv-x="1124" 
d="M717 273h-139q-111 0 -272 62q-61 24 -143 67l172 -169q50 -57 125 -139q64 -64 191 -64q182 0 305 126l215 222v-49l-182 -196q-191 -206 -382 -206q-171 0 -345 179l-264 276l142 129q93 -59 133 -80q156 -79 288 -79q20 0 59.5 -2t60.5 -2q98 0 168 54q28 20 68 72
q33 45 33 81q-117 192 -222 275q-123 96 -294 96q-167 0 -285 -37q-40 -12 -83 -40l83 180q54 63 350 63q0 14 2.5 40.5t2.5 38.5q0 133 -91 195q-65 44 -140 31l-40 -7q-60 0 -84 131q-2 10 -9 62h799q-8 -63 -22 -96q-41 -97 -124 -97h-229q3 -15 7 -30q24 -88 24 -112
q-2 -45 -31 -100q-6 -17 -29 -59l93 -21q101 -20 193 -151q25 -39 129 -240l62 -122q-37 -114 -107 -191q-83 -91 -188 -91z" />
    </font>
</defs>
</svg>
